<svg xmlns="http://www.w3.org/2000/svg" width="295" height="165">
    <path fill="#FFF" fill-rule="evenodd" d="M210.205 76.51c.238.222.322.416.551.52.229.105.501.178.777.237.277.059.827.319.922.403.096.084.115.226-.009.179-.123-.048-.254-.035-.472-.016-.219.018-.408-.047-.57-.031-.163.017-.813.209-1.049.364-.235.154-.576.403-.802.553-.227.15-.432.197-.669.399-.238.201-.689.605-1.268.777-.579.172-1.232.309-1.502.339-.27.03-.665.037-.831-.003a6.18 6.18 0 0 1-.877.413c-.061.561-.047 1.263.013 1.468a.616.616 0 0 1-.026.465c-.053.106.034 1.041-.06 1.456-.094.415-.269.727-.223 1.275.046.548-.122 1.496-.393 2.317-.272.821-.586 2.219-.935 3.342a19.991 19.991 0 0 1-1.165 2.914c-.41.838-.563.826-.678.6-.162.69-.817 1.639-1.186 1.774-.37.134-.385-.196-.385-.196-.2.184-.398.148-.454-.048-.055-.195-.057-.473-.057-.473s-.304.128-.335-.311c-.03-.439.077-.674.077-.674s-.326-.118-.287-.53c.038-.413.146-.648.146-.648s-.508.302-.533-.372c-.025-.674.093-.913.093-.913s-.456-.303-.356-.953c.099-.649.11-.851.11-.851s-.248-.467.007-1.026c-.089-.318-.038-.505.179-.627-.101-.419.175-.905.442-1.34-.124-.246-.146-.468.189-.853-.171-.2-.087-.39.087-.504-.163-.182-.23-.453-.049-.629-.114-.273-.052-.51.025-.592-.175-.256-.126-.499.033-.596-.174-.233-.15-.477-.036-.575-.145-.317-.029-.51.047-.591-.124-.199-.079-.498.017-.635.008-.305.112-.55.165-.656.054-.106.03-.257.209-.362-.095-.108-.012-.251.124-.301-.064-.215.131-.408.247-.427-.07-.177.078-.325.078-.325s-.206-.104-.548.041c-.343.145-1.967.365-2.581.24-.614-.125-.8-.459-.719-.531.08-.071.669-.05 1.65-.313.981-.263 1.935-.583 2.228-.787.293-.203 1.021-.92 1.795-1.286.775-.366 1.909-1.139 3.09-1.633 1.181-.494 1.897-.52 2.305-.544.409-.025.706-.044 1.166-.231.459-.187 2.277-.333 3.923-.308 1.646.025 3.227.231 4.831.833 1.603.602 2.446.808 3.552 1.116 1.105.307 2.109.441 2.797.382.687-.06 1.963.147 2.042.296.08.149-.056.548-.385.548s-1.399.094-2.281-.048c-.882-.143-1.862-.299-2.794-.65-.933-.351-1.316-.27-2.201-.642-.886-.373-1.288-.434-1.646-.397-.358.036-1.033.147-1.411.041-.378-.106-1.124-.148-1.577-.022-.453.126-.921.27-1.33.121-.38.185-.548.041-.548.041s-.392.11-.689-.004z"/>
    <path fill="#5B648C" fill-rule="evenodd" d="M225.337 157.089l-.021-.046.658-.003.023.014-.66.035zm-3.513-.282l-.422-.347c.381-.043.763-.078 1.14-.078.612 0 1.212.092 1.782.386l.646-.136c.31.1.285.263.346.411-1.074-.015-2.119-.103-3.201-.519.331.151.216.28-.291.283zm-5.488 1.056c-1.693.264-3.288.669-4.94 1.044-2.023.206-3.495.506-5.742.717a2.156 2.156 0 0 1-.133.005c-1.194 0 1.242-1.311 2.214-1.553a.277.277 0 0 1 .123-.028c.187 0 .402.166.616.332.215.165.43.331.618.331.046 0 .089-.01.131-.031.927-.019 1.79-.446 2.791-.674a.301.301 0 0 1 .114-.027c.142 0 .207.152.255.303.049.151.081.303.161.303.01 0 .021-.002.033-.008 1.215-.195 2.215-1.034 3.024-1.034.094 0 .186.012.276.037l1.808.362c-.353-.041-.704-.089-1.072-.089-.092 0-.184.003-.277.01zm-.923-2.185a2.286 2.286 0 0 0-.602-.332l1.217.136c-.16.107-.284.232-.453.232a.411.411 0 0 1-.162-.036zm-2.176-.077a2.029 2.029 0 0 0-.6-.283l.645-.068-.009.002c-.22.078-.161.215-.036.349zm0 0c.138.096.262.203.37.315-.074-.074-.256-.193-.37-.315zm-1.682-.326c.166-.029.32-.042.466-.042.227 0 .431.032.616.085a5.558 5.558 0 0 1-.431.019c-.213 0-.43-.016-.651-.062zm1.915-.086l.216.026c-.134.007-.27.018-.404.035l.188-.061zm-5.558 1.21l-.647.303a2.243 2.243 0 0 0-1.435-.482c-.491 0-.991.122-1.491.252l.424.514c.514-.045.623-.268.282-.483.882.464 1.731.607 2.59.607.206 0 .413-.008.621-.022l.023.084c-1.922.378-3.988.88-5.777 1.537l-.739.279a2.886 2.886 0 0 1-.368.023c-.251 0-.494-.029-.739-.063-.572-.152-1.158-.311-1.81-.467a.721.721 0 0 0-.243-.041c-.813 0-1.798 1.232-3.019 1.517a.056.056 0 0 1-.033.012c-.077 0-.113-.2-.166-.399-.052-.2-.12-.399-.259-.399a.236.236 0 0 0-.119.04c-.99.35-1.836.905-2.754.942a.233.233 0 0 1-.135.043c-.186 0-.402-.204-.619-.407-.217-.203-.433-.406-.62-.406a.227.227 0 0 0-.131.04c-.952.346-3.31 1.991-2.173 1.991.046 0 .098-.002.156-.008 2.225-.292 3.686-.699 5.69-.982-1.795.571-3.661 1.11-5.828 1.231a6.037 6.037 0 0 1-.272.006c-.505 0-1.061-.06-1.642-.12-.581-.061-1.189-.121-1.797-.121-.395 0-.79.025-1.178.093-2.318.759-4.71 2.122-7.474 2.308-5.219.107-10.163.788-15.157 1.068-1.251.07-2.508.111-3.771.111-3.764 0-7.575-.366-11.431-1.411-2.024-.345-3.897-.336-5.557-.923-3.327-1.114-6.99-1.229-10.431-1.89-3.425-.66-6.595-1.857-8.677-4.578-1.463-1.781-3.853-2.867-5.454-3.32-.487-.131-.903-.202-1.199-.202-.577 0-.7.267-.01.867-2.193-1.685-3.881-2.373-5.225-3.12-1.433-.776-2.47-1.619-3.289-3.323-.067-.124-.371-1.073-.067-1.884.295-.823 1.129-1.586 3.483-1.721 3.22.628 9.492 1.339 12.554 2.757 3.976 2.001 8.025 3.132 12.105 3.787 4.091.68 8.156.903 12.402 1.725 4.345.825 8.846 1.361 13.577 1.67 8.737.458 16.61.111 25.128.952 1.324.105 2.618.216 3.899.339l1.96.172.175.115-.09-.108.463.041c.209.314.486.411.797.411.263 0 .549-.069.836-.135.154-.036.344-.059.543-.086l2.587.211-.185.099-.128.03h.001-.004l-.51.117a1.774 1.774 0 0 0-.078-.022c-.14.032-.279.064-.415.087.167-.01.332-.035.493-.065.232.068.43.184.607.33.127.165.319.318.391.414a2.51 2.51 0 0 0-.391-.414c-.13-.169-.192-.345.024-.471l.01-.006.401-.082 1.134.078c.201.085.404.209.603.406a.324.324 0 0 0 .147.039c.179 0 .304-.192.466-.359 2.594.185 5.252.278 8.075.364 0 0 1.447.67 1.895 1.133-.222.027-.443.05-.661.064-.058-.254-.033-.548-.344-.689zm-22.665-1.809c-.214 0-.437.067-.67.223.482.455 1.046.69 1.557.69.179 0 .352-.029.513-.088-.42-.437-.884-.825-1.4-.825zm2.379 1.854c.065.09.131.126.2.127-.069-.001-.135-.037-.2-.127zm-88.143-7.477c-1.606.117-3.899.187-6.702.187-17.396 0-54.596-2.753-71.342-14.803-10.107-7.272-14.913-18.942-17.165-27.453-2.43-9.181-2.491-16.543-2.492-16.851l-.003-.743.365-.039L-.005.118s23.547-.274 24.088 0l1.498 89.572c1.189 5.477 5.975 20.626 23.577 30.252 11.254 6.155 22.47 11.825 31.482 16.382 18.211 9.206 20.266 10.419 19.996 11.793-.046.235-.25.785-1.153.85zM45.956 119.97c-10.159-6.249-15.636-14.221-18.477-20.004a44.334 44.334 0 0 1-3.093-8.23H3.477c.375 6.267 2.743 28.41 17.551 40.244 2.878.257 13.566 4.091 15.413 1.621 2.111-2.824 1.41-6.279 7.307-6.43 4.531-.116.946-6.145 2.208-7.201z"/>
    <path fill="#FFF" fill-rule="evenodd" d="M256.885 38.859c-.153.157-.801.232-1.231.555-.431.324-.693.485-.599.706.091.05.279-.148.613-.174.334-.026.622-.122.817-.219.196-.096.873-.006 1.409.123.534.128 1.029.346 1.345.585.316.24.671.258.952.51.282.252.705.744 1.541.949.836.205 1.51.354 2.041.321.529-.032 1.263.08 1.576.329.314.248 1.202.454 1.83.394a2.965 2.965 0 0 0 1.437-.56.987.987 0 0 1 1.004-.137c.216.367.055.949.305 1.114.251.165.954.78 1.141 1.04.189.261.599.581.881.604.283.021.38-.096.184-.18-.197-.083-.105-.221-.327-.51-.223-.289-.274-.52-.083-.597.192-.077.373-.106.373-.106s-.322-.392-.605-.454c-.284-.062-.649-.083-.732-.171-.082-.088.174-.27.174-.27s-.02-.145-.219-.078c-.199.065-.37.097-.578-.119-.208-.215-.062-.641.175-.689.235-.048.968-.204 1.31-.358.828.193 1.461.163 1.702.137.663.197.988.118 1.221.041.464.172.68.08.823.032.463.132.935.087 1.087-.089-.326-.152-1.393-.377-2.137-.621-.746-.246-1.642-.56-1.929-.744-.288-.182-.492-.493-1.04-.853.4-.018.541-.28.559-.355.226.209.77.156 1.034-.104.363.027.474-.042.554-.157.205.245.425-.065.592-.201.342.182.526-.15.637-.284.273.126.529-.096.63-.247.288.117.554-.091.652-.228.215.14.462-.044.603-.186.399.169.552-.024.663-.093.274.18.62-.022.745-.154.129.281.482.107.695-.112.234.238.524.103.633-.019.293.157.536.051.705-.097.373.228.582.089.682-.049.304.226.694.007.891-.202.523.235.929.126 1.133.011.292.158 1.311.131 1.483-.031.504.191 1.016.105 1.16-.049.306.161 1.658.167 2.152.156.495-.01 2.201.3 3.231.342 1.03.042 3.442.016 3.745.004.305-.013.815-.219-.09-.206-.906.012-4.111-.204-5.969-.455-1.858-.252-6.138-.944-8.842-1.323-2.704-.378-4.681-.615-6.29-.572-1.609.043-2.212.448-2.895.656-.682.208-1.113.212-1.791.581-.676.369-1.009.525-1.485.638a2.043 2.043 0 0 1-1.966-.563c-.676-.688-1.918-2.378-5.266-4.374-3.347-1.996-4.404-2.13-6.084-3.238-1.68-1.109-3.081-2.143-4.173-2.703-1.091-.56-1.979-.809-2.345-1.064-.367-.253-.779-.49-1.137-.543-.513-.578-.948-.834-1.292-.883-.323-.577-.901-1.05-1.21-1.012-.239-.399-.707-.993-1.107-.975-.185-.214-.386-.352-.513-.274-.127.078-.318 1.179 2.14 3.265 2.46 2.084 2.176 1.583 3.084 2.289.908.706 2.386 1.311 3.135 1.875.749.565 2.036 1.287 2.249 1.561.212.273.842.571 1.514.933.671.36 3.083 1.797 4.122 2.837 1.038 1.041 2.17 2.34 1.852 2.723-.423-.068-.634.204-.986.312-.352.109-.875.246-1.192.561-.316.316-.39.509-.453.745-.063.235-.26.291-.392.421-.131.131-.218.291-.258.332zM155.667 48.693c-.064-.066.142-.183.271-.196a.431.431 0 0 1 .375-.221c.168-.235.581-.314.581-.314s.22-.351.646-.442c.155-.274.516-.535 1.098-.509 0-.339.335-.508.542-.6.258-.299.866-.69 1.381-.651.195-.43.698-.848 1.137-.834.078-.352.375-.665.672-.652.258-.482.619-.547.71-.522.207-.326.569-.377.569-.377s.284-.261.387-.078c.103.182.181.795.065 1.043-.117.247-.349.69-.491.859.09.092.246.04.246.04s.18-.327.245-.456c.064-.131.193-.248.349-.196-.027-.3.249-.42.417-.433.052-.208.286-.381.532-.408.426-.065 1.529-.632 2.124-1.023.594-.391.866-.547 1.02-.521.285-.3.582-.404.749-.365a.943.943 0 0 1 .893-.274c.412-.378.658-.326.826-.286.271-.326.658-.405.878-.301.387-.351.826-.208 1.265-.507.439-.301.788-.235 1.331-.613.542-.378 2.312-1.421 2.596-1.773.283-.352.567-.548.748-.573.531-.587 1.292-1.134 1.588-1.134.661-.404 2.765-1.512 3.489-1.929.723-.417 1.665-.925 1.911-.783.736-.377 1.679-1.002 1.976-.833.775-.496 1.318-1.031 1.537-.534.555-.587 1.085-1.278 1.305-.835.439-.496.736-.6.942-.287.207.313.852.978-.039 2.425-.891 1.447-2.557 3.193-4.197 4.457-1.64 1.265-2.57 1.59-3.448 2.164-.879.574-2.326 1.251-3.565 1.524-1.537.339-1.731.796-2.428 1.121-.727.34-2.583.652-4.714 1.435-2.131.781-4.314 2.032-4.585 2.332-.272.299-.194.808-.194.808s.336.434.433.884c.367.283.707.761.755 1.006.048.244.01.772.048.841.039.068.456.459.66.674.203.216.716.743.726.899.01.156-.145.118-.213.03s-.92-.616-1.105-.636c-.184-.019-.755-.087-1.094-.039-.34.049-.581.118-.89.127-.312.011-.99.264-2.026-.049a7.508 7.508 0 0 1-2.102-1.026c-.571.362-2.15 1.808-2.799 2.591-.65.782-1.55 1.964-1.841 2.454-.291.487-.484.663-.716.742-.329.665-1.686 2.698-2.229 3.343-.542.645-2.983 2.913-4.862 4.223-1.88 1.31-5.308 2.737-6.316 2.464-.794.019-1.059-.203-1.227-.359-.361-.079-.645-.782-.607-.873.039-.092.4-.196.4-.196s-.206-.273-.141-.391c.065-.117.555-.261.555-.261s-.181-.3.078-.43c.258-.13.697-.274.697-.274s-.297-.403-.052-.611c.245-.209 1.021-.744 1.021-.744s.012-.365.284-.574c.271-.207 2.377-2.046 2.377-2.046s-.337-.142.115-.352c.453-.209 4.276-2.736 5.206-3.897.929-1.16 2.905-3.545 3.577-4.157.671-.613 2.156-2.086 2.17-2.411-1.008.442-2.493.43-2.622.3z"/>
</svg>
