<svg xmlns="http://www.w3.org/2000/svg" width="186" height="187">
    <path fill="#655D8C" fill-rule="evenodd" d="M185.668 44.904l.04-.118-.179-.038-28.131-31.447.037-.155L56.227.432.836 168.873l137.646 17.292 47.181-141.246.023.005-.018-.02zm-51.437 134.605L8.977 163.774 60.502 7.09l89.376 11.227-5.705 23.774 33.553 7.197-43.495 130.221z"/>
    <path fill="#FFF" fill-rule="evenodd" d="M143.835 65.706a1.843 1.843 0 0 1-2.059 1.593L58.377 56.822a1.843 1.843 0 0 1-1.6-2.053 1.844 1.844 0 0 1 2.058-1.594l83.4 10.477a1.844 1.844 0 0 1 1.6 2.054zm-7.763 24.999a1.846 1.846 0 0 1-2.06 1.593L50.617 81.822a1.844 1.844 0 0 1-1.601-2.053 1.844 1.844 0 0 1 2.059-1.594l83.396 10.476a1.845 1.845 0 0 1 1.601 2.054zm-5.878 25.232a1.842 1.842 0 0 1-2.058 1.593l-83.4-10.477A1.844 1.844 0 0 1 43.135 105a1.845 1.845 0 0 1 2.059-1.593l83.399 10.477a1.843 1.843 0 0 1 1.601 2.053zm-7.224 25.067a1.843 1.843 0 0 1-2.059 1.593l-83.396-10.476a1.844 1.844 0 0 1-1.6-2.053 1.842 1.842 0 0 1 2.058-1.593l83.396 10.476a1.843 1.843 0 0 1 1.601 2.053z"/>
</svg>
