<svg xmlns="http://www.w3.org/2000/svg" width="274" height="207">
    <path fill="#655D8C" fill-rule="evenodd" d="M150.99 136.585a4.667 4.667 0 0 1-.24 1.177c-.499 1.405-1.282 2.408-2.066 3.376a31.61 31.61 0 0 1-2.519 2.64c-3.507 3.271-7.292 6.065-11.125 8.776-7.672 5.416-15.613 10.337-23.894 14.726l-.05.026a1.648 1.648 0 0 1-.793.189c-1.163-.023-2.326-.055-3.49-.08-.084 2.895-.209 5.785-.322 8.658-.139 3.433-.361 6.823-.541 10.184-.224 3.345-.42 6.667-.663 9.901l-.697 9.525-28.738.671c-9.673.235-19.443.503-29.258.654a1.488 1.488 0 0 1-1.508-1.47l-.001-.046-.346-19.88-.277-18.204c-1.257.028-2.514.062-3.772.087a1.62 1.62 0 0 1-.787-.185l-.055-.03c-8.471-4.488-16.584-9.536-24.42-15.096-3.908-2.793-7.777-5.654-11.309-9.092-.876-.873-1.726-1.787-2.499-2.832a10.964 10.964 0 0 1-1.062-1.727c-.3-.642-.58-1.384-.561-2.313.123-2.512.533-4.921 1.082-7.307 1.139-4.743 2.852-9.382 5.526-13.529 1.351-2.053 2.961-3.985 4.954-5.506a15.281 15.281 0 0 1 3.233-1.905c1.159-.49 2.225-.853 3.334-1.317 4.397-1.763 8.741-3.692 13.064-5.664 1.764-.807 3.52-1.633 5.276-2.461l5.991-2.976-.2-.353-1.92-8.502-2.454-4.775a6.763 6.763 0 0 1-.374-5.3l2.83-8.166c.015-2.522.356-5.025.901-7.46.329-1.461.73-2.903 1.205-4.321l-1.96-2.637c.313.718.606 1.444.881 2.178a.179.179 0 0 1-.103.231.18.18 0 0 1-.217-.079 65.44 65.44 0 0 0-2.487-3.872 25.862 25.862 0 0 0-1.372-1.798c-.477-.555-.993-1.115-1.503-1.455a1.347 1.347 0 0 0-.355-.193c-.003.011-.002.02-.007.024l-.048.125a4.92 4.92 0 0 0-.201.879c-.053.337-.086.695-.114 1.055-.117 1.451-.096 2.964-.031 4.465.065 1.505.262 3.01.482 4.499.217 1.49.374 2.975.495 4.458.123 1.483.243 2.964.419 4.42.095.729.205 1.445.377 2.137.17.698.373 1.358.869 1.907l.022.024a.184.184 0 0 1-.012.258.185.185 0 0 1-.149.046c-.907-.133-1.615-.827-2.161-1.472a10.802 10.802 0 0 1-1.327-2.158c-.729-1.497-1.19-3.058-1.542-4.626a22.151 22.151 0 0 1-.491-4.752c.013-1.591.097-3.175.183-4.759.096-1.586.234-3.166.532-4.777.084-.404.173-.808.294-1.224.121-.416.256-.836.513-1.317.079-.128.14-.245.241-.375.118-.134.216-.26.368-.382.176-.117.324-.245.548-.304.117-.042.229-.036.343-.051l-.085-.442c-1.159-2.573-1.95-5.359-2.161-8.257l-.071-1.245c-.001-.416.018-.832.027-1.25.002-.419.025-.836.081-1.251.05-.416.079-.837.147-1.251a24.853 24.853 0 0 1 1.34-4.845c.583-1.559 1.394-3.054 2.034-4.408l.195-.465.143-.314.171-.356c.115-.254.241-.431.365-.632.125-.192.248-.408.38-.575.516-.72 1.06-1.377 1.625-1.986 2.09-2.259 4.274-4.262 6.59-6.186.025-.103.051-.203.075-.31.078-.356.202-.664.319-.983.107-.327.262-.611.408-.905a6.13 6.13 0 0 1 .482-.843l.533-.795c.189-.252.398-.479.597-.719.205-.231.398-.483.616-.696l.667-.622c.223-.206.445-.416.676-.61l.72-.526c.485-.341.952-.725 1.466-.992l1.516-.871c.513-.264 1.043-.477 1.564-.717 4.199-1.838 8.589-2.689 12.936-3.318l3.27-.397c1.091-.09 2.183-.149 3.273-.224 1.092-.068 2.173-.175 3.288-.153 1.107.011 2.211-.057 3.319.022 4.423.175 8.888 1.015 12.999 2.816 4.105 1.789 7.816 4.521 10.68 7.945 2.849 3.44 4.946 7.427 6.34 11.596 1.437 4.163 2.246 8.495 2.672 12.835.218 2.171.305 4.352.308 6.529a62.728 62.728 0 0 1-.245 5.651l.046 1.513a7.25 7.25 0 0 1 .919-1.058c.356-.293.749-.679 1.574-.747.205-.017.417.016.633.093.224.059.371.187.547.304.153.122.251.248.369.382.101.13.162.247.241.375.257.481.392.901.513 1.317.121.416.21.82.293 1.224.299 1.611.437 3.191.532 4.777.087 1.584.171 3.168.184 4.759a22.089 22.089 0 0 1-.492 4.752c-.351 1.568-.813 3.129-1.541 4.626a10.853 10.853 0 0 1-1.328 2.158c-.546.645-1.254 1.339-2.16 1.472a.184.184 0 1 1-.162-.304l.022-.024c.497-.549.7-1.209.87-1.907.172-.692.282-1.408.377-2.137.176-1.456.296-2.937.418-4.42.121-1.483.279-2.968.495-4.458.221-1.489.418-2.994.482-4.499.066-1.501.087-3.014-.03-4.465-.028-.36-.062-.718-.115-1.055a4.834 4.834 0 0 0-.201-.879l-.047-.125c-.006-.004-.005-.013-.008-.024-.096.034-.23.098-.354.193-.51.34-1.026.9-1.503 1.455-.48.567-.933 1.176-1.372 1.798a65.44 65.44 0 0 0-2.487 3.872.178.178 0 0 1-.243.067.184.184 0 0 1-.078-.219c.329-.875.692-1.736 1.075-2.59l-.144.215-2.47 2.795c.114.327.239.649.346.978a51.486 51.486 0 0 1 1.32 4.829l.011.059.497-.557 4.043 15.776-3.504 8.976-1.919 8.502-.442.78 11.17 5.456c.407.184.812.373 1.22.554 4.246 1.881 8.519 3.708 12.842 5.361 1.052.388 2.252.862 3.288 1.498a16.629 16.629 0 0 1 2.913 2.215c1.771 1.674 3.213 3.644 4.415 5.72 2.395 4.171 3.964 8.729 4.947 13.405.243 1.172.444 2.354.591 3.551.071.6.132 1.202.173 1.81l.027.458.012.245c0 .11.003.224-.007.33zM35.21 49.04h.072c-.053-.015-.089-.019-.072 0zm81.533 0c.017-.019-.019-.015-.073 0h.073zM75.141 204.629l29.068.671-1.36-20.334c-.18-3.265-.402-6.501-.541-9.695-.099-2.344-.204-4.674-.288-6.999-4.024.104-8.048.209-12.072.245-4.817.088-9.634.093-14.451.099-4.817-.021-9.635-.057-14.452-.172-4.109-.093-8.219-.218-12.328-.43l-.268 17.598-.321 18.392c8.947.155 17.936.403 27.013.625zm23.952-90.458h-5.121l-11.32 8.432H69.446l-11.321-8.432h-5.12l-1.054-.835 3.375 10.762 2.079 6.691 2.038 6.702a427.642 427.642 0 0 0 2.142 6.673 77.335 77.335 0 0 1 1.845 6.752c.875 3.955 1.59 7.958 2.034 12.029 3.344-.05 6.688-.083 10.033-.098h.062c-.162-2.151-.311-4.302-.473-6.453l-.292-4.758-.239-4.757c-.076-1.585-.217-3.171-.337-4.757a35.125 35.125 0 0 1-.018-4.757c.107-1.586.268-3.172.526-4.757.246-1.586.561-3.172 1.069-4.758a.186.186 0 1 1 .354 0c.508 1.586.823 3.172 1.069 4.758a50.2 50.2 0 0 1 .526 4.757 35.125 35.125 0 0 1-.017 4.757c-.121 1.586-.262 3.172-.337 4.757l-.239 4.757-.293 4.758c-.162 2.151-.311 4.303-.473 6.455 3.827.005 7.654.022 11.481.074.443-4.141 1.156-8.215 2.031-12.241a79.941 79.941 0 0 1 1.846-6.873c.735-2.26 1.444-4.526 2.142-6.795l2.038-6.824 2.08-6.814 3.399-11.036-2.309 1.831zm-15-30.242l-3.308 1.035-2.717 1.15h-2.807l-2.717-1.15-3.308-1.035s.473 2.645-1.181 2.3c-1.12-.234-8.596 2.098-13.345 3.523l2.876 3.204c4.02 2.136 8.45 2.003 13.264-.262 3.947-3.489 7.865-3.303 11.872.09 3.238 2.147 7.356 1.635 11.789.172l3.139-3.496c-4.736-1.428-11.33-3.449-12.376-3.231-1.654.345-1.181-2.3-1.181-2.3zM41.072 163.89l.107.062.328.007c-1.402-2.044-2.788-4.098-4.181-6.148l3.746 6.079zm1.233-62.183c-1.577.727-3.049 1.648-4.458 2.646a56.615 56.615 0 0 0-2.99 2.365 96.867 96.867 0 0 0-2.834 2.567c-1.829 1.782-3.629 3.601-5.327 5.523a150.977 150.977 0 0 0-3.315 3.784 90.86 90.86 0 0 1 2.348.892c.818.325 1.629.656 2.466 1.038.21.095.423.197.645.31.231.122.437.218.793.466.032.021.11.083.177.14.07.068.104.075.275.287.066.085.126.177.178.27a1.89 1.89 0 0 1 .145.394 1.762 1.762 0 0 1 .009.751c-.021.093-.014.051-.023.082l-.033.086-.077.172a2.444 2.444 0 0 1-.193.329l-.112.15c-.044.053-.033.036-.051.057l-.142.147c-.199.211-.355.349-.526.511-1.324 1.215-2.631 2.322-3.953 3.451l-3.13 2.648 4.789 7.913c1.788 2.969 3.602 5.921 5.369 8.904 3.249 5.46 6.518 10.906 9.744 16.381 1.05.022 2.1.052 3.149.075a2.101 2.101 0 0 1 1.196-.474l.17-.01c4.817-.288 9.634-.434 14.451-.543 1.089-.026 2.178-.036 3.267-.055-.718-1.477-1.343-2.978-1.943-4.488a107.25 107.25 0 0 1-2.357-6.62 74.19 74.19 0 0 1-1.813-6.769 546.076 546.076 0 0 0-1.494-6.854l-1.577-6.83-1.515-6.847-1.454-6.862a273.722 273.722 0 0 1-1.007-4.992l-5.694-4.515-.117-7.538-3.036 1.058zm-14.749 20.231c.001-.002.029-.032.001-.002l-.001.002zM63.018 17.042a4.837 4.837 0 0 0-1.181-1.08c-.457-.291-.921-.576-1.344-.905-.464-.371-.742-.553-.953-.834a1.601 1.601 0 0 1-.346-1.014c-.022-.85.476-1.866 1.09-2.728l.009-.013a.155.155 0 0 0 .008-.167.153.153 0 0 0-.209-.054c-.976.58-1.893 1.37-2.375 2.665a3.424 3.424 0 0 0 .011 2.171c.253.714.775 1.3 1.069 1.696.695.87 1.227 1.926 2.193 2.504.945.597 1.986 1.083 3.354 1.154a.292.292 0 0 0 .051-.004.191.191 0 0 0 .143-.228c-.281-1.339-.863-2.295-1.52-3.163zm26.213 6.633c-2.595-1.309-5.171-2.653-7.658-4.126a77.567 77.567 0 0 1-3.677-2.259c-1.203-.775-2.38-1.583-3.475-2.456-1.088-.866-2.107-1.847-2.815-2.859-.358-.501-.614-.965-.77-1.425-.145-.454-.185-.746-.098-1.022.055-.292.348-.681.783-1.048.435-.379 1-.697 1.595-1.016 1.207-.612 2.559-1.129 3.948-1.675l.008-.003a.16.16 0 0 0 .095-.113.158.158 0 0 0-.121-.186 11.919 11.919 0 0 0-4.589-.049 8.424 8.424 0 0 0-2.361.785c-.773.412-1.622 1.046-2.127 2.114-.253.521-.366 1.124-.373 1.688-.002.282.024.562.081.816.042.269.117.508.197.743.321.922.874 1.696 1.442 2.313 1.166 1.225 2.446 2.07 3.705 2.91 2.53 1.648 5.187 2.928 7.879 4.097 2.708 1.128 5.43 2.186 8.221 3.053a.156.156 0 0 0 .181-.079.153.153 0 0 0-.071-.203zm19.73 39.039c-.255-3.222-.85-6.447-1.703-9.603l-.002-.007a.18.18 0 0 1 .125-.219c.024-.007.046.002.069.006.461-2.548.548-5.181.538-7.781a78.527 78.527 0 0 0-.163-4.088c-.104-1.359-.166-2.74-.442-4.013-.273-1.291-.798-2.51-1.482-3.619a12.531 12.531 0 0 0-2.594-2.915c-1.831-1.515-4.076-2.613-6.339-3.242l-1.006 2.991a.81.81 0 0 1-1.152.457l-.028-.016-2.918-1.6-1.023-.261.392 1.406a.977.977 0 0 1-.672 1.204.968.968 0 0 1-1.074-.403l-.093-.143c-.039-.06-.165-.271-.285-.412-.118-.159-.261-.312-.401-.465a9.057 9.057 0 0 0-.955-.859 13.2 13.2 0 0 0-2.256-1.394c-1.607-.805-3.366-1.357-5.16-1.764-1.787-.424-3.651-.653-5.483-.815-1.809-.128-3.644-.055-5.47.169-3.654.467-7.263 1.471-10.756 2.784a67.706 67.706 0 0 0-5.159 2.195c-1.628.772-3.273 1.619-4.777 2.513l-1.876 1.73c.391.217.703.581.846 1.039.062.202.065.24.088.338l.042.237c.02.149.036.294.042.432.017.28.004.544-.017.805a6.144 6.144 0 0 1-.33 1.458c-.161.456-.36.881-.594 1.269a6.543 6.543 0 0 1-.364.563l-.095.135c-.029.041-.08.111-.052.08.017-.007.031-.065.027-.044-.013.004-.077.238-.106.472-.038.238-.05.536-.06.829-.014.599.026 1.25.075 1.904.102 1.313.292 2.663.515 4.009.23 1.341.473 2.714.758 4.027l.012.053c.088.406.021.812-.158 1.152-.664 1.261-1.294 2.705-1.84 4.108a51.81 51.81 0 0 0-1.46 4.324 40.133 40.133 0 0 0-.803 3.498l.769 10.854 5.66 8.16 1.295 1.443c.036.022.07.047.106.069.05.03.071.08.077.134l1.492 1.662a144.802 144.802 0 0 1 1.371-1.955c-1.929-1.506 11.816-8.188 14.061-7.424h2.464a23.197 23.197 0 0 1-1.35-1.241 4.72 4.72 0 0 1-1.439-.846 4.148 4.148 0 0 1-1.129-1.579 3.821 3.821 0 0 1-.235-.94 1.798 1.798 0 0 1 .164-1.04c.171-.334.471-.565.767-.686a2.28 2.28 0 0 1 .908-.17.178.178 0 0 1 .037.352l-.017.003c-.488.103-.965.416-1.031.785-.09.359.087.825.341 1.232.259.398.601.716.997.943.379.221.888.381 1.242.404a.503.503 0 0 1 .25.086l.155.107c1.003.688 2.095 1.379 3.146 1.814.52.219 1.028.35 1.25.285l1.972-.131a56.105 56.105 0 0 0 1.982-.165c.122-.044.514-.248.955-.541.867-.58 1.885-1.314 2.853-1.935l.776-.498a.06.06 0 0 1 .081.018.06.06 0 0 1-.018.081l-.005.003c-.046.024.094.002.157-.003.08-.008.166-.024.249-.044.166-.042.339-.084.495-.152.317-.129.609-.304.882-.573.277-.301.488-.59.571-.77.054-.108.032-.262-.091-.449-.121-.179-.341-.35-.566-.497l-.03-.019a.188.188 0 0 1-.056-.258.19.19 0 0 1 .106-.078 1.97 1.97 0 0 1 1.018-.036c.363.072.765.323 1.031.731.267.403.341.904.334 1.3.002.415-.074.781-.175 1.142a4.491 4.491 0 0 1-1.244 1.949 5.116 5.116 0 0 1-.937.685c-.165.095-.335.18-.513.259-.166.165-.337.317-.508.472h1.144c2.245-.764 15.99 5.918 14.061 7.424 0 0 .356.496.834 1.181l2.276-2.534 4.854-6.999c.084-.197.175-.386.257-.585.246-.583.447-1.193.636-1.808l.721-10.192.269-.301c-.029-.551-.054-1.102-.103-1.653zm-1.132-9.803c-.031.141-.058.282-.091.422.027.058.049.118.076.176l.015-.598zm13.904 71.763c-.17-.162-.327-.3-.526-.511l-.141-.147c-.019-.021-.008-.004-.051-.057l-.113-.15a2.555 2.555 0 0 1-.193-.329l-.077-.172-.032-.086c-.009-.031-.003.011-.023-.082a1.762 1.762 0 0 1 .153-1.145 2.07 2.07 0 0 1 .179-.27c.171-.212.204-.219.275-.287.066-.057.145-.119.176-.14.356-.248.562-.344.793-.466.222-.113.435-.215.645-.31a53.293 53.293 0 0 1 2.466-1.038 90.86 90.86 0 0 1 2.348-.892 147.02 147.02 0 0 0-3.315-3.784c-1.698-1.922-3.497-3.741-5.327-5.523a96.867 96.867 0 0 0-2.834-2.567 56.615 56.615 0 0 0-2.99-2.365 34.992 34.992 0 0 0-2.594-1.686l-3.807-1.305-.106 6.825-4.452 3.531a279.884 279.884 0 0 1-1.015 5.128l-1.454 6.981-1.515 6.966-1.577 6.951a542.956 542.956 0 0 0-1.493 6.973 76.845 76.845 0 0 1-1.813 6.889c-.711 2.268-1.5 4.516-2.358 6.744-.602 1.542-1.228 3.076-1.949 4.586.311.005.623.004.935.01 4.817.044 9.634.184 14.451.304l.115.003a2.402 2.402 0 0 1 1.714.782c.895-.02 1.79-.045 2.686-.064 3.226-5.475 6.495-10.921 9.744-16.381 1.767-2.983 3.581-5.935 5.369-8.904l4.789-7.913-3.129-2.648c-1.323-1.129-2.63-2.236-3.954-3.451zm1.705-2.736l-.002-.002c-.028-.031.001.001.002.002zM99.683 52.007l-.06-.041-.071-.057-.403-.13c-.18-.056-.363-.11-.557-.159a20.389 20.389 0 0 0-1.165-.273 39.903 39.903 0 0 0-2.323-.395c-.739-.101-1.492-.163-1.976-.13-.154-.006-.161.038-.263.021-.281.075-.597.188-.851.214a7.46 7.46 0 0 1-1.515.098c-.965-.033-1.879-.199-2.772-.415a37.811 37.811 0 0 1-2.614-.759c-.427-.135-.85-.28-1.268-.438-.414-.182-.843-.308-1.217-.669a.31.31 0 0 1-.084-.254.434.434 0 0 1 .076-.174c.063-.088.127-.14.192-.193a4.03 4.03 0 0 1 .397-.265c.268-.156.542-.293.816-.428.552-.259 1.102-.521 1.683-.739.297-.101.575-.225.937-.276a.997.997 0 0 1 .334.006c.088.031.175.044.288.177.103.087.113.374.118.29.009-.031.021-.013.12.025.333.125.87.155 1.348.14a27.355 27.355 0 0 1 2.61-1.198c.463-.18.934-.351 1.431-.505.252-.074.505-.148.794-.205a4.25 4.25 0 0 1 .487-.067c.103-.003.202-.006.338.006.078.01.156.023.233.04.094.021.242.082.352.142.119.056.341.259.445.432.114.184.186.488.178.659-.002.08-.013.164-.028.245.21.109.538.244.872.341.808.246 1.745.427 2.609.543.281.038.526.17.708.361l.095.098.885.927.21.213c-.035-.004-.071-.009-.114-.008l.113.066a1.29 1.29 0 0 1 .174.117l.05.05v-.011c.11.085.235.192.317.298.049.058.099.119.13.173l.025.042c.015.037-.017-.052.105.209.039.095.07.198.09.3.019.129.031.148.026.362.607.887-2.55 1.962-2.305 1.194zm-11.674-3.77c-.319-.112-.632-.211-.972-.467a.958.958 0 0 1-.378-.561 3.213 3.213 0 0 0-.815.084 8.58 8.58 0 0 0-1.692.545c-.272.12-.538.255-.786.411a2.182 2.182 0 0 0-.344.253.627.627 0 0 0-.119.133v.001c.28.208.702.3 1.086.37.413.06.834.081 1.257.069a14.106 14.106 0 0 0 2.522-.346c.374-.084.742-.177 1.105-.274a7.233 7.233 0 0 1-.864-.218zm7.542-1.082c-.012.027-.053.1-.043.088l.019-.024a.202.202 0 0 0 .024-.056c.008-.015.011-.031.015-.046l-.015.038zm5.868 2.408c.03.028.058.056.077.072 0 0 .013.011.003-.001-.018-.013.006-.001-.08-.071zm-.347-.348c.157.018.244.086.223.214l-.05-.039-.173-.175zM82.448 60.71c-.019.293-.031.588-.026.892-.006.6.095 1.219.195 1.83.094.613.109 1.224.024 1.849-.184 1.255-.464 2.536-1.25 3.956l-.004.007a.218.218 0 0 1-.346.048c-1.158-1.178-1.661-2.517-1.942-3.884a5.515 5.515 0 0 1 .011-2.088c.144-.7.33-1.393.501-2.093.082-.349.183-.7.296-1.049l.285-.877a9.488 9.488 0 0 0 .386-1.752c.089-.604.11-1.226.085-1.858a10.736 10.736 0 0 0-.078-.956l-.063-.487c-.023-.182-.055-.283-.074-.561a.137.137 0 0 1 .225-.113l.129.113c.05.043.156.243.239.37l.258.443c.162.303.311.617.446.94.27.646.467 1.331.604 2.039.122.707.186 1.437.173 2.173-.002.184-.024.365-.037.55l-.037.508zm3.659-2.558c.039-.066.079-.121.123-.173.083-.106.167-.204.255-.299.176-.191.355-.373.537-.555.367-.359.731-.732 1.137-1.079.792-.7 1.776-1.339 2.982-1.496.297-.043.604-.047.913-.036l.825.074 1.48.131 2.932.311c.77.082 1.328.776 1.247 1.55a1.404 1.404 0 0 1-.385.831l-.077.08c-.441.459-.809.803-1.234 1.18a13.63 13.63 0 0 1-1.313 1.04 7.66 7.66 0 0 1-3.181 1.282c-1.17.193-2.443-.092-3.49-.635l-.759-.424-.689-.476-.334-.217c-.105-.083-.205-.172-.311-.246-.207-.16-.419-.3-.63-.439-.153-.137-.086-.247-.083-.285a.513.513 0 0 1 .055-.119zm3.02.335c.908-.285 1.641-.666 2.392-.949l1.706-.684-.769-.224-.654-.195a3.354 3.354 0 0 0-.585-.097c-.805-.072-1.749.037-2.673.358-.455.171-.906.389-1.296.69-.197.148-.38.314-.544.495-.077.092-.159.184-.221.283a1.104 1.104 0 0 0-.071.127c.86.381 1.835.492 2.715.196zm-19.642-8.944c-.419.158-.842.303-1.269.438-.852.281-1.722.535-2.614.759-.893.216-1.806.382-2.771.415a7.465 7.465 0 0 1-1.516-.098c-.254-.026-.57-.139-.851-.214-.102.017-.109-.027-.263-.021-.484-.033-1.237.029-1.976.13-.751.103-1.537.239-2.323.395a20.59 20.59 0 0 0-1.165.273c-.194.049-.376.103-.557.159l-.403.13-.071.057-.06.041c.246.768-2.911-.307-2.305-1.194-.005-.214.008-.233.026-.362.02-.102.051-.205.09-.3.122-.261.09-.172.105-.209l.026-.042c.03-.054.08-.115.13-.173a1.83 1.83 0 0 1 .316-.298l.001.012.049-.051a1.29 1.29 0 0 1 .174-.117l.113-.066c-.043-.001-.079.004-.114.008l.21-.213.886-.927.093-.098c.197-.205.449-.326.71-.361.863-.116 1.801-.297 2.609-.543.333-.097.661-.232.871-.341a1.719 1.719 0 0 1-.028-.245 1.378 1.378 0 0 1 .179-.659c.103-.173.326-.376.444-.432.11-.06.258-.121.352-.142.077-.017.155-.03.233-.04.136-.012.235-.009.338-.006.185.014.341.039.487.067.289.057.542.131.794.205.497.154.968.325 1.431.505.898.354 1.758.754 2.61 1.198.479.015 1.015-.015 1.348-.14.099-.038.111-.056.12-.025.005.084.015-.203.118-.29.114-.133.2-.146.288-.177.139-.026.243-.018.335-.006.361.051.64.175.937.276.58.218 1.13.48 1.683.739.274.135.547.272.815.428.133.08.266.163.397.265.065.053.13.105.192.193.03.036.061.103.076.174a.31.31 0 0 1-.084.254c-.373.361-.803.487-1.216.669zm-17.655.091c-.01.012.003.001.003.001.019-.016.047-.044.078-.073-.087.071-.063.059-.081.072zm5.949-2.479l-.016-.038c.005.015.007.031.015.046a.203.203 0 0 0 .025.056l.018.024c.01.012-.03-.061-.042-.088zm12.647 1.48a.627.627 0 0 0-.119-.133 2.137 2.137 0 0 0-.344-.253 6.103 6.103 0 0 0-.786-.411 8.58 8.58 0 0 0-1.692-.545 3.213 3.213 0 0 0-.815-.084.962.962 0 0 1-.377.561c-.341.256-.654.355-.973.467a7.233 7.233 0 0 1-.864.218c.363.097.731.19 1.105.274.827.185 1.674.313 2.522.346.423.012.844-.009 1.257-.069.385-.07.806-.162 1.086-.37v-.001zm-18.392.794c-.021-.128.066-.196.223-.214l-.173.175-.05.039zm4.727 5.601l2.932-.311 1.48-.131.825-.074c.309-.011.616-.007.914.036 1.206.157 2.189.796 2.982 1.496.405.347.77.72 1.136 1.079.182.182.361.364.536.555.089.095.173.193.257.299.043.052.083.107.122.173a.513.513 0 0 1 .055.119c.003.038.07.148-.083.285-.211.139-.423.279-.63.439-.105.074-.206.163-.311.246l-.334.217-.689.476-.759.424c-1.047.543-2.319.828-3.49.635a7.66 7.66 0 0 1-3.181-1.282 13.617 13.617 0 0 1-1.312-1.04 20.154 20.154 0 0 1-1.235-1.18l-.076-.079a1.415 1.415 0 0 1 .034-1.993c.234-.228.527-.357.827-.389zm5.772 2.508c.751.283 1.484.664 2.392.949.879.296 1.856.185 2.715-.196a.971.971 0 0 0-.071-.127c-.062-.099-.143-.191-.221-.283a3.877 3.877 0 0 0-.544-.495c-.39-.301-.84-.519-1.295-.69-.924-.321-1.869-.43-2.674-.358a3.354 3.354 0 0 0-.585.097l-.654.195-.769.224 1.706.684zm36.234 143.978l-45.706-1.13V170.44h44.421l1.285 31.076z"/>
    <path fill="#FFF" fill-rule="evenodd" d="M183.754 76.776c-13.886-6.256-23.139-16.715-23.719-28.965-.989-20.93 23.713-39.159 55.175-40.718 31.462-1.559 57.77 14.142 58.757 35.074.99 20.928-23.715 39.161-55.175 40.72a84.697 84.697 0 0 1-13.78-.432c-6.787 8.479-18.225 18.713-35.224 21.533 0 0 11.226-8.992 13.966-27.212"/>
</svg>
