<svg xmlns="http://www.w3.org/2000/svg" width="113" height="289">
    <path fill="#FFF" fill-rule="evenodd" d="M112.827 21.108c-3.079 26.37-10.418 97.156-4.079 124.65.983 4.264-.619 8.712-4.033 11.451-14.68 11.778-51.423 45.778-71.035 104.229a2.928 2.928 0 0 0-2.339-2.383 2.926 2.926 0 0 0-3.177 1.616c3.482-62.946-18.228-108.469-26.829-123.829-1.8-3.215-1.634-7.198.493-10.204C17.564 104.395 35.484 34.863 41.937 8.321 43.296 2.727 48.83-.802 54.482.33c13.215 2.646 36.271 6.677 49.491 8.956 5.628.969 9.515 6.158 8.854 11.822zM57.093 138.284l.543-2.878c.356-1.889-1.191-3.697-3.293-3.451-1.263.148-2.246 1.175-2.481 2.423l-.521 2.761c-.235 1.248.307 2.563 1.429 3.161 1.868.994 3.967-.127 4.323-2.016zm-2.719 14.422l1.058-5.609c.356-1.889-1.192-3.697-3.293-3.451-1.263.147-2.246 1.175-2.482 2.423l-1.035 5.493c-.235 1.248.306 2.562 1.429 3.16 1.867.994 3.967-.127 4.323-2.016zm-2.718 14.422l1.057-5.608c.356-1.889-1.191-3.698-3.293-3.451-1.263.148-2.246 1.174-2.481 2.423l-1.036 5.492c-.235 1.248.307 2.562 1.429 3.16 1.868.994 3.968-.127 4.324-2.016zm-21.031 79.898l-1.035 5.492c-.236 1.248.306 2.562 1.429 3.16 1.867.994 3.967-.126 4.323-2.015l1.057-5.609c.357-1.889-1.191-3.698-3.292-3.451-1.263.148-2.247 1.175-2.482 2.423zm2.719-14.423l-1.035 5.492c-.236 1.248.306 2.563 1.429 3.16 1.867.995 3.967-.126 4.323-2.015l1.058-5.609c.356-1.889-1.192-3.697-3.293-3.451-1.263.148-2.247 1.175-2.482 2.423zm2.719-14.422l-1.036 5.492c-.235 1.248.307 2.563 1.429 3.161 1.868.994 3.968-.127 4.324-2.016l1.057-5.609c.356-1.889-1.191-3.697-3.293-3.451-1.263.148-2.246 1.175-2.481 2.423zm2.719-14.422l-1.036 5.492c-.235 1.248.307 2.562 1.429 3.16 1.868.994 3.968-.127 4.324-2.016l1.057-5.608c.356-1.889-1.191-3.698-3.293-3.451-1.262.148-2.246 1.174-2.481 2.423zm2.719-14.423l-1.035 5.492c-.236 1.248.306 2.563 1.429 3.16 1.867.995 3.967-.126 4.323-2.015l1.057-5.609c.356-1.889-1.191-3.697-3.293-3.451-1.263.148-2.246 1.175-2.481 2.423zm3.112-5.769c1.868.994 3.968-.127 4.324-2.016l1.057-5.609c.356-1.889-1.191-3.697-3.293-3.451-1.263.148-2.246 1.175-2.481 2.423l-1.036 5.492c-.235 1.248.307 2.563 1.429 3.161zm15.358-85.462c-7.222-.629-14.035 4.016-16.078 10.962-2.76 9.382 3.748 18.9 13.504 19.749 7.222.629 14.035-4.016 16.078-10.962 2.76-9.382-3.748-18.9-13.504-19.749zm-3.211 25.563c-5.636-1.063-9.358-6.507-8.297-12.135s6.51-9.342 12.145-8.28c5.636 1.063 9.358 6.506 8.297 12.134s-6.51 9.343-12.145 8.281zM26.48 284.841c.213.04.424.053.632.047a238.038 238.038 0 0 0-.688 3.166 2.891 2.891 0 0 0-.52-.154 2.913 2.913 0 0 0-.749-.033c.184-1.107.366-2.213.533-3.311.246.126.506.232.792.285zm1.043-15.406c.419.491.992.856 1.676.985a2.918 2.918 0 0 0 1.722-.198 236.212 236.212 0 0 0-1.081 3.806 2.903 2.903 0 0 0-1.218-.551 2.907 2.907 0 0 0-1.515.128c.151-1.398.29-2.788.416-4.17z"/>
</svg>
