<?xml version="1.0" encoding="UTF-8"?><!DOCTYPE svg PUBLIC "-//W3C//DTD SVG 1.1//EN" "http://www.w3.org/Graphics/SVG/1.1/DTD/svg11.dtd"><svg xmlns="http://www.w3.org/2000/svg"><symbol id="gift"><path fill-rule="evenodd" d="M28.774 8.192c-1.492 4.732-11.674 6.869-12.829 7.097l-1.34.266.009.049-.128-.025-.128.025.009-.049-1.34-.266C11.872 15.061 1.69 12.924.199 8.192c-.532-1.688.046-3.407 1.717-5.105C3.678 1.293 5.454.643 7.206 1.163c4.803 1.424 6.888 11.705 7.11 12.873l.17.894.17-.894c.222-1.168 2.307-11.449 7.111-12.873 1.751-.52 3.527.13 5.289 1.924 1.671 1.698 2.249 3.417 1.718 5.105zM6.576 3.224a1.833 1.833 0 0 0-.513-.073c-.776 0-1.641.482-2.579 1.434-1.616 1.645-1.302 2.64-1.199 2.968.725 2.302 5.691 4.267 9.524 5.249-.959-3.871-2.91-8.887-5.233-9.578zm18.912 1.361c-.938-.952-1.803-1.434-2.579-1.434-.176 0-.347.025-.513.073-2.323.691-4.274 5.707-5.233 9.578 3.833-.982 8.799-2.947 9.525-5.249.103-.328.416-1.323-1.2-2.968zM4.529 17.791h8.508v25.221H4.529c-1.517 0-2.747-1.214-2.747-2.71V20.501c0-1.497 1.23-2.71 2.747-2.71zm23.08 2.71v19.801c0 1.496-1.23 2.71-2.748 2.71h-8.507V17.791h8.507c1.518 0 2.748 1.213 2.748 2.71z"/></symbol><symbol id="like"><path stroke="#756FA5" stroke-width="1.87"  d="M15.098 23.695l9.386-8.988c2.301-2.287 3.451-4.534 3.451-6.742 0-2.196-.638-3.914-1.914-5.153C24.746 1.574 22.983.955 20.733.955c-.623 0-1.258.107-1.906.322a7.714 7.714 0 0 0-1.808.869c-.558.365-1.037.706-1.439 1.026-.402.32-.784.659-1.145 1.019-.362-.36-.744-.699-1.145-1.019-.402-.32-.881-.661-1.439-1.026a7.714 7.714 0 0 0-1.808-.869A6.029 6.029 0 0 0 8.137.955c-2.25 0-4.013.619-5.289 1.857C1.573 4.051.935 5.769.935 7.965c0 .67.118 1.359.354 2.068.236.709.505 1.313.806 1.813.301.499.642.986 1.025 1.461.382.473.66.801.836.981.175.18.314.309.414.389l9.402 9.018c.181.18.402.27.663.27s.482-.09.663-.27z"/></symbol><symbol id="print" viewBox="0 0 46.99 36"><g data-name="Calque 2"><path d="M41.54 15.81h-4.25v-7.6a3 3 0 0 0-1-2.23L30.52.84A3.33 3.33 0 0 0 28.29 0H13a3.17 3.17 0 0 0-3.3 3.08v12.73H5.45A5.31 5.31 0 0 0 0 21v8a2.86 2.86 0 0 0 2.93 2.77h7v1.41A2.91 2.91 0 0 0 13 36h21a2.91 2.91 0 0 0 3-2.82v-1.42h7A2.86 2.86 0 0 0 47 29v-8a5.31 5.31 0 0 0-5.46-5.19zM12 2.45a.86.86 0 0 1 .87-.85h15.37c.1 0 .18.07.27.1v.64h.05v4.47A1.58 1.58 0 0 0 30.1 8h4.75v8.26a.83.83 0 0 1-.25.6.87.87 0 0 1-.61.25H12.85a.86.86 0 0 1-.87-.85zm23.17 30.72a1 1 0 0 1 0 .14v.4A1.12 1.12 0 0 1 34 34.83H12.85a1.12 1.12 0 0 1-1.13-1.11V27a1.12 1.12 0 0 1 1.13-1.11H34A1.12 1.12 0 0 1 35.14 27v4.8zm5.49-9.93A2.29 2.29 0 1 1 43 21a2.32 2.32 0 0 1-2.34 2.24z" data-name="Calque 1"/></g></symbol><symbol id="report"><path fill-rule="evenodd" d="M28.22 35.995H2.802c-1.546 0-2.8-1.174-2.8-2.623v-.22c0-1.449 1.254-2.623 2.8-2.623H28.22c1.546 0 2.8 1.174 2.8 2.623v.22c0 1.449-1.254 2.623-2.8 2.623zM4.352 20.745h21.556l1.616 5.652H2.737l1.615-5.652zm2.977-10.413h15.603l1.414 4.946H5.916l1.413-4.946zm2.552-8.81C10.132.645 10.98.035 11.948.035h6.365c.969 0 1.816.61 2.067 1.487l.989 3.46H8.892l.989-3.46z"/></symbol><symbol id="write"><path fill-rule="evenodd" d="M38.98 3.724a.678.678 0 0 1-.052.271.631.631 0 0 1-.104.167c-.02.023-.026.054-.049.076l-5.993 5.667a3.33 3.33 0 0 1-2.055.892l-7.166.47c-.017.003-.033.003-.049.003a.739.739 0 0 1-.725-.579l-1.546-7.265a.727.727 0 0 1 .474-.836L28.47.193a3.286 3.286 0 0 1 2.249.008l7.8 2.826c.026.01.043.034.068.047a.637.637 0 0 1 .325.339c.027.053.087.082.1.144.013.06-.03.108-.032.167zM28.977 7.765a2.153 2.153 0 0 1-1.604-.297 2.084 2.084 0 0 1-.917-1.328 2.056 2.056 0 0 1 .302-1.573 2.109 2.109 0 0 1 1.347-.906 2.164 2.164 0 0 1 1.601.297c.261.167.465.39.626.641l5.254-1.081-5.379-1.949a1.829 1.829 0 0 0-1.232-.003h-.002l-6.149 2.18 1.281 6.025 6.523-.427a1.832 1.832 0 0 0 1.129-.492l4.132-3.907-5.258 1.082a2.102 2.102 0 0 1-1.654 1.738zm.198-2.183a.642.642 0 0 0-.633-.507.643.643 0 0 0-.635.769c.035.168.134.31.278.403.146.094.316.12.488.091a.638.638 0 0 0 .502-.756zm-8.16 6.241L3.264 15.479c-.977.201-1.935-.415-2.14-1.378L.017 8.897a1.782 1.782 0 0 1 1.4-2.107l17.75-3.656a.462.462 0 0 1 .546.351l1.658 7.801a.453.453 0 0 1-.356.537zM33.062 20.3l-13.077 7.176a1.094 1.094 0 0 1-1.049.001L5.792 20.301c-.973-.532-.59-1.99.524-1.99h26.221c1.112 0 1.496 1.456.525 1.989zM6.419 23.785l13.007 6.437 13.007-6.437c1.259-.572 2.761.23 2.761 1.474v11.497c0 1.256-1.16 2.275-2.591 2.275H6.25c-1.432 0-2.592-1.019-2.592-2.275V25.259c0-1.244 1.502-2.046 2.761-1.474z"/></symbol>
<symbol id="eye"><path fill-rule="evenodd" d="M39.6 11.203c-.35.36-8.675 8.844-19.175 8.844-10.501 0-18.826-8.484-19.176-8.844a1.008 1.008 0 0 1 0-1.409c.35-.36 8.677-8.84 19.176-8.84 10.498 0 18.825 8.48 19.175 8.84a1.008 1.008 0 0 1 0 1.409zM20.425 3c-7.918 0-14.72 5.509-16.919 7.498 2.201 1.987 9.018 7.503 16.919 7.503 7.917 0 14.719-5.513 16.917-7.503C35.142 8.512 28.325 3 20.425 3zm0 12.613c-2.882 0-5.217-2.289-5.217-5.113 0-2.824 2.335-5.112 5.217-5.112 2.881 0 5.217 2.288 5.217 5.112 0 2.824-2.336 5.113-5.217 5.113z"/></symbol></svg>