<svg xmlns="http://www.w3.org/2000/svg" xmlns:xlink="http://www.w3.org/1999/xlink" width="33" height="286" viewBox="0 0 33 286"><svg viewBox="0 0 33 22" width="33" height="22" id="austria" y="0"><title>austria</title><g data-name="Calque 1-2"><path fill="#ed2939" d="M0 0h33v22H0z"></path><path fill="#fff" d="M0 7.3h33v7.3H0z"></path></g></svg><svg viewBox="0 0 33 22" width="33" height="22" id="belgium" y="22"><title>belgium</title><g data-name="Calque 1-2"><path fill="#ed2939" d="M0 0h33v22H0z"></path><path fill="#fae042" d="M0 0h22v22H0z"></path><path d="M0 0h11v22H0z"></path></g></svg><svg viewBox="0 0 33 22" width="33" height="22" id="canada" y="44"><title>canada</title><g data-name="Calque 1-2"><path fill="red" d="M0 0h8.25v22H0zM24.75 0H33v22h-8.25z"></path><path fill="#fff" d="M8.25 0h16.5v22H8.25z"></path><path d="M16.5 4.12L15.38 6.2c-.12.23-.35.2-.59.08L14 5.87l.61 3.19c.12.58-.28.58-.49.33l-1.45-1.58-.23.81a.27.27 0 0 1-.32.19l-1.8-.37.47 1.69c.1.37.18.54-.1.64l-.64.3 3.09 2.44a.4.4 0 0 1 .14.42l-.27.88c1.06-.12 2-.3 3.09-.42.09 0 .26.15.25.25l-.14 3.22h.52l-.07-3.19c0-.11.14-.27.24-.26 1.06.11 2 .29 3.09.42l-.27-.88a.4.4 0 0 1 .14-.42l3.09-2.44-.67-.33c-.28-.1-.21-.25-.1-.64l.47-1.69-1.8.37a.27.27 0 0 1-.32-.19l-.23-.81-1.42 1.56c-.21.25-.61.25-.49-.33L19 5.84l-.82.42c-.23.12-.45.15-.59-.08z" fill="red"></path></g></svg><svg viewBox="0 0 33 22" width="33" height="22" id="ecosse" y="66"><title>ecosse</title><g data-name="Calque 1-2"><path fill="#0065bd" d="M0 2.6v16.8L12.9 11 0 2.6zM29.7 0H3.3l13.2 8.6L29.7 0zM3.3 22h26.4l-13.2-8.6L3.3 22zM33 19.4V2.6L20.1 11 33 19.4z"></path><path fill="#fff" d="M29.7 0L16.5 8.6 3.3 0H0v2.6L12.9 11 0 19.4V22h3.3l13.2-8.6L29.7 22H33v-2.6L20.1 11 33 2.6V0h-3.3z"></path></g></svg><svg viewBox="0 0 33 22" width="33" height="22" id="england" y="88"><title>england</title><g data-name="Calque 1"><path fill="none" d="M18.5.2H4.4v21.6h24.2V.2H18.5z"></path><path fill="#fff" d="M0 0h33v22H0z"></path><path fill="#cf0f14" d="M33 8.8H18.1V0h-3.3v8.8H0v4.4h14.8V22h3.3v-8.8H33"></path><path d="M22 14.7h2.5l8.5 5.7V22M11 7.3H8.5L0 1.6V0zm0 7.4h2.5L2.5 22H0zm11-7.4h-2.5l11-7.3H33z" fill="#cf0f14"></path><path d="M0 14.7v4.9l7.3-4.9m25.7 0v4.9l-7.3-4.9zM0 7.3V2.5l7.3 4.9H0zm33 0V2.5l-7.3 4.9H33zM13.7 22v-6.7L3.7 22zm5.5 0v-6.7l10 6.7zM13.7 0v6.7L3.7 0zm5.5 0v6.7l10-6.7z" fill="#001f7e"></path></g></svg><svg viewBox="0 0 33 22" width="33" height="22" id="france" y="110"><title>france</title><g data-name="Calque 1-2"><path fill="#ed2939" d="M22 0h11v22H22z"></path><path fill="#fff" d="M11 0h11v22H11z"></path><path fill="#002395" d="M0 0h11v22H0z"></path></g></svg><svg viewBox="0 0 33 22" width="33" height="22" id="francophone" y="132"><title>francophone</title><g data-name="Calque 1-2"><path fill="#ed2939" d="M0 0h33v22H0z"></path><path fill="#002395" d="M0 0h16.5v22H0z"></path><ellipse cx="16.5" cy="10.9" rx="8.8" ry="8.7" fill="#fff"></ellipse><path d="M14.6 7.3h4.2v.8h-3.2v2.6h2.9v.8h-2.9V15h-1z"></path></g></svg><svg viewBox="0 0 33 22" width="33" height="22" id="haiti" y="154"><title>haiti</title><g data-name="Calque 1-2"><path fill="#d21034" d="M0 0h33v22H0z"></path><path fill="#00209f" d="M0 0h33v11H0z"></path><path fill="#fff" d="M13 8.2h7v5.5h-7z"></path><path d="M17.9 12.2h-2.8a4.05 4.05 0 0 1-1 .3c-.3.1-.3.2-.5.2a.37.37 0 0 0-.3.1.35.35 0 0 0-.2.1v.8h7V13c-.1 0-.1-.1-.2-.1s-.2-.1-.4-.1-.2-.1-.5-.2a4.87 4.87 0 0 1-1.1-.4z" fill="#016a16" stroke="#016a16" stroke-width=".02"></path><g stroke-width=".02"><g data-name="flags half"><path d="M16.1 10.5h.1l.2.8v.2l-.3-1z" fill="#f1b517" stroke="#000"></path><path d="M16 10l.1.6h.1L16 10z" fill="#fff" stroke="#000"></path><path d="M16.2 11.3l-.3-.8h.1l.4 1-.2-.2z" fill="#f1b517" stroke="#000"></path><path d="M15.7 10l.1.6h.1z" fill="#fff" stroke="#000"></path><path d="M15.9 11l-.2-.4h.1l.3.7-.2-.3z" fill="#f1b517" stroke="#000"></path><path d="M15.5 10.2l.2.6h.1z" fill="#fff" stroke="#000"></path><path d="M15.9 11.1l-.8-.9a.73.73 0 0 0-.2.6l1 .7v-.4z" fill="#0a328c" stroke="#000"></path><path d="M16.4 11.6l-.6-.6c-.3 0-.1.4 0 .4l.7.6v-.4z" fill="#d20014" stroke="#000"></path><path d="M16.4 11.5l-1.3-1.4 1.4 1.5-.1-.1zM15 10l-.3-.3.1.3z" fill="#f1b517" stroke="#000"></path><path d="M14.9 10.1l.1-.1.1.1-.1.1z" fill="#f1b517" stroke="#000"></path><path d="M14.7 10.4l.3-.2h.2l.1-.1c-.1-.1-.2-.1-.2 0l-.4.3z" fill="#0a328c" stroke="#0a328c"></path><path d="M14.9 10.5a.22.22 0 0 1 .2-.2c.1 0 .2.1.3-.1-.1.1-.3 0-.3 0H15l-.2.2.1.1z" fill="#d20014" stroke="#d20014"></path><path d="M15.6 11.3l-1.1-.8c-.2.2 0 .7 0 .7l1 .6.1-.5z" fill="#0a328c" stroke="#000"></path><path d="M16.4 12l-.9-.7c-.3 0-.1.5 0 .5l.9.5z" fill="#d20014" stroke="#000"></path><path d="M16.4 11.9l-1.9-1.4 2 1.5-.1-.1zM14.4 10.4l-.3-.2.2.2z" fill="#f1b517" stroke="#000"></path><path d="M14.3 10.5c0-.1.1-.1.2-.2l.1.1-.1.2a.35.35 0 0 1-.2-.1z" fill="#f1b517" stroke="#000"></path><path d="M14.2 10.8l.3-.2h.2v-.1c-.1-.2-.3 0-.3 0l-.2.3z" fill="#0a328c" stroke="#0a328c"></path><path d="M14.3 10.9a.37.37 0 0 1 .1-.3c.1 0 .2.1.3-.2-.1.1-.3 0-.3 0l-.1.1-.2.2.2.2z" fill="#d20014" stroke="#d20014"></path><path d="M15.5 11.9l-1.4-.8a.3.3 0 0 0 0 .4v.4a.76.76 0 0 0 .2.4c.1.5.6.5.8.1l.4-.5z" fill="#0a328c" stroke="#000"></path><path d="M16.4 12.4l-.9-.5c-.3 0 0 .6 0 .6l.9.3v-.4z" fill="#d20014" stroke="#000"></path><path d="M16.2 12.2l-2.1-1.1 2.2 1.2-.1-.1zM14 11l-.3-.1.2.2.1-.1z" fill="#f1b517" stroke="#000"></path><path d="M13.9 11.1c0-.1.1-.1.1-.2l.1.1-.1.2-.1-.1z" fill="#f1b517" stroke="#000"></path><path d="M13.8 11.4l.3-.2.2-.1V11c-.1-.1-.3.1-.3.1l-.2.3z" fill="#0a328c" stroke="#0a328c"></path><path d="M14 11.5v-.3c.1 0 .2 0 .2-.2a.31.31 0 0 1-.2.1v.1l-.2.3z" fill="#d20014" stroke="#d20014"></path></g><g data-name="flags half-2"><path d="M16.9 10.5h-.1l-.2.8v.2l.3-1z" fill="#f1b517" stroke="#000"></path><path d="M17 10l-.1.6h-.1l.2-.6z" fill="#fff" stroke="#000"></path><path d="M16.8 11.3l.3-.8H17l-.4 1 .2-.2z" fill="#f1b517" stroke="#000"></path><path d="M17.3 10l-.1.6H17z" fill="#fff" stroke="#000"></path><path d="M17.1 11l.2-.4h-.1l-.3.7.2-.3z" fill="#f1b517" stroke="#000"></path><path d="M17.5 10.2l-.2.6h-.1z" fill="#fff" stroke="#000"></path><path d="M17.1 11.1l.8-.9a.73.73 0 0 1 .2.6l-1 .7v-.4z" fill="#0a328c" stroke="#000"></path><path d="M16.6 11.6l.6-.6c.3 0 .1.4 0 .4l-.6.6z" fill="#d20014" stroke="#000"></path><path d="M16.6 11.5l1.3-1.4-1.4 1.5.1-.1zM18 10l.3-.2-.1.3-.2-.1z" fill="#f1b517" stroke="#000"></path><path d="M18.1 10.1L18 10l-.1.1.2.1z" fill="#f1b517" stroke="#000"></path><path d="M18.3 10.4l-.3-.2h-.2l-.1-.1c.1-.1.2-.1.2 0l.4.3z" fill="#0a328c" stroke="#0a328c"></path><path d="M18.1 10.5a.22.22 0 0 0-.2-.2c-.1 0-.2.1-.3-.1.1.1.3 0 .3 0l.1.1.2.2z" fill="#d20014" stroke="#d20014"></path><path d="M17.4 11.3l1.1-.8c.2.2 0 .7 0 .7l-1 .6-.1-.5z" fill="#0a328c" stroke="#000"></path><path d="M16.5 12l.9-.7c.3 0 .1.5 0 .5l-.9.5z" fill="#d20014" stroke="#000"></path><path d="M16.6 11.9l1.9-1.4-2 1.5.1-.1zM18.6 10.4l.3-.2-.2.2z" fill="#f1b517" stroke="#000"></path><path d="M18.7 10.5c0-.1-.1-.1-.2-.2l-.1.1.1.2a.35.35 0 0 0 .2-.1z" fill="#f1b517" stroke="#000"></path><path d="M18.8 10.8l-.3-.2h-.2v-.1c.1-.2.3 0 .3 0l.2.3z" fill="#0a328c" stroke="#0a328c"></path><path d="M18.6 10.9a.37.37 0 0 0-.1-.3c-.1 0-.2.1-.3-.2.1.1.3 0 .3 0l.1.1.2.2-.2.2z" fill="#d20014" stroke="#d20014"></path><path d="M17.5 11.9l1.4-.8a.3.3 0 0 1 0 .4v.4a.76.76 0 0 1-.2.4c-.1.5-.6.5-.8.1l-.4-.5z" fill="#0a328c" stroke="#000"></path><path d="M16.6 12.4l.9-.5c.3 0 0 .6 0 .6l-.9.3v-.4z" fill="#d20014" stroke="#000"></path><path d="M16.8 12.2l2.1-1.1-2.2 1.2.1-.1zM19 11l.3-.1-.2.2-.1-.1z" fill="#f1b517" stroke="#000"></path><path d="M19.1 11.1c0-.1-.1-.1-.1-.2l-.1.1.2.1z" fill="#f1b517" stroke="#000"></path><path d="M19.2 11.4l-.3-.2-.2-.1V11c.1-.1.3.1.3.1l.2.3z" fill="#0a328c" stroke="#0a328c"></path><path d="M19 11.5v-.3c-.1 0-.2 0-.2-.2a.31.31 0 0 0 .2.1v.1l.2.3z" fill="#d20014" stroke="#d20014"></path></g></g><g stroke-width=".02"><path d="M16.4 9.2v.7h.2v-.7h.2V9h-.6v.2z" fill="#016a16" stroke="#016a16"></path><g data-name="tree half" fill="#016a16" stroke="#000"><path d="M16.5 9c-.6-.6-1-.3-1.1-.2h.2l-.1.1c.1 0 .1-.1.2-.1l-.1.1.1-.1v.1h.1a.76.76 0 0 1 .4.2"></path><path d="M16.3 9c-.1-.1-1.2-.4-1.4 0h.2v.1l.1-.1v.1l.1-.1v.1l.1-.2V9l.1-.1V9"></path><path d="M16.3 9.1a.88.88 0 0 0-.7-.1c-.3.2-.4.1-.5.4l.1-.1.1.1.1-.2v.1l.1-.1h.1l.1-.1v.1l.1-.1v.1l.1-.1h.2"></path><path d="M16.2 9.1a1.49 1.49 0 0 0-.9.4h.1v.1c0-.1 0-.1.1 0v-.1l.1-.2v.1-.1h.1l.2-.2"></path><path d="M16.3 9.1c-.3.1-.4.3-.5.6.1-.1.1-.1.1 0V9.4s-.1 0 0-.1v-.1l.4-.1M16.3 9.2l-.1.2-.1.1h.1c-.1 0-.1.1-.2.2l.1-.1c-.1.1-.1.1-.1.2l.1-.1c-.1.1-.1.1-.1.2l.1-.1a.37.37 0 0 0 .1.3v-.2l.2.2-.1-.2s.1.2.2.1l-.1-.2.1.1-.1-.2h.1a.35.35 0 0 1-.1-.2l.1.1v-.1l-.1-.1h.1v-.2M16.4 9.2c-.2.2-.1.6-.2.7"></path></g><g data-name="tree half-2" fill="#016a16" stroke="#000"><path d="M16.5 9c.6-.6 1-.3 1.1-.2h-.2l.1.1c-.1 0-.1-.1-.2-.1l.1.1-.1-.1v.1h-.1a.76.76 0 0 0-.4.2"></path><path d="M16.6 9c.1-.1 1.2-.4 1.4 0h-.1v.1l-.2-.1v.1l-.2-.1v.1l-.1-.1"></path><path d="M16.7 9.1a.88.88 0 0 1 .7-.1c.3.2.4.1.5.4l-.1-.1-.1.1-.1-.2v.1l-.1-.1h-.1l-.1-.1v.1l-.1-.1v.1l-.2-.1h-.2"></path><path d="M16.8 9.1a1.49 1.49 0 0 1 .9.4h-.1v.1c0-.1 0-.1-.1 0v-.1l-.1-.2v.1-.1h-.1l-.3-.1"></path><path d="M16.7 9.1c.3.1.4.3.5.6-.1-.1-.1-.1-.1 0V9.4s.1 0 0-.1v-.1l-.4-.1M16.7 9.2l.1.2.1.1h-.1c.1 0 .1.1.2.2l-.1-.1c.1.1.1.1.1.2l-.1-.1c.1.1.1.1.1.2l-.1-.1a.37.37 0 0 1-.1.3v-.2l-.2.2.1-.2s-.1.2-.2.1l.1-.2-.1.1.1-.2h-.1a.35.35 0 0 0 .1-.2l-.1.1v-.1l.1-.1h-.1v-.2M16.6 9.2c.2.2.1.6.2.7"></path></g><g fill="#f1b517" stroke="#000"><path d="M16.6 12.2s.1-.7.1-1a5.38 5.38 0 0 0-.1-.8h-.3v.8c0 .3.1 1 .1 1z"></path><path d="M16.3 10.4h.3v-.2h-.2z"></path><path d="M16.3 10.3h.3v-.2h-.2zM16.4 10.1h.2v-.2h-.1z"></path><path d="M16.5 9.9h-.2v.1l.2-.1zM16.6 12.1h-.2M16.6 11.9h-.2M16.6 11.8h-.3M16.6 11.6h-.3M16.6 11.4h-.3M16.6 11.3h-.3M16.6 11.2h-.3M16.6 11h-.3M16.6 10.9h-.3M16.6 10.7h-.3M16.6 10.6h-.3"></path></g><path d="M16.5 8.7s-.2-.1-.1-.1v-.1c.1-.2 0-.1 0-.2s.3 0 .3.1v.2l-.1.1c0 .1-.1 0-.1 0z" fill="#0a328c" stroke="#0a328c"></path><path d="M16.5 9.2l-.1-.6h.1z" fill="#f1b517" stroke="#000"></path><path d="M16.6 8.7c.1 0 .1-.1 0-.2s-.1-.1-.2-.1a.1.1 0 0 0-.1.1c.2.1.1 0 .2 0a.31.31 0 0 1 .1.2z" fill="#d20014" stroke="#d20014"></path></g><path d="M15.7 11.7a.19.19 0 0 0-.3 0 .35.35 0 0 1 .2-.1.1.1 0 0 1 .1.1zM15.7 11.9c0 .1 0 .1-.1.2s-.2 0-.2-.1v-.2l.3.1z" fill="#016a16" stroke="#fff" stroke-linecap="round" stroke-width=".02"></path><circle cx="15.5" cy="11.7" r=".1" fill="#fff"></circle><path d="M15.5 11.8v-.2h.1l-.1.2z" fill="#016a16" stroke="#f1b517" stroke-width=".02"></path><path d="M15.7 11.7a.19.19 0 0 1-.3 0 .35.35 0 0 0 .2.1c.1 0 .1 0 .1-.1z" fill="#016a16" stroke="#fff" stroke-linecap="round" stroke-width=".02"></path><g data-name="items half" stroke-width=".02"><path data-name="cannon base" d="M16.2 12.7l-.5-.2-.2-.4h-.8v.3l.7.1.1.1.8.2v-.1z" fill="#f1b517" stroke="#000"></path><g stroke="#000"><path d="M15.7 12.8l-.8-1.2.8 1.2z" fill="#503200"></path><path d="M14.9 11.6l-.1-.1h-.1v.1h.2z" fill="#fff"></path></g><g fill="#f1b517" stroke="#000"><path d="M15.8 12l-1.7-.2v.2l1.7.2V12zM14 11.8v.3h.1v-.3zM14.3 11.9v.3-.3z"></path><path d="M15.5 12v.3h.1l-.1-.3zM15.7 12l-.1.3h.1v-.2l.1.1.1-.1a.1.1 0 0 0-.1-.1h-.1zM15.1 12.1l-.3.3.3-.3zM14.6 12.7l.2-.3-.2.3zM15.2 12.6l-.3-.2.3.2zM14.5 12.1l.3.2-.3-.2zM14.8 12v.3-.3zM14.9 12.8v-.3.3zM15.3 12.3zM14.4 12.4l.3-.1-.3.1z"></path><circle cx="14.8" cy="12.4" r=".1"></circle><path d="M15.3 12.4a.5.5 0 1 1-.5-.5.47.47 0 0 1 .5.5zm-.1 0a.4.4 0 1 1-.4-.4c.3 0 .4.1.4.4z" stroke-linecap="round"></path><path d="M14.5 12.7"></path></g><g stroke="#000"><path d="M16.2 11.9l.1.4h-.1v-.4z" fill="#f1b517"></path><path d="M16.2 11.8a.31.31 0 0 1-.2-.1c-.1.1 0 .1 0 .3s.1-.1.2-.2l.2.1v-.1z" fill="#fff"></path><path d="M16.2 11.9v-.1h-.1l.1.1z" fill="#fff"></path></g><path d="M15.8 12.3v.6h-.1a.1.1 0 0 0 .1.1h.1a.1.1 0 0 0 .1-.1h-.1v-.1h.1a.1.1 0 0 0 .1-.1v-.2c0-.1 0-.1-.1-.1s-.1 0-.2-.1zm.1.2h-.1v.1a.1.1 0 0 0 .1.1c.1 0 0 0 0-.1z" fill="#f1b517" stroke="#000"></path><g fill="#fff" stroke="#000"><path d="M15.3 12.6c0 .1.1.2 0 .2h-.2a.22.22 0 0 0 .2.2h.1c.1-.1.2-.3-.1-.4zM15.4 12.7"></path></g><g data-name="small flag"><path d="M13.9 12.7l-.1-.3M14 12.7l-.1-.2M14.2 12.6l-.2-.1M14.3 12.6l-.5-.2" fill="#f1b517" stroke="#000"></path><path d="M13.5 12.2h-.2v.1s-.3.1-.3 0l.3-.1v-.1l.1-.1.1.2z" fill="#d20014" stroke="#d20014"></path><path d="M13.8 12.3l-.4-.3.4.3z" fill="#503200" stroke="#000"></path><path d="M14.1 12.6l-.3-.3v-.1h-.1v.1h.1l.3.3z" fill="#f1b517" stroke="#000"></path></g><g fill="#f1b517" stroke="#000"><circle cx="15.2" cy="13" r=".1"></circle><circle cx="15.1" cy="12.9" r=".1"></circle><circle cx="14.9" cy="12.9" r=".1"></circle><circle cx="14.6" cy="13" r=".1"></circle><circle cx="14.5" cy="13" r=".1"></circle><circle cx="14.3" cy="13" r=".1"></circle><circle cx="14.2" cy="13" r=".1"></circle><circle cx="14.3" cy="12.9" r=".1"></circle><circle cx="14.4" cy="12.9" r=".1"></circle><circle cx="14.5" cy="12.9" r=".1"></circle><circle cx="14.4" cy="12.8" r=".1"></circle><circle cx="14.3" cy="12.8" r=".1"></circle></g><path d="M15.5 13h.1s.1-.1.1 0h-.2c.1.1 0 .1 0 0zm.1 0zm.1 0zm.3 0zm.2 0zm-.1 0zm.2 0z" fill="#f1b517" stroke="#000"></path></g><g data-name="items half-2" stroke-width=".02"><path data-name="cannon base-2" d="M16.8 12.7l.5-.2.2-.4h.8v.3l-.7.1-.1.1-.8.2v-.1z" fill="#f1b517" stroke="#000"></path><g stroke="#000"><path d="M17.3 12.8l.8-1.2-.8 1.2z" fill="#503200"></path><path d="M18.1 11.6l.1-.1h.1v.1h-.2z" fill="#fff"></path></g><g fill="#f1b517" stroke="#000"><path d="M17.2 12l1.6-.2v.2l-1.6.2V12zM18.9 11.8v.3h-.1l.1-.3zM18.7 11.9v.3-.3z"></path><path d="M17.5 12v.3h-.1l.1-.3z"></path><path d="M17.3 12l.1.3h-.1v-.2l-.1.1-.1-.1a.1.1 0 0 1 .1-.1h.1zM17.9 12.1l.2.3-.2-.3zM18.4 12.7l-.3-.3.3.3zM17.8 12.6l.3-.2-.3.2zM18.5 12.1l-.3.2.3-.2zM18.1 12v.3-.3zM18.1 12.8v-.3.3zM17.7 12.3zM18.6 12.4l-.3-.1.3.1z"></path><circle cx="18.1" cy="12.4" r=".1"></circle><path d="M17.6 12.4a.5.5 0 1 0 .5-.5c-.2 0-.4.2-.5.5zm.1 0a.4.4 0 1 0 .4-.4c-.2 0-.3.1-.4.4z" stroke-linecap="round"></path><path d="M18.5 12.7"></path></g><g stroke="#000"><path d="M16.8 11.9l-.1.4h.1v-.4z" fill="#f1b517"></path><path d="M16.8 11.8a.31.31 0 0 0 .2-.1c.1.1 0 .1 0 .3s-.1-.1-.2-.2l-.2.1v-.1z" fill="#fff"></path><path d="M16.8 11.9v-.1h.1l-.1.1z" fill="#fff"></path></g><path d="M17.2 12.3v.6h.1a.1.1 0 0 1-.1.1h-.1a.1.1 0 0 1-.1-.1h.1v-.1H17a.1.1 0 0 1-.1-.1v-.2c0-.1 0-.1.1-.1s.1 0 .2-.1zm-.1.2h.1v.1a.1.1 0 0 1-.1.1c-.1 0 0 0 0-.1z" fill="#f1b517" stroke="#000"></path><g fill="#fff" stroke="#000"><path d="M17.7 12.6c0 .1-.1.2 0 .2h.2a.22.22 0 0 1-.2.2h-.1c-.2-.1-.2-.3.1-.4zM17.6 12.7"></path></g><g data-name="small flag-2"><path d="M19.1 12.7l.1-.3M19 12.7l.1-.2M18.8 12.6l.2-.1M18.7 12.6l.5-.2" fill="#f1b517" stroke="#000"></path><path d="M19.4 12.2h.2v.1s.3.1.3 0l-.3-.1v-.1l-.1-.1-.1.2z" fill="#d20014" stroke="#d20014"></path><path d="M19.2 12.3l.4-.3-.4.3z" fill="#503200" stroke="#000"></path><path d="M18.9 12.6l.3-.3v-.1h.1v.1h-.1l-.3.3z" fill="#f1b517" stroke="#000"></path></g><g fill="#f1b517" stroke="#000"><circle cx="17.8" cy="13" r=".1"></circle><circle cx="17.9" cy="12.9" r=".1"></circle><circle cx="18.1" cy="12.9" r=".1"></circle><circle cx="18.4" cy="13" r=".1"></circle><circle cx="18.5" cy="13" r=".1"></circle><circle cx="18.7" cy="13" r=".1"></circle><circle cx="18.8" cy="13" r=".1"></circle><circle cx="18.7" cy="12.9" r=".1"></circle><circle cx="18.6" cy="12.9" r=".1"></circle><circle cx="18.5" cy="12.9" r=".1"></circle><circle cx="18.5" cy="12.8" r=".1"></circle><circle cx="18.7" cy="12.8" r=".1"></circle></g><path d="M17.5 13h-.1s-.1-.1-.1 0h.2c-.2.1-.1.1 0 0zm-.1 0zm-.2 0zm-.2 0zm-.1 0z" fill="#f1b517" stroke="#000"></path></g><g stroke-width=".02"><path d="M16.5 12.1c-.2 0-.3.1-.3.2a.5.5 0 0 0 .6 0c0-.1-.1-.2-.3-.2z" fill="#0a328c" stroke="#0a328c"></path><path d="M16.8 12.3v.5c0 .1-.1.1-.3.1s-.3 0-.3-.1v-.5c0 .1.1.1.3.1s.3 0 .3-.1z" fill="#f1b517" stroke="#000"></path><path d="M16.2 12.3l.2.6.1-.4.1.4.1-.4.1.3v-.1l-.1-.2-.1.3-.1-.3-.1.3-.2-.5z" fill="#d20014" stroke="#d20014"></path><path d="M16.8 12.7c0 .2-.1.2-.3.2s-.3 0-.3-.1v-.1c0 .1.1.1.3.1s.3 0 .3-.1z" fill="#0a328c" stroke="#0a328c"></path><path d="M16.6 12.8h-.1v.1l.1-.1zM16.2 12.7zM16.8 12.8l-.1.2c.1-.1.1-.1.1-.2z" fill="#f1b517" stroke="#000"></path><path d="M16.8 12.3v.5c0 .1-.1.1-.3.1s-.3 0-.3-.1v-.5" fill="none" stroke="#000"></path><path d="M16.8 12.3a.44.44 0 0 1-.3.1c-.1 0-.3 0-.3-.1s.1-.1.3-.1.3 0 .3.1z" fill="#fff" stroke="#fff"></path></g><g stroke-width=".02"><path d="M17.5 11.7a.22.22 0 0 1 .2.2.1.1 0 0 1-.1.1l-.1.1c-.1 0 0-.1 0-.1v-.3zM17.4 12h.1" fill="#f1b517" stroke="#000"></path><path d="M17.5 11.8v-.1h-.1a.1.1 0 0 0-.1.1h.1s.1-.1.1 0c0-.1.1 0 0 0z" fill="#d20014" stroke="#f1b517"></path></g><path d="M13.8 12.8s-.1.1 0 .1c-.2.1-.4.1-.6.2l.1-.1v.1a.35.35 0 0 1 .1-.2.37.37 0 0 0-.3.1h.1l-.2.2c0 .1.3.1.3.1a.1.1 0 0 0-.1.1.37.37 0 0 0 .3-.1c-.1 0-.2 0-.2-.1v.1c-.1 0-.1 0-.2-.1l.5-.1a.1.1 0 0 0 .1.1v-.1a.1.1 0 0 0 .1-.1c.2-.1.2-.1 0-.2.1 0 .1.1 0 0 .1.1.1 0 0 0z" fill="#f1b517" stroke="#000" stroke-width=".02"></path><g fill="#f1b517" stroke="#000" stroke-width=".02"><path d="M19.7 13v-.2h-.1a.37.37 0 0 0-.1-.3l.3.3h-.1a.35.35 0 0 0 .1.2.1.1 0 0 0-.1.1h-.1V13l-.6-.2a.1.1 0 0 1-.1-.1c0-.1.1 0 .2 0l.6.3z"></path><path d="M19.1 12.9l.1-.1s0-.1-.1 0v.1z"></path></g><g><path d="M15.1 13.2v-.1h-.2v.1z" fill="#fff" stroke="#000" stroke-width=".02"></path><path d="M13.9 13.4l-.2-.1a3 3 0 0 0 1.3-.2c.1 0 .2.1-.1.1l.1.2a1.91 1.91 0 0 1-1.3.2l.2-.2zM17.9 13.2v-.1h.2v.1z" fill="#fff" stroke="#000" stroke-width=".02"></path><path d="M19.1 13.4l.2-.1c-1 0-.8-.2-1.3-.2-.1 0-.2.2.1.1l-.1.1h.1a1.47 1.47 0 0 0 1.1.2l-.1-.1z" fill="#fff" stroke="#000" stroke-width=".02"></path><path d="M14.9 13.1v.2a4.4 4.4 0 0 0 1.6.2 8.75 8.75 0 0 0 1.6-.2v-.2a4.4 4.4 0 0 1-1.6.2 4.4 4.4 0 0 1-1.6-.2z" fill="#fff" stroke="#000" stroke-width=".02"></path><path d="M15 13.4v-.2.2zm.1-.1zm.3 0zm0 .2v-.2.2l.1-.2-.1.2zm.2 0v-.2zm.1-.1l.1-.1v.1h-.1zm0 0zm.1.1v-.2.2l.1-.2-.1.2zm.3 0v-.2h.1v.1l-.1.1zm.1 0l.1-.2.1.2v-.1l-.2.1zm.1-.1zm.1.1v-.1.1zm.1 0v-.2.2zm.2 0v-.2.2zm.1 0l.1-.2.1.2h-.2zm.1-.1zm.2.1v-.2.2zm.1-.1l.1-.1-.1.1zm0 0zm.2 0v-.2.2zm0-.1zm.3 0zm.1.1v-.2.2z"></path></g></g></svg><svg viewBox="0 0 33 22" width="33" height="22" id="poland" y="176"><title>poland</title><g data-name="Calque 1-2"><path fill="#e9e8e7" d="M0 0h33v11H0z"></path><path fill="#d4213d" d="M0 11h33v11H0z"></path></g></svg><svg viewBox="0 0 33 22" width="33" height="22" id="quebec" y="198"><title>quebec</title><g data-name="Calque 1-2"><path d="M0 0h33v22H0z" fill="#fff"></path><path d="M0 0h13.8v8.3H0z" fill="#002495"></path><path d="M8.2 5.1c.1-.2.1-.4-.1-.5a.19.19 0 0 0-.3 0c-.2.1-.2.3-.2.5H8v.4h-.9a.66.66 0 0 0 .4.5c0 .2-.2.3-.4.3a.76.76 0 0 1-.2.5.76.76 0 0 1-.2-.5c-.2 0-.3-.1-.4-.3.2 0 .3-.2.4-.4h-.9v-.5h.4a.76.76 0 0 0-.2-.5c-.1-.1-.2-.1-.4 0a.45.45 0 0 0 0 .5.77.77 0 0 1-.7-.8.76.76 0 0 1 .2-.4.48.48 0 0 1 .6-.2 1.56 1.56 0 0 1 .7 1.5h.2a5.26 5.26 0 0 0-.4-1.8A1.74 1.74 0 0 1 6.5 2a1.76 1.76 0 0 1 .4-.5c.1 0 .3.2.4.4a1.4 1.4 0 0 1 .2 1.4A6.07 6.07 0 0 0 7 5.1h.2a1.56 1.56 0 0 1 .7-1.5.66.66 0 0 1 .7.2.67.67 0 0 1 0 1c0 .2-.2.3-.4.3z" fill="#fff"></path><path d="M19.3 0H33v8.3H19.3z" fill="#002495"></path><path d="M27.5 5.1c.1-.2.1-.4-.1-.5s-.2-.1-.4 0a.76.76 0 0 0-.2.5h.4v.4h-.8a.66.66 0 0 0 .4.5c-.1.2-.2.3-.4.3a.76.76 0 0 1-.2.5.76.76 0 0 1-.2-.5c-.2 0-.3-.1-.4-.3a.66.66 0 0 0 .4-.5h-.8v-.4h.4a.76.76 0 0 0-.2-.5c-.1-.1-.2-.1-.4 0s-.2.3-.1.5a.77.77 0 0 1-.7-.8.52.52 0 0 1 .2-.4.62.62 0 0 1 .7-.2 1.56 1.56 0 0 1 .7 1.5h.2a5.26 5.26 0 0 0-.4-1.8 1.4 1.4 0 0 1 .2-1.4 1.76 1.76 0 0 1 .4-.5c.1.2.3.3.4.5a1.4 1.4 0 0 1 .2 1.4 3.92 3.92 0 0 0-.4 1.8h.2a1.56 1.56 0 0 1 .7-1.5.66.66 0 0 1 .7.2.67.67 0 0 1 0 1c-.2.1-.3.2-.5.2z" fill="#fff"></path><g><path d="M0 13.8h13.8V22H0z" fill="#002495"></path><path d="M8.2 18.9c.1-.2.1-.4-.1-.5s-.2-.1-.4 0a.76.76 0 0 0-.2.5h.4v.4h-.8a.66.66 0 0 0 .4.5c-.1.2-.2.3-.4.3a.76.76 0 0 1-.2.5.76.76 0 0 1-.2-.5c-.2 0-.3-.1-.4-.3a.66.66 0 0 0 .4-.5h-.9v-.4h.4a.76.76 0 0 0-.2-.5c-.1-.1-.2-.1-.4 0s-.2.3-.1.5a.77.77 0 0 1-.7-.8.52.52 0 0 1 .2-.4c.2-.2.4-.3.6-.2a1.56 1.56 0 0 1 .7 1.5h.2a5.26 5.26 0 0 0-.4-1.8 1.74 1.74 0 0 1 .3-1.4 1.76 1.76 0 0 1 .4-.5c.1.2.3.3.4.5a1.4 1.4 0 0 1 .2 1.4A3.92 3.92 0 0 0 7 19h.2a1.56 1.56 0 0 1 .7-1.5.72.72 0 0 1 .7 1.2c0 .1-.2.2-.4.2z" fill="#fff"></path></g><g><path d="M19.3 13.8H33V22H19.3z" fill="#002495"></path><path d="M27.5 18.9c.1-.2.1-.4-.1-.5s-.2-.1-.4 0a.76.76 0 0 0-.2.5h.4v.4h-.8a.66.66 0 0 0 .4.5c-.1.2-.2.3-.4.3a.76.76 0 0 1-.2.5.76.76 0 0 1-.2-.5c-.2 0-.3-.1-.4-.3a.66.66 0 0 0 .4-.5h-.8v-.4h.4a.76.76 0 0 0-.2-.5c-.1-.1-.2-.1-.4 0s-.2.3-.1.5a.77.77 0 0 1-.7-.8.52.52 0 0 1 .2-.4.62.62 0 0 1 .7-.2 1.56 1.56 0 0 1 .7 1.5h.2a5.26 5.26 0 0 0-.4-1.8 1.4 1.4 0 0 1 .2-1.4 1.76 1.76 0 0 1 .4-.5c.1.2.3.3.4.5a1.4 1.4 0 0 1 .2 1.4 3.92 3.92 0 0 0-.4 1.8h.2a1.56 1.56 0 0 1 .7-1.5.72.72 0 0 1 .7 1.2c-.2.1-.3.2-.5.2z" fill="#fff"></path></g></g></svg><svg viewBox="0 0 33 22" width="33" height="22" id="russie" y="220"><title>russie</title><g data-name="Calque 1-2"><path fill="#f7f7f7" d="M0 0h33v11H0z"></path><path fill="#d52b1e" d="M0 11h33v11H0z"></path><path fill="#0039a6" d="M0 7.3h33v7.3H0z"></path></g></svg><svg viewBox="0 0 33 22" width="33" height="22" id="swiss" y="242"><title>swiss</title><g data-name="Calque 1-2"><path fill="#e80000" d="M0 0h33v22H0z"></path><path fill="#fff" d="M14.9 5.6h3.3v10.9h-3.3z"></path><path fill="#fff" d="M11 9.4h11v3.3H11z"></path></g></svg><svg viewBox="0 0 33 22" width="33" height="22" id="united-state" y="264"><title>united-state</title><g data-name="Calque 1-2"><path fill="#fff" d="M0 0h33v22H0z"></path><path fill="#b31e31" d="M0 20.4h32.9V22H0zM0 17h32.9v1.6H0zM0 13.6h32.9v1.6H0zM0 10.2h32.9v1.6H0zM0 6.8h32.9v1.6H0zM0 3.4h32.9V5H0zM0 0h32.9v1.6H0z"></path><path fill="#39396f" d="M0 0h16.8v11.8H0z"></path><path fill="#fff" d="M1.5.5l.1.5h.5l-.4.2.2.5-.4-.3-.4.3.2-.5L.9 1h.4l.2-.5zM4.3.5l.1.5h.5l-.4.2.1.5-.3-.3-.4.3.1-.5-.3-.2h.4l.2-.5zM7 .5l.2.5h.4l-.3.2.1.5-.4-.3-.3.3.1-.5-.4-.2h.5L7 .5zM9.8.5l.2.5h.4l-.4.2.2.5-.4-.3-.4.3.2-.5-.4-.2h.5l.1-.5zM12.6.5l.1.5h.5l-.4.2.2.5-.4-.3-.4.3.2-.5L12 1h.4l.2-.5zM15.4.5l.1.5h.5l-.4.2.1.5-.3-.3-.4.3.1-.5-.4-.2h.5l.2-.5zM2.9 1.7l.1.5h.5l-.4.2.2.5-.4-.3-.4.3.1-.5-.3-.2h.4l.2-.5zM5.6 1.7l.2.5h.5l-.4.2.1.5-.4-.3-.3.3.1-.5-.4-.2h.5l.1-.5zM8.4 1.7l.2.5H9l-.3.2.1.5-.4-.3-.3.3.1-.5-.4-.2h.5l.1-.5zM11.2 1.7l.1.5h.5l-.4.2.2.5-.4-.3-.4.3.2-.5-.4-.2h.5l.1-.5zM14 1.7l.1.5h.5l-.4.2.1.5-.3-.3-.4.3.1-.5-.3-.2h.4l.2-.5zM2.9 4.1l.1.5h.5l-.4.3.2.4-.4-.3-.4.3.1-.4-.3-.3h.4l.2-.5zM5.6 4.1l.2.5h.5l-.4.3.1.4-.4-.3-.3.3.1-.4-.4-.3h.5l.1-.5zM8.4 4.1l.2.5H9l-.3.3.1.4-.4-.3-.3.3.1-.4-.4-.3h.5l.1-.5zM11.2 4.1l.1.5h.5l-.4.3.2.4-.4-.3-.4.3.2-.4-.4-.3h.5l.1-.5zM14 4.1l.1.5h.5l-.4.3.1.4L14 5l-.4.3.1-.4-.3-.3h.4l.2-.5zM2.9 6.6L3 7h.5l-.4.3.2.4-.4-.3-.4.3.1-.4-.3-.3h.4l.2-.4zM5.6 6.6l.2.4h.5l-.4.3.1.4-.4-.3-.3.3.1-.4L5 7h.5l.1-.4zM8.4 6.6l.2.4H9l-.3.3.1.4-.4-.3-.3.3.1-.4-.4-.3h.5l.1-.4zM11.2 6.6l.1.4h.5l-.4.3.2.4-.4-.3-.4.3.2-.4-.4-.3h.5l.1-.4zM14 6.6l.1.4h.5l-.4.3.1.4-.3-.3-.4.3.1-.4-.3-.3h.4l.2-.4zM2.9 9l.1.4h.5l-.4.3.2.4-.4-.2-.4.2.1-.4-.3-.3h.4l.2-.4zM5.6 9l.2.4h.5l-.4.3.1.4-.4-.2-.3.2.1-.4-.4-.3h.5l.1-.4zM8.4 9l.2.4H9l-.3.3.1.4-.4-.2-.3.2.1-.4-.4-.3h.5l.1-.4zM11.2 9l.1.4h.5l-.4.3.2.4-.4-.2-.4.2.2-.4-.4-.3h.5l.1-.4zM14 9l.1.4h.5l-.4.3.1.4-.3-.2-.4.2.1-.4-.3-.3h.4L14 9zM1.5 2.9l.1.5h.5l-.4.2.2.5-.4-.3-.4.3.2-.5-.4-.2h.4l.2-.5zM4.3 2.9l.1.5h.5l-.4.2.1.5-.3-.3-.4.3.1-.5-.3-.2h.4l.2-.5zM7 2.9l.2.5h.4l-.3.2.1.5-.4-.3-.3.3.1-.5-.4-.2h.5l.1-.5zM9.8 2.9l.2.5h.4l-.4.2.2.5-.4-.3-.4.3.2-.5-.4-.2h.5l.1-.5zM12.6 2.9l.1.5h.5l-.4.2.2.5-.4-.3-.4.3.2-.5-.4-.2h.4l.2-.5zM15.4 2.9l.1.5h.5l-.4.2.1.5-.3-.3-.4.3.1-.5-.4-.2h.5l.2-.5zM1.5 5.4l.1.4h.5l-.4.3.2.4-.4-.3-.4.3.2-.4-.4-.3h.4l.2-.4zM4.3 5.4l.1.4h.5l-.4.3.1.4-.3-.3-.4.3.1-.4-.3-.3h.4l.2-.4zM7 5.4l.2.4h.4l-.3.3.1.4-.4-.3-.3.3.1-.4-.4-.3h.5l.1-.4zM9.8 5.4l.2.4h.4l-.4.3.2.4-.4-.3-.4.3.2-.4-.4-.3h.5l.1-.4zM12.6 5.4l.1.4h.5l-.4.3.2.4-.4-.3-.4.3.2-.4-.4-.3h.4l.2-.4zM15.4 5.4l.1.4h.5l-.4.3.1.4-.3-.3-.4.3.1-.4-.4-.3h.5l.2-.4zM1.5 7.8l.1.4h.5l-.4.3.2.4-.4-.3-.4.3.2-.4-.4-.3h.4l.2-.4zM4.3 7.8l.1.4h.5l-.4.3.1.4-.3-.3-.4.3.1-.4-.3-.3h.4l.2-.4zM7 7.8l.2.4h.4l-.3.3.1.4-.4-.3-.3.3.1-.4-.4-.3h.5l.1-.4zM9.8 7.8l.2.4h.4l-.4.3.2.4-.4-.3-.4.3.2-.4-.4-.3h.5l.1-.4zM12.6 7.8l.1.4h.5l-.4.3.2.4-.4-.3-.4.3.2-.4-.4-.3h.4l.2-.4zM15.4 7.8l.1.4h.5l-.4.3.1.4-.3-.3-.4.3.1-.4-.4-.3h.5l.2-.4zM1.5 10.2l.1.4h.5l-.4.3.2.4-.4-.2-.4.2.2-.4-.4-.3h.4l.2-.4zM4.3 10.2l.1.4h.5l-.4.3.1.4-.3-.2-.4.2.1-.4-.3-.3h.4l.2-.4zM7 10.2l.2.4h.4l-.3.3.1.4-.4-.2-.3.2.1-.4-.4-.3h.5l.1-.4zM9.8 10.2l.2.4h.4l-.4.3.2.4-.4-.2-.4.2.2-.4-.4-.3h.5l.1-.4zM12.6 10.2l.1.4h.5l-.4.3.2.4-.4-.2-.4.2.2-.4-.4-.3h.4l.2-.4zM15.4 10.2l.1.4h.5l-.4.3.1.4-.3-.2-.4.2.1-.4-.4-.3h.5l.2-.4z"></path></g></svg></svg>