<?xml version="1.0" encoding="UTF-8"?><!DOCTYPE svg PUBLIC "-//W3C//DTD SVG 1.1//EN" "http://www.w3.org/Graphics/SVG/1.1/DTD/svg11.dtd"><svg xmlns="http://www.w3.org/2000/svg"><symbol id="classic-top"><path  fill-rule="evenodd" d="M34.998 31.012a1.079 1.079 0 0 1-.056.267c-.116.319-.297.547-.479.767a7.202 7.202 0 0 1-.584.599c-.813.743-1.69 1.377-2.578 1.993a51.12 51.12 0 0 1-5.539 3.343l-.011.007a.378.378 0 0 1-.184.042c-.27-.005-.541-.017-.811-.022a158.37 158.37 0 0 1-.073 1.97c-.032.78-.083 1.549-.125 2.313-.052.759-.097 1.513-.154 2.247l-.161 2.163-6.661.152c-2.242.054-4.507.114-6.782.149a.343.343 0 0 1-.35-.334v-.011l-.08-4.513-.064-4.138c-.292.006-.583.019-.875.024a.375.375 0 0 1-.182-.042l-.013-.007a51.438 51.438 0 0 1-5.66-3.427C2.67 33.92 1.773 33.27.955 32.489a5.62 5.62 0 0 1-.58-.643 2.487 2.487 0 0 1-.246-.392 1.136 1.136 0 0 1-.13-.525c.029-.57.124-1.117.251-1.659.264-1.077.661-2.13 1.281-3.072.313-.466.686-.905 1.148-1.25.231-.172.482-.32.75-.432.268-.112.515-.194.772-.299a74.288 74.288 0 0 0 3.029-1.286c.406-.183.812-.37 1.217-.557l1.394-.678-.046-.08-.445-1.931-.569-1.084a1.507 1.507 0 0 1-.087-1.203l.68-1.921a7.909 7.909 0 0 1 .185-1.627 9.79 9.79 0 0 1 .279-.981l-.493-.651c.082.182.172.361.243.547a.04.04 0 0 1-.024.052.042.042 0 0 1-.05-.018c-.183-.3-.375-.595-.577-.879a5.354 5.354 0 0 0-.318-.408 1.912 1.912 0 0 0-.348-.331.297.297 0 0 0-.082-.043l-.002.005-.011.028a1.163 1.163 0 0 0-.047.2 3.458 3.458 0 0 0-.026.24 8.136 8.136 0 0 0-.007 1.013c.015.342.061.684.112 1.022.05.338.086.675.114 1.012.029.337.057.673.097 1.004.022.165.048.328.088.485.039.158.086.308.202.433l.004.005a.04.04 0 0 1-.003.059.039.039 0 0 1-.034.01c-.21-.03-.374-.188-.501-.334a2.494 2.494 0 0 1-.308-.49 4.983 4.983 0 0 1-.471-2.129c.003-.362.023-.721.043-1.081.022-.36.054-.718.123-1.085a3.38 3.38 0 0 1 .068-.277c.028-.095.06-.19.119-.299.018-.029.033-.056.056-.085.027-.031.05-.06.085-.087.041-.026.075-.056.127-.069.027-.01.053-.008.08-.012l-.02-.1a5.463 5.463 0 0 1-.501-1.875l-.016-.283c0-.094.004-.188.006-.283 0-.096.006-.19.019-.285.011-.094.018-.189.034-.284a5.54 5.54 0 0 1 .311-1.1c.135-.353.323-.693.471-1.001l.045-.105.033-.071.04-.081c.027-.058.056-.098.085-.144.029-.043.057-.092.088-.13.119-.164.245-.313.376-.451.485-.513.991-.968 1.528-1.405l.017-.07c.018-.081.047-.151.074-.223.025-.075.061-.139.095-.206.034-.066.068-.133.112-.191l.123-.181c.044-.057.092-.109.138-.163.048-.053.093-.11.143-.158l.155-.141c.051-.047.103-.095.156-.139l.167-.119c.112-.077.221-.165.34-.225l.352-.198c.119-.06.241-.108.362-.163.973-.417 1.991-.61 2.998-.753l.758-.09c.253-.021.506-.034.759-.051.253-.015.504-.04.762-.035.257.003.512-.013.769.005 1.026.04 2.061.231 3.013.639a6.743 6.743 0 0 1 2.476 1.805 8.124 8.124 0 0 1 1.469 2.632c.334.945.521 1.929.62 2.914.05.494.071.989.071 1.483 0 .429-.017.856-.057 1.283l.011.344c.061-.082.128-.163.213-.241.083-.066.174-.154.365-.169a.36.36 0 0 1 .146.021c.053.013.087.043.127.069.036.027.058.056.086.087.023.029.038.056.055.085.06.109.092.204.12.299.028.094.048.186.068.277.069.367.101.725.123 1.085.02.36.039.719.042 1.081a4.92 4.92 0 0 1-.471 2.129c-.08.17-.184.336-.308.49-.126.146-.29.304-.5.334a.041.041 0 0 1-.048-.035.039.039 0 0 1 .011-.034l.004-.005c.116-.125.163-.275.202-.433.04-.157.065-.32.087-.485.041-.331.069-.667.098-1.004.027-.337.064-.674.114-1.012.051-.338.097-.68.112-1.022.015-.341.02-.684-.007-1.013a2.932 2.932 0 0 0-.027-.24 1.172 1.172 0 0 0-.046-.2l-.011-.028-.002-.005a.283.283 0 0 0-.082.043 1.916 1.916 0 0 0-.349.331 5.913 5.913 0 0 0-.318.408c-.201.284-.394.579-.576.879-.012.02-.037.027-.056.015a.041.041 0 0 1-.019-.049c.084-.219.188-.43.287-.643l-.071.104-.578.64c.026.073.062.142.086.216.119.359.222.725.306 1.097l.002.013.116-.127.937 3.582-.812 2.038-.445 1.931-.103.177 2.589 1.239.283.126a64.95 64.95 0 0 0 2.977 1.217c.244.088.522.196.762.34.244.143.471.312.675.503.411.38.745.827 1.024 1.299.555.946.918 1.982 1.146 3.043.056.266.103.535.137.807.017.136.031.273.04.41l.006.104.003.056c0 .025.001.051-.001.075zm-17.581 15.45l6.737.152-.315-4.617c-.042-.741-.093-1.476-.125-2.201-.023-.532-.047-1.061-.067-1.589-.933.023-1.866.047-2.798.055-1.117.02-2.233.021-3.35.023a178.274 178.274 0 0 1-3.35-.039c-.952-.021-1.905-.05-2.857-.098l-.062 3.996-.074 4.176c2.073.035 4.157.091 6.261.142zm5.552-20.539h-1.188l-2.623 1.915h-3.062l-2.623-1.915h-1.187l-.244-.19.782 2.444.482 1.519.472 1.522c.162.506.326 1.011.497 1.515.165.505.309 1.016.428 1.533.203.899.36 1.811.463 2.736.778-.011 1.555-.024 2.333-.027h.016l-.111-1.466-.068-1.079-.055-1.081c-.018-.36-.05-.72-.078-1.08a7.786 7.786 0 0 1-.004-1.08c.024-.36.062-.72.122-1.08.057-.36.13-.72.248-1.08a.042.042 0 0 1 .054-.027.044.044 0 0 1 .028.027c.117.36.19.72.247 1.08.06.36.097.72.122 1.08.024.36.022.72-.004 1.08-.028.36-.06.72-.078 1.08l-.056 1.081-.067 1.079-.111 1.467c.89.001 1.78.006 2.67.018.102-.94.26-1.867.463-2.782.119-.526.262-1.046.428-1.56.17-.512.335-1.027.496-1.543l.473-1.549.482-1.547.788-2.506-.535.416zm-3.477-6.867l-.767.235-.63.261h-.65l-.63-.261-.767-.235s.109.601-.274.523c-.259-.054-1.992.476-3.093.799l.667.728c.932.485 1.958.455 3.074-.06.915-.792 1.823-.749 2.752.021.75.487 1.705.371 2.733.039l.727-.794c-1.098-.324-2.626-.783-2.869-.733-.383.078-.273-.523-.273-.523zM9.52 37.212l.025.014.076.002c-.326-.466-.648-.933-.972-1.4l.871 1.384zm.539-14.206a5.905 5.905 0 0 0-1.286.688 12.839 12.839 0 0 0-1.35 1.119c-.425.405-.842.818-1.235 1.255-.261.28-.517.569-.769.859.182.064.363.132.545.202a12.135 12.135 0 0 1 .721.306c.053.028.101.05.184.106l.041.032c.016.015.024.017.063.065a.383.383 0 0 1 .085.267.305.305 0 0 1-.008.054c-.004.022-.003.012-.005.019l-.008.02-.018.039a.555.555 0 0 1-.044.074l-.026.034-.012.013-.033.033c-.046.048-.082.08-.122.117-.307.275-.609.527-.916.783l-.726.601 1.11 1.797c.415.674.835 1.345 1.245 2.022.753 1.24 1.511 2.476 2.258 3.719.246.005.491.016.736.021a.48.48 0 0 1 .271-.111l.04-.003a93.662 93.662 0 0 1 3.349-.123c.256-.006.512-.005.768-.009a14.287 14.287 0 0 1-.46-1.022c-.2-.497-.382-.998-.547-1.504a16.308 16.308 0 0 1-.42-1.537c-.112-.519-.228-1.038-.347-1.556l-.365-1.551-.351-1.554-.337-1.559c-.081-.375-.154-.75-.228-1.128l-1.325-1.03-.028-1.712-.45.154zm-3.672 4.681s.007-.008 0-.001v.001zm8.22-23.818a1.126 1.126 0 0 0-.274-.245c-.106-.066-.213-.131-.311-.205-.108-.085-.172-.126-.222-.19a.355.355 0 0 1-.079-.23c-.006-.193.11-.423.252-.619l.002-.003a.035.035 0 0 0 .002-.038.036.036 0 0 0-.048-.012c-.227.132-.439.31-.551.605a.764.764 0 0 0 .003.493c.059.162.179.295.247.385.162.197.285.437.509.568a1.569 1.569 0 0 0 .789.261.042.042 0 0 0 .033-.051 1.725 1.725 0 0 0-.352-.719zm6.076 1.506a29.365 29.365 0 0 1-1.775-.937c-.29-.164-.575-.334-.853-.512a9.9 9.9 0 0 1-.805-.558 3.32 3.32 0 0 1-.653-.649 1.268 1.268 0 0 1-.178-.324c-.034-.103-.043-.169-.023-.232.013-.066.081-.154.182-.238.101-.086.231-.158.37-.23.279-.139.593-.257.914-.38l.002-.001a.034.034 0 0 0 .022-.026c.005-.02-.008-.038-.028-.042a2.813 2.813 0 0 0-1.063-.011 1.931 1.931 0 0 0-.547.178c-.18.094-.377.238-.494.48a.914.914 0 0 0-.067.568c.01.062.027.116.045.169.075.21.203.385.335.526.27.277.567.469.858.66.587.374 1.203.665 1.826.93.628.256 1.259.497 1.906.693.016.005.035-.002.042-.017.008-.018.001-.039-.016-.047zm4.573 8.864a11.774 11.774 0 0 0-.395-2.18v-.001a.04.04 0 0 1 .029-.05c.005-.002.007.005.012.006.108-.58.131-1.179.128-1.772a16.932 16.932 0 0 0-.038-.928c-.024-.308-.038-.622-.102-.911a2.575 2.575 0 0 0-.343-.822 2.913 2.913 0 0 0-.602-.662 4.043 4.043 0 0 0-1.469-.736l-.233.679a.19.19 0 0 1-.267.104l-.006-.003-.677-.364-.237-.059.091.319a.223.223 0 0 1-.156.274.226.226 0 0 1-.249-.092l-.021-.032c-.01-.014-.039-.062-.067-.094a1.974 1.974 0 0 0-.314-.3 2.985 2.985 0 0 0-.523-.317 5.306 5.306 0 0 0-1.196-.4 8.888 8.888 0 0 0-1.271-.185 6.65 6.65 0 0 0-1.268.038c-.847.106-1.683.333-2.493.632a16.004 16.004 0 0 0-2.303 1.069l-.435.393a.405.405 0 0 1 .196.236c.015.046.016.054.021.076l.009.054a1.106 1.106 0 0 1 .006.281 1.355 1.355 0 0 1-.076.331 1.63 1.63 0 0 1-.222.416l-.022.031c-.004.004-.003.005-.006.009a.43.43 0 0 0-.024.106 1.489 1.489 0 0 0-.014.188c-.004.136.006.284.017.432.024.298.068.605.119.911.054.304.11.616.176.914l.003.012a.38.38 0 0 1-.037.262c-.154.286-.3.614-.426.932-.126.323-.242.65-.339.983a8.819 8.819 0 0 0-.184.816l.176 2.442 1.312 1.852.299.326.026.018c.005.003 0 .01.004.015l.36.393c.168-.239.318-.444.318-.444-.448-.342 2.738-1.859 3.259-1.686h.571a4.9 4.9 0 0 1-.313-.281 1.094 1.094 0 0 1-.334-.193.936.936 0 0 1-.261-.358.834.834 0 0 1-.055-.213.406.406 0 0 1 .038-.237.348.348 0 0 1 .178-.156.55.55 0 0 1 .211-.038.04.04 0 0 1 .04.04.04.04 0 0 1-.032.04h-.004c-.113.024-.224.095-.239.179-.021.081.02.187.079.28.06.09.139.162.231.213a.732.732 0 0 0 .288.092.126.126 0 0 1 .058.02l.036.024c.233.156.486.313.729.412.121.049.238.08.29.065l.457-.03c.153-.01.306-.022.459-.038.029-.009.12-.056.222-.122.201-.132.437-.299.661-.44l.18-.113a.014.014 0 0 1 .019.005c.004.005.002.014-.004.018l-.002.001c-.01.005.022 0 .037-.001a.708.708 0 0 0 .058-.01c.038-.01.078-.019.114-.035a.612.612 0 0 0 .205-.13.796.796 0 0 0 .132-.175c.012-.024.008-.059-.021-.101a.464.464 0 0 0-.131-.114l-.007-.004a.041.041 0 0 1-.013-.058.042.042 0 0 1 .024-.018.457.457 0 0 1 .236-.008.387.387 0 0 1 .24.166.523.523 0 0 1 .077.295.9.9 0 0 1-.041.259 1.024 1.024 0 0 1-.288.443 1.176 1.176 0 0 1-.336.214c-.039.038-.078.072-.118.107h.265c.52-.173 3.707 1.344 3.259 1.686 0 0 .083.112.194.268l.527-.576 1.113-1.571c.023-.051.05-.098.072-.15.072-.168.105-.354.156-.533l.158-2.192.052-.057c-.006-.129-.001-.258-.013-.387zm-.263-2.225l-.021.096-.002.001c.007.016.012.034.02.05l.003-.147zm2.957 15.775a.576.576 0 0 1 .034-.09.591.591 0 0 1 .041-.061c.04-.048.048-.05.064-.065a.635.635 0 0 1 .041-.032c.082-.056.13-.078.183-.106l.15-.07a18.794 18.794 0 0 1 1.116-.438c-.251-.29-.507-.579-.769-.859-.393-.437-.81-.85-1.234-1.255a12.816 12.816 0 0 0-1.35-1.119 8.149 8.149 0 0 0-.601-.383l-.883-.297-.024 1.55-1.038.806c-.074.389-.149.774-.23 1.16l-.337 1.585-.351 1.582-.365 1.578c-.118.527-.235 1.055-.346 1.583a17.28 17.28 0 0 1-.421 1.565 24.478 24.478 0 0 1-.546 1.531c-.14.351-.293.698-.461 1.042l.226.001c1.116.01 2.233.042 3.349.069l.027.001a.56.56 0 0 1 .398.181c.208-.005.415-.014.622-.018.748-1.243 1.506-2.479 2.259-3.719.409-.677.83-1.348 1.244-2.022l1.11-1.797-.725-.601c-.307-.256-.61-.508-.916-.783-.04-.037-.076-.069-.123-.117l-.032-.033-.012-.013-.026-.034a.562.562 0 0 1-.045-.074l-.018-.039-.007-.02c-.003-.007-.001.003-.006-.019a.441.441 0 0 1 .002-.17zm-4.845-15.981l-.014-.009-.016-.013-.093-.03c-.042-.012-.084-.025-.129-.036a4.804 4.804 0 0 0-.27-.061 8.778 8.778 0 0 0-.539-.09 2.671 2.671 0 0 0-.458-.03c-.036-.001-.037.009-.061.005-.065.017-.138.043-.197.048-.125.022-.24.026-.351.023a3.279 3.279 0 0 1-.643-.094 8.845 8.845 0 0 1-.9-.272c-.096-.042-.195-.07-.282-.152a.071.071 0 0 1-.019-.058.088.088 0 0 1 .017-.039c.015-.02.03-.032.045-.044a.85.85 0 0 1 .092-.06c.062-.036.126-.067.189-.097.128-.059.255-.118.39-.168.069-.023.134-.052.217-.063.022-.002.046-.005.078.002.02.007.04.009.066.04.024.019.027.085.028.065.002-.006.004-.002.028.006a.905.905 0 0 0 .312.032c.198-.101.397-.191.605-.272.107-.041.216-.08.332-.115a2.34 2.34 0 0 1 .184-.047.85.85 0 0 1 .191-.013.507.507 0 0 1 .054.009.43.43 0 0 1 .082.032.324.324 0 0 1 .103.098.312.312 0 0 1 .041.15.368.368 0 0 1-.006.056c.048.024.124.055.201.077.188.056.405.097.605.123a.286.286 0 0 1 .165.082l.021.022.206.211.049.048-.027-.001.026.014.041.027.011.012v-.003a.395.395 0 0 1 .103.107l.007.009c.003.009-.004-.011.024.048a.41.41 0 0 1 .021.068c.004.03.007.034.006.082.14.202-.592.446-.535.271zm-2.706-.855c-.074-.026-.146-.048-.225-.107a.215.215 0 0 1-.087-.127.748.748 0 0 0-.189.019 1.941 1.941 0 0 0-.575.217.474.474 0 0 0-.107.088.642.642 0 0 0 .252.084c.095.014.193.019.291.016.197-.008.393-.037.584-.079.087-.019.173-.04.257-.062a1.963 1.963 0 0 1-.201-.049zm1.748-.246c-.002.006-.012.022-.009.019l.004-.005.006-.012.003-.011-.004.009zm1.361.546l.018.017s.003.002 0 0c-.004-.004.002-.001-.018-.017zm-.08-.079c.036.004.056.02.051.049l-.011-.009-.04-.04zm-4.318 2.61a2.46 2.46 0 0 0 .039.618c.022.139.026.278.006.42a2.457 2.457 0 0 1-.289.899l-.002.001a.05.05 0 0 1-.068.019.05.05 0 0 1-.012-.008c-.268-.268-.385-.572-.45-.882a1.22 1.22 0 0 1 .003-.474c.033-.159.076-.316.116-.475.019-.079.043-.159.068-.238l.066-.2c.043-.127.072-.26.09-.397.021-.137.026-.279.02-.422a2.644 2.644 0 0 0-.018-.217l-.015-.111c-.005-.041-.013-.064-.017-.127a.032.032 0 0 1 .029-.034c.009 0 .017.003.023.008l.03.026c.011.01.036.055.055.084l.06.101a2.386 2.386 0 0 1 .244.676c.028.16.043.326.04.493-.001.042-.006.083-.009.125l-.009.115zm.848-.58a1.308 1.308 0 0 1 .088-.108c.041-.043.083-.084.125-.125.085-.082.169-.167.263-.245.184-.159.412-.304.691-.34.069-.01.14-.011.212-.008l.191.016.343.03.68.071a.322.322 0 0 1 .289.352.32.32 0 0 1-.089.188l-.018.018a4.316 4.316 0 0 1-.591.504 1.773 1.773 0 0 1-.737.291 1.36 1.36 0 0 1-.809-.143l-.176-.097-.159-.108-.078-.049c-.024-.019-.048-.039-.072-.056a2.701 2.701 0 0 0-.146-.1c-.036-.031-.02-.056-.019-.064a.142.142 0 0 1 .012-.027zm.7.076c.211-.065.381-.152.555-.216l.395-.155-.178-.051-.151-.044a.757.757 0 0 0-.136-.022 1.533 1.533 0 0 0-.62.081 1.223 1.223 0 0 0-.3.156.907.907 0 0 0-.126.113c-.018.021-.037.042-.051.064l-.017.029c.2.086.426.112.629.045zm-4.552-2.031a4.86 4.86 0 0 1-.295.099 8.817 8.817 0 0 1-.605.173 3.279 3.279 0 0 1-.643.094 1.719 1.719 0 0 1-.351-.023c-.059-.005-.132-.031-.197-.048-.024.004-.025-.006-.061-.005a2.671 2.671 0 0 0-.458.03 8.778 8.778 0 0 0-.539.09c-.09.018-.182.038-.27.061-.045.011-.087.024-.129.036l-.093.03-.017.013-.013.009c.057.175-.675-.069-.535-.271-.001-.048.002-.052.006-.082a.41.41 0 0 1 .021-.068c.028-.059.021-.039.024-.048l.007-.009a.195.195 0 0 1 .03-.039.366.366 0 0 1 .073-.068v.003l.011-.012.041-.027.026-.014-.027.001.049-.048.205-.211.022-.021a.281.281 0 0 1 .165-.083c.2-.026.417-.067.604-.123.078-.022.154-.053.202-.077-.003-.019-.006-.038-.006-.056a.312.312 0 0 1 .041-.15.324.324 0 0 1 .103-.098.43.43 0 0 1 .082-.032.507.507 0 0 1 .054-.009c.031-.003.054-.002.078-.001a.85.85 0 0 1 .113.014c.067.014.126.03.184.047.115.035.224.074.332.115.208.081.407.171.605.272a.905.905 0 0 0 .312-.032c.023-.008.026-.012.028-.006.001.02.003-.046.028-.065.026-.031.046-.033.066-.04.032-.007.056-.004.078-.002.083.011.148.04.217.063a5.651 5.651 0 0 1 .579.265.85.85 0 0 1 .092.06c.015.012.03.024.044.044a.089.089 0 0 1 .018.039.071.071 0 0 1-.019.058c-.087.082-.186.11-.282.152zm-4.092.021c-.003.002 0 0 0 0l.018-.017c-.02.016-.014.013-.018.017zm1.379-.563l-.004-.009.003.011.006.012.004.005-.009-.019zm2.903.306a.474.474 0 0 0-.079-.058 1.941 1.941 0 0 0-.575-.217.748.748 0 0 0-.189-.019.215.215 0 0 1-.087.127c-.079.059-.152.081-.226.107-.067.02-.13.036-.2.049.084.022.17.043.257.062.191.042.387.071.584.079a1.66 1.66 0 0 0 .291-.016.642.642 0 0 0 .252-.084.11.11 0 0 0-.028-.03zm-4.235.21c-.005-.029.015-.045.051-.049l-.04.04-.011.009zm1.095 1.272l.68-.071.343-.03.191-.016c.072-.003.143-.002.212.008.28.036.508.181.691.34.094.078.179.163.264.245.042.041.083.082.124.125l.06.068a.255.255 0 0 1 .041.067c0 .008.016.033-.02.064-.048.032-.098.064-.146.1-.024.017-.047.037-.072.056l-.077.049-.16.108-.176.097a1.36 1.36 0 0 1-.809.143 1.778 1.778 0 0 1-.737-.291 4.081 4.081 0 0 1-.59-.504l-.018-.018a.316.316 0 0 1 .008-.452.321.321 0 0 1 .191-.088zm1.339.569c.174.064.343.151.554.216.204.067.43.041.629-.045l-.016-.029c-.015-.022-.034-.043-.052-.064a.898.898 0 0 0-.125-.113 1.212 1.212 0 0 0-.301-.156 1.533 1.533 0 0 0-.62-.081.76.76 0 0 0-.135.022l-.152.044-.178.051.396.155zm8.398 32.691l-10.594-.257v-6.799h10.296l.298 7.056z"/></symbol><symbol id="haikus-top"><path fill-rule="evenodd" d="M83.365 29.861l-.009-.015.235-.027.008.004-.234.038zm-1.169-.074c.124.04.087.09-.093.111l-.164-.105c.135-.03.269-.057.404-.071.218-.024.435-.015.649.065l.225-.072c.115.023.112.081.139.131-.383.036-.759.045-1.16-.059zm-2.009.691c-.593.157-1.146.36-1.721.555-.713.15-1.226.311-2.018.472a.483.483 0 0 1-.048.006c-.425.047.393-.505.731-.627a.093.093 0 0 1 .042-.015c.067-.007.149.043.232.092.083.05.166.1.233.092a.11.11 0 0 0 .046-.016c.329-.042.62-.224.969-.343a.094.094 0 0 1 .039-.013c.051-.006.08.045.102.096.024.051.041.102.069.1a.084.084 0 0 0 .012-.004c.425-.116.75-.447 1.038-.479a.371.371 0 0 1 .1.003l.658.057c-.127-.001-.254-.004-.386.01a1.155 1.155 0 0 0-.098.014zm-.411-.728a.858.858 0 0 0-.227-.093l.439.001c-.053.043-.093.092-.153.098a.138.138 0 0 1-.059-.006zm-.779.057a.722.722 0 0 0-.224-.076l.227-.049-.003.002c-.075.035-.049.081 0 .123zm-.611-.049a.818.818 0 0 1 .387-.027 1.523 1.523 0 0 1-.387.027zm.679-.104h.078a3.285 3.285 0 0 0-.143.028l.065-.028zm-1.935.637a35.59 35.59 0 0 0-.219.131.813.813 0 0 0-.53-.113c-.174.018-.348.08-.521.145l.17.163c.182-.035.212-.118.082-.18.332.129.64.146.946.113a3.36 3.36 0 0 0 .221-.032l.011.029c-.671.206-1.388.461-2 .76l-.253.125a1.014 1.014 0 0 1-.13.023c-.09.009-.178.008-.266.006-.21-.031-.425-.064-.663-.094a.236.236 0 0 0-.088-.004c-.29.031-.594.499-1.018.646a.02.02 0 0 1-.012.005c-.027.004-.048-.065-.074-.132-.026-.068-.058-.135-.107-.13a.075.075 0 0 0-.041.019c-.34.16-.62.387-.946.435a.083.083 0 0 1-.046.02c-.067.007-.151-.056-.236-.118-.085-.063-.17-.126-.237-.118a.08.08 0 0 0-.045.018c-.326.158-1.104.824-.699.78a.299.299 0 0 0 .055-.009c.782-.187 1.288-.386 1.991-.562-.618.269-1.263.529-2.03.654-.032.005-.064.01-.097.013-.18.02-.38.02-.59.021-.209.002-.428.004-.644.027-.141.016-.281.04-.417.078-.797.355-1.598.923-2.576 1.095-1.856.238-3.591.666-5.36.956-.444.073-.89.136-1.34.185-1.341.144-2.713.163-4.127-.053-.734-.043-1.401.032-2.014-.109-1.228-.261-2.538-.16-3.789-.259-1.245-.099-2.42-.395-3.264-1.266-.589-.566-1.482-.854-2.07-.95a1.78 1.78 0 0 0-.434-.024c-.206.022-.24.12.029.303-.845-.504-1.473-.68-1.98-.889-.54-.216-.941-.471-1.297-1.034-.029-.041-.173-.361-.095-.656.074-.3.342-.599 1.176-.736 1.171.095 3.433.103 4.577.48 1.493.546 2.978.785 4.457.857 1.483.081 2.94.001 4.484.125 1.58.121 3.204.136 4.901.061 3.131-.176 5.923-.601 8.99-.634.476-.015.941-.026 1.402-.032l.705-.015.067.033-.036-.034.166-.004a.318.318 0 0 0 .3.113c.093-.01.193-.045.293-.079.053-.019.12-.034.19-.051l.93-.026-.063.042-.044.015h-.001l-.177.061-.029-.005a2.198 2.198 0 0 1-.145.046c.06-.009.117-.025.174-.041.085.014.16.048.228.092-.052-.055-.081-.114-.009-.166l.003-.002.14-.044.407-.017a.671.671 0 0 1 .231.119.113.113 0 0 0 .053.007c.064-.007.101-.078.153-.143a71.78 71.78 0 0 0 2.891-.184s.541.179.718.324a4.005 4.005 0 0 1-.233.047c-.031-.086-.033-.19-.149-.227zm-8.145.24a.427.427 0 0 0-.23.104.85.85 0 0 0 .581.182.542.542 0 0 0 .18-.051c-.166-.137-.346-.255-.531-.235zm3.889-.107c-.07.017-.135.031-.188.05.053-.019.118-.033.188-.05zm-34.661 1.445c-.568.102-1.382.215-2.381.323-6.199.671-19.558 1.14-25.981-2.426-3.876-2.152-6.029-6.045-7.153-8.933-1.213-3.115-1.512-5.686-1.525-5.794l-.029-.259.161-.034L0 1S7.796-.075 8 0l2 13-.591.179.024.113c.015.07 1.575 7.061 9.751 10.371 4.242 1.718 8.453 3.268 11.837 4.513 6.837 2.516 7.615 2.861 7.57 3.351-.007.084-.059.284-.378.342zm-20.147-8.081c-3.858-1.792-6.13-4.359-7.361-6.271-1.126-1.749-1.607-3.226-1.771-3.824l-4.195.903-2.911.884c.336 2.034 1.99 9.862 7.825 13.477 1.073-.006 4.955.896 5.515-.031.646-1.067.266-2.248 2.361-2.528 1.629-.218.078-2.223.537-2.61z"/></symbol><symbol id="modern-top"><path fill-rule="evenodd" d="M36.99 8.859l.008-.024-.036-.007-5.63-6.265.008-.031L11.084-.001-.001 33.557l27.547 3.445 9.443-28.14.004.001-.003-.004zM26.696 35.676L1.628 32.541 11.94 1.325l17.887 2.237-1.142 4.736L35.4 9.732l-8.704 25.944z"/><path fill-rule="evenodd" d="M28.206 13.321l-16.692-2.088a.368.368 0 0 1-.32-.409c.025-.2.21-.343.412-.317l16.691 2.087a.369.369 0 0 1 .321.409.37.37 0 0 1-.412.318zm-1.142 4.663a.368.368 0 0 1-.412.317L9.961 16.214a.369.369 0 0 1-.32-.409.368.368 0 0 1 .412-.318l16.69 2.087a.37.37 0 0 1 .321.41zm-1.176 5.026a.37.37 0 0 1-.413.318l-16.69-2.087a.369.369 0 0 1-.321-.409.368.368 0 0 1 .412-.318l16.691 2.087a.368.368 0 0 1 .321.409zm-1.446 4.994a.37.37 0 0 1-.412.318L7.339 26.235a.367.367 0 0 1-.32-.409.37.37 0 0 1 .412-.318l16.691 2.088a.367.367 0 0 1 .32.408z"/></symbol><symbol id="croix"><path fill-rule="evenodd" 
 d="M17.430,1.803 L10.770,8.464 L17.169,14.863 L15.469,16.564 L9.069,10.164 L2.352,16.881 L0.540,15.069 L7.257,8.352 L0.857,1.952 L2.558,0.252 L8.958,6.651 L15.618,-0.009 L17.430,1.803 Z"/></symbol><symbol id="hamburger"><g><line y1="1" x2="23" y2="1" fill="none" stroke-miterlimit="10" stroke-width="2"/><line y1="9" x2="23" y2="9" fill="none" stroke-miterlimit="10" stroke-width="2"/><line y1="17" x2="23" y2="17" fill="none" stroke-miterlimit="10" stroke-width="2"/></g></symbol></svg>