<svg 
 xmlns="http://www.w3.org/2000/svg"
 xmlns:xlink="http://www.w3.org/1999/xlink"
 width="44px" height="50px">
<path fill-rule="evenodd"  fill="rgb(0, 130, 222)"
 d="M0.000,49.996 L0.000,49.297 C0.000,44.210 4.118,40.048 9.151,40.048 L9.843,40.048 C14.877,40.048 18.994,44.210 18.994,49.297 L18.994,49.996 L0.000,49.996 ZM9.766,38.390 C6.653,38.390 4.130,35.840 4.130,32.694 C4.130,29.548 6.653,26.998 9.766,26.998 C12.878,26.998 15.401,29.548 15.401,32.694 C15.401,35.840 12.878,38.390 9.766,38.390 Z"/>
<path fill-rule="evenodd"  fill="rgb(0, 130, 222)"
 d="M25.000,49.996 L25.000,49.297 C25.000,44.210 29.118,40.048 34.152,40.048 L34.843,40.048 C39.876,40.048 43.994,44.210 43.994,49.297 L43.994,49.996 L25.000,49.996 ZM34.765,38.390 C31.652,38.390 29.130,35.840 29.130,32.694 C29.130,29.548 31.652,26.998 34.765,26.998 C37.878,26.998 40.400,29.548 40.400,32.694 C40.400,35.840 37.878,38.390 34.765,38.390 Z"/>
<path fill-rule="evenodd"  fill="rgb(0, 130, 222)"
 d="M12.000,22.996 L12.000,22.296 C12.000,17.210 16.118,13.048 21.151,13.048 L21.843,13.048 C26.877,13.048 30.993,17.210 30.993,22.296 L30.993,22.996 L12.000,22.996 ZM21.765,11.390 C18.652,11.390 16.130,8.839 16.130,5.694 C16.130,2.548 18.652,-0.002 21.765,-0.002 C24.878,-0.002 27.401,2.548 27.401,5.694 C27.401,8.839 24.878,11.390 21.765,11.390 Z"/>
</svg>