<svg 
 xmlns="http://www.w3.org/2000/svg"
 xmlns:xlink="http://www.w3.org/1999/xlink"
 width="23px" height="27px">
<path fill-rule="evenodd"  fill="rgb(255, 219, 225)"
 d="M15.878,1.014 C15.741,0.874 15.560,0.734 15.340,0.593 L15.340,7.705 L22.411,7.705 C22.272,7.484 22.129,7.303 21.990,7.162 L15.878,1.014 ZM13.842,9.211 C13.562,8.930 13.421,8.589 13.421,8.186 L13.421,-0.010 L1.437,-0.010 C1.038,-0.010 0.698,0.131 0.420,0.412 C0.141,0.693 -0.001,1.035 -0.001,1.436 L-0.001,25.544 C-0.001,25.945 0.141,26.287 0.420,26.568 C0.698,26.849 1.038,26.990 1.437,26.990 L21.573,26.990 C21.970,26.990 22.311,26.849 22.590,26.568 C22.869,26.287 23.010,25.945 23.010,25.544 L23.010,9.633 L14.861,9.633 C14.461,9.633 14.121,9.492 13.842,9.211 ZM17.121,21.069 C17.032,21.158 16.918,21.204 16.779,21.204 L6.234,21.204 C6.091,21.204 5.977,21.158 5.888,21.069 C5.797,20.978 5.753,20.863 5.753,20.722 L5.753,19.758 C5.753,19.617 5.797,19.502 5.888,19.411 C5.977,19.321 6.091,19.276 6.234,19.276 L16.779,19.276 C16.918,19.276 17.032,19.321 17.121,19.411 C17.213,19.502 17.256,19.617 17.256,19.758 L17.256,20.722 C17.256,20.863 17.213,20.978 17.121,21.069 ZM17.121,17.211 C17.032,17.303 16.918,17.348 16.779,17.348 L6.234,17.348 C6.091,17.348 5.977,17.303 5.888,17.211 C5.797,17.121 5.753,17.006 5.753,16.865 L5.753,15.901 C5.753,15.760 5.797,15.644 5.888,15.554 C5.977,15.464 6.091,15.418 6.234,15.418 L16.779,15.418 C16.918,15.418 17.032,15.464 17.121,15.554 C17.213,15.644 17.256,15.760 17.256,15.901 L17.256,16.865 C17.256,17.006 17.213,17.121 17.121,17.211 ZM17.121,13.355 C17.032,13.445 16.918,13.490 16.779,13.490 L6.234,13.490 C6.091,13.490 5.977,13.445 5.888,13.355 C5.797,13.264 5.753,13.149 5.753,13.008 L5.753,12.043 C5.753,11.902 5.797,11.788 5.888,11.698 C5.977,11.607 6.091,11.561 6.234,11.561 L16.779,11.561 C16.918,11.561 17.032,11.607 17.121,11.698 C17.213,11.788 17.256,11.902 17.256,12.043 L17.256,13.008 C17.256,13.149 17.213,13.264 17.121,13.355 Z"/>
</svg>