<svg 
 xmlns="http://www.w3.org/2000/svg"
 xmlns:xlink="http://www.w3.org/1999/xlink"
 width="56px" height="57px">
<path fill-rule="evenodd"  fill="rgb(179, 218, 245)"
 d="M55.798,25.877 C55.709,25.090 54.792,24.497 53.999,24.497 C51.433,24.497 49.157,22.990 48.202,20.658 C47.228,18.270 47.856,15.485 49.767,13.729 C50.370,13.179 50.443,12.256 49.938,11.616 C48.626,9.947 47.134,8.439 45.504,7.134 C44.866,6.620 43.929,6.691 43.376,7.305 C41.708,9.155 38.711,9.843 36.395,8.875 C33.985,7.860 32.464,5.415 32.614,2.791 C32.663,1.967 32.061,1.251 31.241,1.155 C29.149,0.912 27.039,0.905 24.942,1.138 C24.132,1.228 23.529,1.927 23.557,2.742 C23.648,5.341 22.110,7.742 19.724,8.721 C17.435,9.656 14.459,8.974 12.794,7.140 C12.245,6.537 11.323,6.462 10.682,6.963 C9.004,8.280 7.479,9.790 6.153,11.445 C5.637,12.088 5.713,13.022 6.320,13.573 C8.269,15.340 8.898,18.150 7.885,20.566 C6.920,22.869 4.531,24.353 1.795,24.353 C0.908,24.325 0.277,24.921 0.178,25.729 C-0.068,27.833 -0.070,29.979 0.166,32.101 C0.255,32.892 1.199,33.479 2.003,33.479 C4.440,33.418 6.780,34.926 7.762,37.319 C8.740,39.707 8.110,42.491 6.197,44.248 C5.597,44.798 5.521,45.718 6.027,46.358 C7.327,48.017 8.819,49.525 10.454,50.843 C11.095,51.360 12.029,51.288 12.585,50.674 C14.260,48.819 17.257,48.134 19.563,49.103 C21.979,50.116 23.499,52.560 23.351,55.185 C23.301,56.009 23.906,56.728 24.723,56.821 C25.794,56.947 26.870,57.009 27.949,57.009 C28.973,57.009 29.996,56.953 31.022,56.839 C31.834,56.749 32.434,56.049 32.407,55.235 C32.313,52.637 33.854,50.235 36.237,49.259 C38.541,48.317 41.504,49.007 43.170,50.837 C43.722,51.440 44.637,51.513 45.282,51.014 C46.956,49.699 48.479,48.192 49.810,46.533 C50.327,45.890 50.254,44.957 49.643,44.403 C47.694,42.637 47.063,39.826 48.074,37.413 C49.025,35.140 51.326,33.614 53.800,33.614 L54.146,33.624 C54.951,33.689 55.689,33.069 55.785,32.249 C56.033,30.143 56.036,27.999 55.798,25.877 ZM28.026,38.394 C22.878,38.394 18.690,34.202 18.690,29.048 C18.690,23.894 22.878,19.702 28.026,19.702 C33.176,19.702 37.363,23.894 37.363,29.048 C37.363,34.202 33.176,38.394 28.026,38.394 Z"/>
</svg>