<svg xmlns="http://www.w3.org/2000/svg" width="46" height="54">
    <path fill="#6856a0" fill-rule="evenodd" d="M31.068 2.992a6.348 6.348 0 0 0-1.055-.829v13.96h13.835a6.435 6.435 0 0 0-.822-1.064L31.068 2.992zm-3.986 16.089a2.75 2.75 0 0 1-.822-2.011V.982H2.813a2.7 2.7 0 0 0-1.992.826A2.754 2.754 0 0 0-.001 3.82v47.321c0 .788.275 1.459.822 2.012a2.701 2.701 0 0 0 1.992.827h39.393c.781 0 1.446-.276 1.993-.827a2.76 2.76 0 0 0 .822-2.012V19.909H29.076a2.701 2.701 0 0 1-1.994-.828zM33.5 42.356a.91.91 0 0 1-.673.267H12.193a.916.916 0 0 1-.675-.267.925.925 0 0 1-.262-.68v-1.893c0-.275.087-.501.262-.68a.914.914 0 0 1 .675-.265h20.634c.272 0 .498.088.673.265a.925.925 0 0 1 .264.68v1.893a.919.919 0 0 1-.264.68zm0-7.571a.906.906 0 0 1-.673.267H12.193a.912.912 0 0 1-.675-.267.924.924 0 0 1-.262-.679v-1.894c0-.276.087-.502.262-.679a.912.912 0 0 1 .675-.267h20.634a.906.906 0 0 1 .937.946v1.894a.918.918 0 0 1-.264.679zm0-7.571a.91.91 0 0 1-.673.267H12.193a.916.916 0 0 1-.675-.267.927.927 0 0 1-.262-.68V24.64c0-.276.087-.502.262-.679a.915.915 0 0 1 .675-.266h20.634c.272 0 .498.089.673.266a.918.918 0 0 1 .264.679v1.894a.92.92 0 0 1-.264.68z"/>
</svg>
