<svg 
 xmlns="http://www.w3.org/2000/svg"
 xmlns:xlink="http://www.w3.org/1999/xlink"
 width="70px" height="104px">
<path fill-rule="evenodd"  fill="#ff6533"
 d="M70.001,34.552 C70.001,15.469 54.329,0.000 34.999,0.000 C15.669,0.000 -0.001,15.469 -0.001,34.552 C-0.001,41.219 1.915,47.445 5.228,52.725 L34.409,103.999 L65.177,52.060 L65.177,52.060 C68.241,46.925 70.001,40.942 70.001,34.552 ZM34.999,16.927 C44.860,16.927 52.853,24.818 52.853,34.552 C52.853,44.286 44.860,52.176 34.999,52.176 C25.140,52.176 17.145,44.286 17.145,34.552 C17.145,24.818 25.140,16.927 34.999,16.927 Z"/>
</svg>