<svg xmlns="http://www.w3.org/2000/svg" viewBox="0 0 33 22"><title>canada</title><g id="Calque_2" data-name="Calque 2"><g id="Calque_1-2" data-name="Calque 1"><g id="Calque_2-2" data-name="Calque 2"><g id="Calque_1-2-2" data-name="Calque 1-2"><rect width="8.25" height="22" fill="red"/><rect x="24.75" width="8.25" height="22" fill="red"/><rect x="8.25" width="16.5" height="22" fill="#fff"/><path d="M16.5,4.12,15.38,6.2c-.12.23-.35.2-.59.08L14,5.87l.61,3.19c.12.58-.28.58-.49.33L12.67,7.81l-.23.81a.27.27,0,0,1-.32.19l-1.8-.37.47,1.69c.1.37.18.54-.1.64l-.64.3,3.09,2.44a.4.4,0,0,1,.14.42l-.27.88c1.06-.12,2-.3,3.09-.42.09,0,.26.15.25.25l-.14,3.22h.52l-.07-3.19c0-.11.14-.27.24-.26,1.06.11,2,.29,3.09.42l-.27-.88a.4.4,0,0,1,.14-.42l3.09-2.44-.67-.33c-.28-.1-.21-.25-.1-.64l.47-1.69-1.8.37a.27.27,0,0,1-.32-.19l-.23-.81L18.88,9.36c-.21.25-.61.25-.49-.33L19,5.84l-.82.42c-.23.12-.45.15-.59-.08Z" fill="red"/></g></g></g></g></svg>