<svg xmlns="http://www.w3.org/2000/svg" viewBox="0 0 33 22"><title>england</title><g id="Calque_2" data-name="Calque 2"><g id="Calque_1-2" data-name="Calque 1"><polygon points="18.5 0.2 14.5 0.2 4.4 0.2 4.4 8.3 4.4 13.7 4.4 21.8 14.5 21.8 18.5 21.8 28.6 21.8 28.6 13.7 28.6 8.3 28.6 0.2 18.5 0.2" fill="none"/><rect width="33" height="22" fill="#fff"/><polyline points="33 8.8 18.1 8.8 18.1 0 14.8 0 14.8 8.8 0 8.8 0 13.2 14.8 13.2 14.8 22 18.1 22 18.1 13.2 33 13.2" fill="#cf0f14"/><path d="M22,14.7h2.5L33,20.4V22M11,7.3H8.5L0,1.6V0Zm0,7.4h2.5L2.5,22H0ZM22,7.3H19.5L30.5,0H33Z" fill="#cf0f14"/><path d="M0,14.7v4.9l7.3-4.9m25.7,0v4.9l-7.3-4.9ZM0,7.3V2.5L7.3,7.4H0Zm33,0V2.5L25.7,7.4H33ZM13.7,22V15.3L3.7,22Zm5.5,0V15.3l10,6.7ZM13.7,0V6.7L3.7,0Zm5.5,0V6.7L29.2,0Z" fill="#001f7e"/></g></g></svg>