<svg xmlns="http://www.w3.org/2000/svg" viewBox="0 0 33 22"><title>haiti</title><g id="Calque_2" data-name="Calque 2"><g id="Calque_1-2" data-name="Calque 1"><g id="Calque_2-2" data-name="Calque 2"><g id="Calque_1-2-2" data-name="Calque 1-2"><rect width="33" height="22" fill="#d21034"/><rect width="33" height="11" fill="#00209f"/><g id="coa"><rect x="13" y="8.2" width="7" height="5.5" fill="#fff"/><path d="M17.9,12.2H15.1a4.05,4.05,0,0,1-1,.3c-.3.1-.3.2-.5.2a.37.37,0,0,0-.3.1.35.35,0,0,0-.2.1v.8h7V13c-.1,0-.1-.1-.2-.1s-.2-.1-.4-.1-.2-.1-.5-.2A4.87,4.87,0,0,1,17.9,12.2Z" fill="#016a16" stroke="#016a16" stroke-width="0.02"/><g id="flags"><g id="flags_half" data-name="flags half"><path d="M16.1,10.5h.1l.2.8v.2l-.3-1Z" fill="#f1b517" stroke="#000" stroke-width="0.02"/><path d="M16,10l.1.6h.1L16,10Z" fill="#fff" stroke="#000" stroke-width="0.02"/><path d="M16.2,11.3l-.3-.8H16l.4,1-.2-.2Z" fill="#f1b517" stroke="#000" stroke-width="0.02"/><path d="M15.7,10l.1.6h.1Z" fill="#fff" stroke="#000" stroke-width="0.02"/><path d="M15.9,11l-.2-.4h.1l.3.7-.2-.3Z" fill="#f1b517" stroke="#000" stroke-width="0.02"/><path d="M15.5,10.2l.2.6h.1Z" fill="#fff" stroke="#000" stroke-width="0.02"/><path d="M15.9,11.1l-.8-.9a.73.73,0,0,0-.2.6l1,.7v-.4Z" fill="#0a328c" stroke="#000" stroke-width="0.02"/><path d="M16.4,11.6l-.6-.6c-.3,0-.1.4,0,.4l.7.6v-.4Z" fill="#d20014" stroke="#000" stroke-width="0.02"/><path d="M16.4,11.5l-1.3-1.4h0l1.4,1.5-.1-.1Z" fill="#f1b517" stroke="#000" stroke-width="0.02"/><path d="M15,10h0l-.3-.3.1.3Z" fill="#f1b517" stroke="#000" stroke-width="0.02"/><path d="M14.9,10.1,15,10l.1.1-.1.1Z" fill="#f1b517" stroke="#000" stroke-width="0.02"/><path d="M14.7,10.4h0l.3-.2h.2l.1-.1c-.1-.1-.2-.1-.2,0h0l-.4.3Z" fill="#0a328c" stroke="#0a328c" stroke-width="0.02"/><path d="M14.9,10.5a.22.22,0,0,1,.2-.2c.1,0,.2.1.3-.1-.1.1-.3,0-.3,0H15l-.2.2.1.1Z" fill="#d20014" stroke="#d20014" stroke-width="0.02"/><path d="M15.6,11.3l-1.1-.8c-.2.2,0,.7,0,.7l1,.6.1-.5Z" fill="#0a328c" stroke="#000" stroke-width="0.02"/><path d="M16.4,12l-.9-.7c-.3,0-.1.5,0,.5l.9.5Z" fill="#d20014" stroke="#000" stroke-width="0.02"/><path d="M16.4,11.9l-1.9-1.4h0l2,1.5-.1-.1Z" fill="#f1b517" stroke="#000" stroke-width="0.02"/><path d="M14.4,10.4h0l-.3-.2.2.2Z" fill="#f1b517" stroke="#000" stroke-width="0.02"/><path d="M14.3,10.5c0-.1.1-.1.2-.2l.1.1-.1.2A.35.35,0,0,1,14.3,10.5Z" fill="#f1b517" stroke="#000" stroke-width="0.02"/><path d="M14.2,10.8h0l.3-.2h.2v-.1c-.1-.2-.3,0-.3,0l-.2.3Z" fill="#0a328c" stroke="#0a328c" stroke-width="0.02"/><path d="M14.3,10.9a.37.37,0,0,1,.1-.3c.1,0,.2.1.3-.2-.1.1-.3,0-.3,0l-.1.1h0l-.2.2.2.2Z" fill="#d20014" stroke="#d20014" stroke-width="0.02"/><path d="M15.5,11.9l-1.4-.8a.3.3,0,0,0,0,.4v.4a.76.76,0,0,0,.2.4c.1.5.6.5.8.1l.4-.5Z" fill="#0a328c" stroke="#000" stroke-width="0.02"/><path d="M16.4,12.4l-.9-.5c-.3,0,0,.6,0,.6l.9.3v-.4Z" fill="#d20014" stroke="#000" stroke-width="0.02"/><path d="M16.2,12.2l-2.1-1.1h0l2.2,1.2-.1-.1Z" fill="#f1b517" stroke="#000" stroke-width="0.02"/><path d="M14,11h0l-.3-.1.2.2L14,11Z" fill="#f1b517" stroke="#000" stroke-width="0.02"/><path d="M13.9,11.1c0-.1.1-.1.1-.2l.1.1-.1.2-.1-.1Z" fill="#f1b517" stroke="#000" stroke-width="0.02"/><path d="M13.8,11.4h0l.3-.2.2-.1V11c-.1-.1-.3.1-.3.1l-.2.3Z" fill="#0a328c" stroke="#0a328c" stroke-width="0.02"/><path d="M14,11.5v-.3c.1,0,.2,0,.2-.2a.31.31,0,0,1-.2.1v.1h0l-.2.3Z" fill="#d20014" stroke="#d20014" stroke-width="0.02"/></g><g id="flags_half-2" data-name="flags half-2"><path d="M16.9,10.5h-.1l-.2.8v.2l.3-1Z" fill="#f1b517" stroke="#000" stroke-width="0.02"/><path d="M17,10l-.1.6h-.1L17,10Z" fill="#fff" stroke="#000" stroke-width="0.02"/><path d="M16.8,11.3l.3-.8H17l-.4,1,.2-.2Z" fill="#f1b517" stroke="#000" stroke-width="0.02"/><path d="M17.3,10l-.1.6H17Z" fill="#fff" stroke="#000" stroke-width="0.02"/><path d="M17.1,11l.2-.4h-.1l-.3.7.2-.3Z" fill="#f1b517" stroke="#000" stroke-width="0.02"/><path d="M17.5,10.2l-.2.6h-.1Z" fill="#fff" stroke="#000" stroke-width="0.02"/><path d="M17.1,11.1l.8-.9a.73.73,0,0,1,.2.6l-1,.7v-.4Z" fill="#0a328c" stroke="#000" stroke-width="0.02"/><path d="M16.6,11.6l.6-.6c.3,0,.1.4,0,.4l-.6.6Z" fill="#d20014" stroke="#000" stroke-width="0.02"/><path d="M16.6,11.5l1.3-1.4h0l-1.4,1.5.1-.1Z" fill="#f1b517" stroke="#000" stroke-width="0.02"/><path d="M18,10h0l.3-.2-.1.3L18,10Z" fill="#f1b517" stroke="#000" stroke-width="0.02"/><path d="M18.1,10.1,18,10l-.1.1.2.1Z" fill="#f1b517" stroke="#000" stroke-width="0.02"/><path d="M18.3,10.4h0l-.3-.2h-.2l-.1-.1c.1-.1.2-.1.2,0h0l.4.3Z" fill="#0a328c" stroke="#0a328c" stroke-width="0.02"/><path d="M18.1,10.5a.22.22,0,0,0-.2-.2c-.1,0-.2.1-.3-.1.1.1.3,0,.3,0l.1.1h0l.2.2Z" fill="#d20014" stroke="#d20014" stroke-width="0.02"/><path d="M17.4,11.3l1.1-.8c.2.2,0,.7,0,.7l-1,.6-.1-.5Z" fill="#0a328c" stroke="#000" stroke-width="0.02"/><path d="M16.5,12l.9-.7c.3,0,.1.5,0,.5l-.9.5Z" fill="#d20014" stroke="#000" stroke-width="0.02"/><path d="M16.6,11.9l1.9-1.4h0l-2,1.5.1-.1Z" fill="#f1b517" stroke="#000" stroke-width="0.02"/><path d="M18.6,10.4h0l.3-.2-.2.2Z" fill="#f1b517" stroke="#000" stroke-width="0.02"/><path d="M18.7,10.5c0-.1-.1-.1-.2-.2l-.1.1.1.2A.35.35,0,0,0,18.7,10.5Z" fill="#f1b517" stroke="#000" stroke-width="0.02"/><path d="M18.8,10.8h0l-.3-.2h-.2v-.1c.1-.2.3,0,.3,0l.2.3Z" fill="#0a328c" stroke="#0a328c" stroke-width="0.02"/><path d="M18.6,10.9a.37.37,0,0,0-.1-.3c-.1,0-.2.1-.3-.2.1.1.3,0,.3,0l.1.1h0l.2.2-.2.2Z" fill="#d20014" stroke="#d20014" stroke-width="0.02"/><path d="M17.5,11.9l1.4-.8a.3.3,0,0,1,0,.4v.4a.76.76,0,0,1-.2.4c-.1.5-.6.5-.8.1l-.4-.5Z" fill="#0a328c" stroke="#000" stroke-width="0.02"/><path d="M16.6,12.4l.9-.5c.3,0,0,.6,0,.6l-.9.3v-.4Z" fill="#d20014" stroke="#000" stroke-width="0.02"/><path d="M16.8,12.2l2.1-1.1h0l-2.2,1.2.1-.1Z" fill="#f1b517" stroke="#000" stroke-width="0.02"/><path d="M19,11h0l.3-.1-.2.2L19,11Z" fill="#f1b517" stroke="#000" stroke-width="0.02"/><path d="M19.1,11.1c0-.1-.1-.1-.1-.2l-.1.1.2.1Z" fill="#f1b517" stroke="#000" stroke-width="0.02"/><path d="M19.2,11.4h0l-.3-.2-.2-.1V11c.1-.1.3.1.3.1l.2.3Z" fill="#0a328c" stroke="#0a328c" stroke-width="0.02"/><path d="M19,11.5v-.3c-.1,0-.2,0-.2-.2a.31.31,0,0,0,.2.1v.1h0l.2.3Z" fill="#d20014" stroke="#d20014" stroke-width="0.02"/></g></g><g id="tree"><path d="M16.4,9.2v.7h.2V9.2h.2V9h-.6v.2Z" fill="#016a16" stroke="#016a16" stroke-width="0.02"/><g id="tree_half" data-name="tree half"><path d="M16.5,9c-.6-.6-1-.3-1.1-.2h.2l-.1.1c.1,0,.1-.1.2-.1l-.1.1.1-.1v.1h.1a.76.76,0,0,1,.4.2" fill="#016a16" stroke="#000" stroke-width="0.02"/><path d="M16.3,9c-.1-.1-1.2-.4-1.4,0h.2v.1l.1-.1v.1l.1-.1v.1l.1-.2V9l.1-.1V9" fill="#016a16" stroke="#000" stroke-width="0.02"/><path d="M16.3,9.1a.88.88,0,0,0-.7-.1c-.3.2-.4.1-.5.4l.1-.1.1.1v0l.1-.2v.1l.1-.1h0v0h.1l.1-.1v.1l.1-.1v.1l.1-.1h.2" fill="#016a16" stroke="#000" stroke-width="0.02"/><path d="M16.2,9.1a1.49,1.49,0,0,0-.9.4h.1v.1c0-.1,0-.1.1,0V9.5l.1-.2v.1h0V9.3h.1l.2-.2" fill="#016a16" stroke="#000" stroke-width="0.02"/><path d="M16.3,9.1c-.3.1-.4.3-.5.6.1-.1.1-.1.1,0V9.6h0V9.5h0V9.4s-.1,0,0-.1h0V9.2l.4-.1" fill="#016a16" stroke="#000" stroke-width="0.02"/><path d="M16.3,9.2l-.1.2h0l-.1.1h.1c-.1,0-.1.1-.2.2l.1-.1c-.1.1-.1.1-.1.2l.1-.1c-.1.1-.1.1-.1.2l.1-.1a.37.37,0,0,0,.1.3V9.9l.2.2-.1-.2s.1.2.2.1l-.1-.2.1.1-.1-.2h.1a.35.35,0,0,1-.1-.2l.1.1V9.5h0l-.1-.1h.1V9.3h0V9.2" fill="#016a16" stroke="#000" stroke-width="0.02"/><path d="M16.4,9.2c-.2.2-.1.6-.2.7" fill="#016a16" stroke="#000" stroke-width="0.02"/></g><g id="tree_half-2" data-name="tree half-2"><path d="M16.5,9c.6-.6,1-.3,1.1-.2h-.2l.1.1c-.1,0-.1-.1-.2-.1l.1.1-.1-.1v.1h-.1a.76.76,0,0,0-.4.2" fill="#016a16" stroke="#000" stroke-width="0.02"/><path d="M16.6,9c.1-.1,1.2-.4,1.4,0h-.1v.1L17.7,9v.1L17.5,9v.1L17.4,9h0" fill="#016a16" stroke="#000" stroke-width="0.02"/><path d="M16.7,9.1a.88.88,0,0,1,.7-.1c.3.2.4.1.5.4l-.1-.1-.1.1v0l-.1-.2v.1l-.1-.1h0v0h-.1l-.1-.1v.1l-.1-.1v.1L17,9.1h-.2" fill="#016a16" stroke="#000" stroke-width="0.02"/><path d="M16.8,9.1a1.49,1.49,0,0,1,.9.4h-.1v.1c0-.1,0-.1-.1,0V9.5l-.1-.2v.1h0V9.3h-.1L17,9.2" fill="#016a16" stroke="#000" stroke-width="0.02"/><path d="M16.7,9.1c.3.1.4.3.5.6-.1-.1-.1-.1-.1,0V9.6h0V9.5h0V9.4s.1,0,0-.1h0V9.2l-.4-.1" fill="#016a16" stroke="#000" stroke-width="0.02"/><path d="M16.7,9.2l.1.2h0l.1.1h-.1c.1,0,.1.1.2.2l-.1-.1c.1.1.1.1.1.2l-.1-.1c.1.1.1.1.1.2l-.1-.1a.37.37,0,0,1-.1.3V9.9l-.2.2.1-.2s-.1.2-.2.1l.1-.2-.1.1.1-.2h-.1a.35.35,0,0,0,.1-.2l-.1.1V9.5h0l.1-.1h-.1V9.3h0V9.2" fill="#016a16" stroke="#000" stroke-width="0.02"/><path d="M16.6,9.2c.2.2.1.6.2.7" fill="#016a16" stroke="#000" stroke-width="0.02"/></g><g id="trunk"><path d="M16.6,12.2s.1-.7.1-1a5.38,5.38,0,0,0-.1-.8h-.3v.8c0,.3.1,1,.1,1Z" fill="#f1b517" stroke="#000" stroke-width="0.02"/><path d="M16.3,10.4h.3v-.2h-.2Z" fill="#f1b517" stroke="#000" stroke-width="0.02"/><path d="M16.3,10.3h.3v-.2h-.2Z" fill="#f1b517" stroke="#000" stroke-width="0.02"/><path d="M16.4,10.1h.2V9.9h-.1Z" fill="#f1b517" stroke="#000" stroke-width="0.02"/><path d="M16.5,9.9h-.2V10l.2-.1Z" fill="#f1b517" stroke="#000" stroke-width="0.02"/><path d="M16.6,12.1h-.2" fill="#f1b517" stroke="#000" stroke-width="0.02"/><path d="M16.6,11.9h-.2" fill="#f1b517" stroke="#000" stroke-width="0.02"/><path d="M16.6,11.8h-.3" fill="#f1b517" stroke="#000" stroke-width="0.02"/><path d="M16.6,11.6h-.3" fill="#f1b517" stroke="#000" stroke-width="0.02"/><path d="M16.6,11.4h-.3" fill="#f1b517" stroke="#000" stroke-width="0.02"/><path d="M16.6,11.3h-.3" fill="#f1b517" stroke="#000" stroke-width="0.02"/><path d="M16.6,11.2h-.3" fill="#f1b517" stroke="#000" stroke-width="0.02"/><path d="M16.6,11h-.3" fill="#f1b517" stroke="#000" stroke-width="0.02"/><path d="M16.6,10.9h-.3" fill="#f1b517" stroke="#000" stroke-width="0.02"/><path d="M16.6,10.7h-.3" fill="#f1b517" stroke="#000" stroke-width="0.02"/><path d="M16.6,10.6h-.3" fill="#f1b517" stroke="#000" stroke-width="0.02"/></g><g id="cap"><path d="M16.5,8.7s-.2-.1-.1-.1V8.5c.1-.2,0-.1,0-.2s.3,0,.3.1v.2l-.1.1C16.6,8.8,16.5,8.7,16.5,8.7Z" fill="#0a328c" stroke="#0a328c" stroke-width="0.02"/><path d="M16.5,9.2h0l-.1-.6h.1Z" fill="#f1b517" stroke="#000" stroke-width="0.02"/><path d="M16.6,8.7c.1,0,.1-.1,0-.2s-.1-.1-.2-.1a.1.1,0,0,0-.1.1c.2.1.1,0,.2,0A.31.31,0,0,1,16.6,8.7Z" fill="#d20014" stroke="#d20014" stroke-width="0.02"/></g></g><g id="items"><g id="i1"><path id="ip" d="M15.7,11.7a.19.19,0,0,0-.3,0h0a.35.35,0,0,1,.2-.1.1.1,0,0,1,.1.1Z" fill="#016a16" stroke="#fff" stroke-linecap="round" stroke-width="0.02"/><path d="M15.7,11.9c0,.1,0,.1-.1.2s-.2,0-.2-.1v-.2l.3.1Z" fill="#016a16" stroke="#fff" stroke-linecap="round" stroke-width="0.02"/><circle cx="15.5" cy="11.7" r="0.1" fill="#fff"/><path d="M15.5,11.8v-.2h.1l-.1.2Z" fill="#016a16" stroke="#f1b517" stroke-width="0.02"/><path id="ip-2" d="M15.7,11.7a.19.19,0,0,1-.3,0h0a.35.35,0,0,0,.2.1c.1,0,.1,0,.1-.1Z" fill="#016a16" stroke="#fff" stroke-linecap="round" stroke-width="0.02"/></g><g id="items_half" data-name="items half"><path id="cannon_base" data-name="cannon base" d="M16.2,12.7l-.5-.2-.2-.4h-.8v.3l.7.1.1.1.8.2v-.1Z" fill="#f1b517" stroke="#000" stroke-width="0.02"/><g id="i2"><path d="M15.7,12.8l-.8-1.2h0l.8,1.2Z" fill="#503200" stroke="#000" stroke-width="0.02"/><path d="M14.9,11.6l-.1-.1h-.1v.1h.2Z" fill="#fff" stroke="#000" stroke-width="0.02"/></g><g id="cannon"><path d="M15.8,12l-1.7-.2V12l1.7.2V12Z" fill="#f1b517" stroke="#000" stroke-width="0.02"/><path d="M14,11.8v.3h.1v-.3Z" fill="#f1b517" stroke="#000" stroke-width="0.02"/><path d="M14.3,11.9v.3h0v-.3Z" fill="#f1b517" stroke="#000" stroke-width="0.02"/><path d="M15.5,12v.3h.1l-.1-.3Z" fill="#f1b517" stroke="#000" stroke-width="0.02"/><path d="M15.7,12l-.1.3h.1v-.2l.1.1.1-.1a.1.1,0,0,0-.1-.1h-.1Z" fill="#f1b517" stroke="#000" stroke-width="0.02"/><path d="M15.1,12.1l-.3.3h0l.3-.3Z" fill="#f1b517" stroke="#000" stroke-width="0.02"/><path d="M14.6,12.7l.2-.3h0l-.2.3Z" fill="#f1b517" stroke="#000" stroke-width="0.02"/><path d="M15.2,12.6l-.3-.2h0l.3.2Z" fill="#f1b517" stroke="#000" stroke-width="0.02"/><path d="M14.5,12.1l.3.2h0l-.3-.2Z" fill="#f1b517" stroke="#000" stroke-width="0.02"/><path d="M14.8,12v.3h0V12Z" fill="#f1b517" stroke="#000" stroke-width="0.02"/><path d="M14.9,12.8v-.3h0v.3Z" fill="#f1b517" stroke="#000" stroke-width="0.02"/><path d="M15.3,12.3h0Z" fill="#f1b517" stroke="#000" stroke-width="0.02"/><path d="M14.4,12.4l.3-.1h0l-.3.1Z" fill="#f1b517" stroke="#000" stroke-width="0.02"/><circle cx="14.8" cy="12.4" r="0.1" fill="#f1b517" stroke="#000" stroke-width="0.02"/><path d="M15.3,12.4a.5.5,0,1,1-.5-.5h0a.47.47,0,0,1,.5.5Zm-.1,0a.4.4,0,1,1-.4-.4h0C15.1,12,15.2,12.1,15.2,12.4Z" fill="#f1b517" stroke="#000" stroke-linecap="round" stroke-width="0.02"/><path d="M14.5,12.1h0" fill="#f1b517" stroke="#000" stroke-width="0.02"/><path d="M15.1,12.1h0" fill="#f1b517" stroke="#000" stroke-width="0.02"/><path d="M15.2,12.7h0" fill="#f1b517" stroke="#000" stroke-width="0.02"/><path d="M14.5,12.7h0" fill="#f1b517" stroke="#000" stroke-width="0.02"/></g><g id="axe"><path d="M16.2,11.9l.1.4h-.1v-.4Z" fill="#f1b517" stroke="#000" stroke-width="0.02"/><path d="M16.2,11.8a.31.31,0,0,1-.2-.1c-.1.1,0,.1,0,.3s.1-.1.2-.2l.2.1v-.1Z" fill="#fff" stroke="#000" stroke-width="0.02"/><path d="M16.2,11.9v-.1h-.1l.1.1Z" fill="#fff" stroke="#000" stroke-width="0.02"/></g><path id="bugle" d="M15.8,12.3v.6h-.1a.1.1,0,0,0,.1.1h.1a.1.1,0,0,0,.1-.1h-.1v-.1H16a.1.1,0,0,0,.1-.1v-.2c0-.1,0-.1-.1-.1s-.1,0-.2-.1Zm.1.2h-.1v.1a.1.1,0,0,0,.1.1c.1,0,0,0,0-.1Z" fill="#f1b517" stroke="#000" stroke-width="0.02"/><g id="i3"><path d="M15.3,12.6h0c0,.1.1.2,0,.2h-.2a.22.22,0,0,0,.2.2h.1c.1-.1.2-.3-.1-.4Z" fill="#fff" stroke="#000" stroke-width="0.02"/><path d="M15.4,12.7h0" fill="#fff" stroke="#000" stroke-width="0.02"/></g><g id="small_flag" data-name="small flag"><path d="M13.9,12.7l-.1-.3" fill="#f1b517" stroke="#000" stroke-width="0.02"/><path d="M14,12.7l-.1-.2" fill="#f1b517" stroke="#000" stroke-width="0.02"/><path d="M14.2,12.6l-.2-.1" fill="#f1b517" stroke="#000" stroke-width="0.02"/><path d="M14.3,12.6l-.5-.2" fill="#f1b517" stroke="#000" stroke-width="0.02"/><path d="M13.5,12.2h-.2v.1s-.3.1-.3,0l.3-.1v-.1l.1-.1.1.2Z" fill="#d20014" stroke="#d20014" stroke-width="0.02"/><path d="M13.8,12.3l-.4-.3h0l.4.3Z" fill="#503200" stroke="#000" stroke-width="0.02"/><path d="M14.1,12.6l-.3-.3v-.1h-.1v.1h.1l.3.3Z" fill="#f1b517" stroke="#000" stroke-width="0.02"/></g><g id="cannonballs"><circle cx="15.2" cy="13" r="0.1" fill="#f1b517" stroke="#000" stroke-width="0.02"/><circle cx="15.1" cy="12.9" r="0.1" fill="#f1b517" stroke="#000" stroke-width="0.02"/><circle cx="14.9" cy="12.9" r="0.1" fill="#f1b517" stroke="#000" stroke-width="0.02"/><circle cx="14.6" cy="13" r="0.1" fill="#f1b517" stroke="#000" stroke-width="0.02"/><circle cx="14.5" cy="13" r="0.1" fill="#f1b517" stroke="#000" stroke-width="0.02"/><circle cx="14.3" cy="13" r="0.1" fill="#f1b517" stroke="#000" stroke-width="0.02"/><circle cx="14.2" cy="13" r="0.1" fill="#f1b517" stroke="#000" stroke-width="0.02"/><circle cx="14.3" cy="12.9" r="0.1" fill="#f1b517" stroke="#000" stroke-width="0.02"/><circle cx="14.4" cy="12.9" r="0.1" fill="#f1b517" stroke="#000" stroke-width="0.02"/><circle cx="14.5" cy="12.9" r="0.1" fill="#f1b517" stroke="#000" stroke-width="0.02"/><circle cx="14.4" cy="12.8" r="0.1" fill="#f1b517" stroke="#000" stroke-width="0.02"/><circle cx="14.3" cy="12.8" r="0.1" fill="#f1b517" stroke="#000" stroke-width="0.02"/></g><path id="chain" d="M15.5,13h.1s.1-.1.1,0h-.2c.1.1,0,.1,0,0Zm.1,0Zm.1,0Zm.3,0Zm.2,0Zm-.1,0Zm.2,0Z" fill="#f1b517" stroke="#000" stroke-width="0.02"/></g><g id="items_half-2" data-name="items half-2"><path id="cannon_base-2" data-name="cannon base-2" d="M16.8,12.7l.5-.2.2-.4h.8v.3l-.7.1-.1.1-.8.2v-.1Z" fill="#f1b517" stroke="#000" stroke-width="0.02"/><g id="i2-2"><path d="M17.3,12.8l.8-1.2h0l-.8,1.2Z" fill="#503200" stroke="#000" stroke-width="0.02"/><path d="M18.1,11.6l.1-.1h.1v.1h-.2Z" fill="#fff" stroke="#000" stroke-width="0.02"/></g><g id="cannon-2"><path d="M17.2,12l1.6-.2V12l-1.6.2V12Z" fill="#f1b517" stroke="#000" stroke-width="0.02"/><path d="M18.9,11.8v.3h-.1l.1-.3Z" fill="#f1b517" stroke="#000" stroke-width="0.02"/><path d="M18.7,11.9v.3h0v-.3Z" fill="#f1b517" stroke="#000" stroke-width="0.02"/><path d="M17.5,12v.3h-.1l.1-.3Z" fill="#f1b517" stroke="#000" stroke-width="0.02"/><path d="M17.3,12l.1.3h-.1v-.2l-.1.1-.1-.1a.1.1,0,0,1,.1-.1h.1Z" fill="#f1b517" stroke="#000" stroke-width="0.02"/><path d="M17.9,12.1l.2.3h0l-.2-.3Z" fill="#f1b517" stroke="#000" stroke-width="0.02"/><path d="M18.4,12.7l-.3-.3h0l.3.3Z" fill="#f1b517" stroke="#000" stroke-width="0.02"/><path d="M17.8,12.6l.3-.2h0l-.3.2Z" fill="#f1b517" stroke="#000" stroke-width="0.02"/><path d="M18.5,12.1l-.3.2h0l.3-.2Z" fill="#f1b517" stroke="#000" stroke-width="0.02"/><path d="M18.1,12v.3h0V12Z" fill="#f1b517" stroke="#000" stroke-width="0.02"/><path d="M18.1,12.8v-.3h0v.3Z" fill="#f1b517" stroke="#000" stroke-width="0.02"/><path d="M17.7,12.3h0Z" fill="#f1b517" stroke="#000" stroke-width="0.02"/><path d="M18.6,12.4l-.3-.1h0l.3.1Z" fill="#f1b517" stroke="#000" stroke-width="0.02"/><circle cx="18.1" cy="12.4" r="0.1" fill="#f1b517" stroke="#000" stroke-width="0.02"/><path d="M17.6,12.4a.5.5,0,1,0,.5-.5h0c-.2,0-.4.2-.5.5Zm.1,0a.4.4,0,1,0,.4-.4h0c-.2,0-.3.1-.4.4Z" fill="#f1b517" stroke="#000" stroke-linecap="round" stroke-width="0.02"/><path d="M18.5,12.1h0" fill="#f1b517" stroke="#000" stroke-width="0.02"/><path d="M17.9,12.1h0" fill="#f1b517" stroke="#000" stroke-width="0.02"/><path d="M17.8,12.7h0" fill="#f1b517" stroke="#000" stroke-width="0.02"/><path d="M18.5,12.7h0" fill="#f1b517" stroke="#000" stroke-width="0.02"/></g><g id="axe-2"><path d="M16.8,11.9l-.1.4h.1v-.4Z" fill="#f1b517" stroke="#000" stroke-width="0.02"/><path d="M16.8,11.8a.31.31,0,0,0,.2-.1c.1.1,0,.1,0,.3s-.1-.1-.2-.2l-.2.1v-.1Z" fill="#fff" stroke="#000" stroke-width="0.02"/><path d="M16.8,11.9v-.1h.1l-.1.1Z" fill="#fff" stroke="#000" stroke-width="0.02"/></g><path id="bugle-2" d="M17.2,12.3v.6h.1a.1.1,0,0,1-.1.1h-.1a.1.1,0,0,1-.1-.1h.1v-.1H17a.1.1,0,0,1-.1-.1v-.2c0-.1,0-.1.1-.1s.1,0,.2-.1Zm-.1.2h.1v.1a.1.1,0,0,1-.1.1c-.1,0,0,0,0-.1Z" fill="#f1b517" stroke="#000" stroke-width="0.02"/><g id="i3-2"><path d="M17.7,12.6h0c0,.1-.1.2,0,.2h.2a.22.22,0,0,1-.2.2h-.1c-.2-.1-.2-.3.1-.4Z" fill="#fff" stroke="#000" stroke-width="0.02"/><path d="M17.6,12.7h0" fill="#fff" stroke="#000" stroke-width="0.02"/></g><g id="small_flag-2" data-name="small flag-2"><path d="M19.1,12.7l.1-.3" fill="#f1b517" stroke="#000" stroke-width="0.02"/><path d="M19,12.7l.1-.2" fill="#f1b517" stroke="#000" stroke-width="0.02"/><path d="M18.8,12.6l.2-.1" fill="#f1b517" stroke="#000" stroke-width="0.02"/><path d="M18.7,12.6l.5-.2" fill="#f1b517" stroke="#000" stroke-width="0.02"/><path d="M19.4,12.2h.2v.1s.3.1.3,0l-.3-.1v-.1l-.1-.1-.1.2Z" fill="#d20014" stroke="#d20014" stroke-width="0.02"/><path d="M19.2,12.3l.4-.3h0l-.4.3Z" fill="#503200" stroke="#000" stroke-width="0.02"/><path d="M18.9,12.6l.3-.3v-.1h.1v.1h-.1l-.3.3Z" fill="#f1b517" stroke="#000" stroke-width="0.02"/></g><g id="cannonballs-2"><circle cx="17.8" cy="13" r="0.1" fill="#f1b517" stroke="#000" stroke-width="0.02"/><circle cx="17.9" cy="12.9" r="0.1" fill="#f1b517" stroke="#000" stroke-width="0.02"/><circle cx="18.1" cy="12.9" r="0.1" fill="#f1b517" stroke="#000" stroke-width="0.02"/><circle cx="18.4" cy="13" r="0.1" fill="#f1b517" stroke="#000" stroke-width="0.02"/><circle cx="18.5" cy="13" r="0.1" fill="#f1b517" stroke="#000" stroke-width="0.02"/><circle cx="18.7" cy="13" r="0.1" fill="#f1b517" stroke="#000" stroke-width="0.02"/><circle cx="18.8" cy="13" r="0.1" fill="#f1b517" stroke="#000" stroke-width="0.02"/><circle cx="18.7" cy="12.9" r="0.1" fill="#f1b517" stroke="#000" stroke-width="0.02"/><circle cx="18.6" cy="12.9" r="0.1" fill="#f1b517" stroke="#000" stroke-width="0.02"/><circle cx="18.5" cy="12.9" r="0.1" fill="#f1b517" stroke="#000" stroke-width="0.02"/><circle cx="18.5" cy="12.8" r="0.1" fill="#f1b517" stroke="#000" stroke-width="0.02"/><circle cx="18.7" cy="12.8" r="0.1" fill="#f1b517" stroke="#000" stroke-width="0.02"/></g><path id="chain-2" d="M17.5,13h-.1s-.1-.1-.1,0h.2c-.2.1-.1.1,0,0Zm-.1,0Zm-.2,0ZM17,13Zm-.1,0Z" fill="#f1b517" stroke="#000" stroke-width="0.02"/></g><g id="drum"><path d="M16.5,12.1c-.2,0-.3.1-.3.2h0a.5.5,0,0,0,.6,0h0c0-.1-.1-.2-.3-.2Z" fill="#0a328c" stroke="#0a328c" stroke-width="0.02"/><path d="M16.8,12.3v.5c0,.1-.1.1-.3.1s-.3,0-.3-.1v-.5c0,.1.1.1.3.1S16.8,12.4,16.8,12.3Z" fill="#f1b517" stroke="#000" stroke-width="0.02"/><path d="M16.2,12.3h0l.2.6.1-.4.1.4.1-.4.1.3v-.1l-.1-.2h0l-.1.3-.1-.3h0l-.1.3-.2-.5Z" fill="#d20014" stroke="#d20014" stroke-width="0.02"/><path d="M16.8,12.7h0c0,.2-.1.2-.3.2s-.3,0-.3-.1v-.1c0,.1.1.1.3.1S16.8,12.8,16.8,12.7Z" fill="#0a328c" stroke="#0a328c" stroke-width="0.02"/><path d="M16.6,12.8h-.1v.1l.1-.1Z" fill="#f1b517" stroke="#000" stroke-width="0.02"/><path d="M16.3,12.8Z" fill="#f1b517" stroke="#000" stroke-width="0.02"/><path d="M16.2,12.7h0v0Z" fill="#f1b517" stroke="#000" stroke-width="0.02"/><path d="M16.8,12.8h0l-.1.2c.1-.1.1-.1.1-.2Z" fill="#f1b517" stroke="#000" stroke-width="0.02"/><path d="M16.8,12.3v.5c0,.1-.1.1-.3.1s-.3,0-.3-.1v-.5" fill="none" stroke="#000" stroke-width="0.02"/><path d="M16.8,12.3a.44.44,0,0,1-.3.1c-.1,0-.3,0-.3-.1s.1-.1.3-.1S16.8,12.2,16.8,12.3Z" fill="#fff" stroke="#fff" stroke-width="0.02"/><path d="M16.4,12.3Z" fill="#f1b517" stroke="#000" stroke-width="0.02"/><path d="M16.7,12.3Z" fill="#f1b517" stroke="#000" stroke-width="0.02"/><path d="M16.3,12.2Z" fill="#f1b517" stroke="#000" stroke-width="0.02"/><path d="M16.5,12.1Z" fill="#f1b517" stroke="#000" stroke-width="0.02"/><path d="M16.7,12.2Z" fill="#f1b517" stroke="#000" stroke-width="0.02"/><path d="M16.2,12.4Z" fill="#f1b517" stroke="#000" stroke-width="0.02"/><path d="M16.8,12.4Z" fill="#f1b517" stroke="#000" stroke-width="0.02"/></g><g id="helmet"><path d="M17.5,11.7a.22.22,0,0,1,.2.2.1.1,0,0,1-.1.1l-.1.1c-.1,0,0-.1,0-.1v-.3Z" fill="#f1b517" stroke="#000" stroke-width="0.02"/><path d="M17.4,12h.1" fill="#f1b517" stroke="#000" stroke-width="0.02"/><path d="M17.5,11.8v-.1h-.1a.1.1,0,0,0-.1.1h.1s.1-.1.1,0c0-.1.1,0,0,0Z" fill="#d20014" stroke="#f1b517" stroke-width="0.02"/></g><path id="anchor" d="M13.8,12.8s-.1.1,0,.1c-.2.1-.4.1-.6.2l.1-.1v.1a.35.35,0,0,1,.1-.2.37.37,0,0,0-.3.1h.1l-.2.2c0,.1.3.1.3.1a.1.1,0,0,0-.1.1.37.37,0,0,0,.3-.1c-.1,0-.2,0-.2-.1v.1c-.1,0-.1,0-.2-.1l.5-.1a.1.1,0,0,0,.1.1v-.1h0a.1.1,0,0,0,.1-.1c.2-.1.2-.1,0-.2.1,0,.1.1,0,0,.1.1.1,0,0,0Z" fill="#f1b517" stroke="#000" stroke-width="0.02"/><g id="i4"><path d="M19.7,13v-.2h-.1a.37.37,0,0,0-.1-.3l.3.3h-.1a.35.35,0,0,0,.1.2.1.1,0,0,0-.1.1h-.1V13l-.6-.2a.1.1,0,0,1-.1-.1c0-.1.1,0,.2,0l.6.3Z" fill="#f1b517" stroke="#000" stroke-width="0.02"/><path d="M19.1,12.9l.1-.1s0-.1-.1,0v.1Z" fill="#f1b517" stroke="#000" stroke-width="0.02"/></g></g><g id="motto"><path d="M15.1,13.2v-.1h-.2v.1Z" fill="#fff" stroke="#000" stroke-width="0.02"/><path d="M13.9,13.4l-.2-.1a3,3,0,0,0,1.3-.2c.1,0,.2.1-.1.1l.1.2a1.91,1.91,0,0,1-1.3.2l.2-.2Z" fill="#fff" stroke="#000" stroke-width="0.02"/><path d="M17.9,13.2v-.1h.2v.1Z" fill="#fff" stroke="#000" stroke-width="0.02"/><path d="M19.1,13.4l.2-.1c-1,0-.8-.2-1.3-.2-.1,0-.2.2.1.1l-.1.1h.1a1.47,1.47,0,0,0,1.1.2l-.1-.1Z" fill="#fff" stroke="#000" stroke-width="0.02"/><path d="M14.9,13.1v.2a4.4,4.4,0,0,0,1.6.2,8.75,8.75,0,0,0,1.6-.2v-.2a4.4,4.4,0,0,1-1.6.2A4.4,4.4,0,0,1,14.9,13.1Z" fill="#fff" stroke="#000" stroke-width="0.02"/><path d="M15,13.4v-.2h0v.2Zm.1-.1Zm.3,0Zm0,.2v-.2h0v.2l.1-.2h0l-.1.2h0v0Zm.2,0v-.2h0Zm.1-.1h0l.1-.1h0v.1h-.1Zm0,0Zm.1.1v-.2h0v.2l.1-.2h0l-.1.2h0v0Zm.3,0v-.2h.1v.1h0l-.1.1Zm.1,0,.1-.2h0l.1.2h0v-.1l-.2.1Zm.1-.1Zm.1.1v-.1h0v.1Zm.1,0v-.2h0v.2Zm.2,0v-.2h0v.2Zm.1,0,.1-.2h0l.1.2h-.2Zm.1-.1Zm.2.1v-.2h0v.1h0v.1Zm.1-.1h0l.1-.1h0l-.1.1Zm0,0Zm.2,0v-.2h0v.2Zm0-.1Zm.3,0Zm.1.1v-.2h0v.2Z"/></g></g></g></g></g></g></svg>