<svg xmlns="http://www.w3.org/2000/svg" viewBox="0 0 33 22"><title>quebec</title><g id="Calque_2" data-name="Calque 2"><g id="Calque_1-2" data-name="Calque 1"><g id="Calque_2-2" data-name="Calque 2"><g id="Calque_1-2-2" data-name="Calque 1-2"><path d="M0,0H33V22H0Z" fill="#fff"/><g id="qtr"><path d="M0,0H13.8V8.3H0Z" fill="#002495"/><path d="M8.2,5.1c.1-.2.1-.4-.1-.5a.19.19,0,0,0-.3,0c-.2.1-.2.3-.2.5H8v.4H7.1a.66.66,0,0,0,.4.5c0,.2-.2.3-.4.3a.76.76,0,0,1-.2.5.76.76,0,0,1-.2-.5c-.2,0-.3-.1-.4-.3.2,0,.3-.2.4-.4H5.8V5.1h.4A.76.76,0,0,0,6,4.6c-.1-.1-.2-.1-.4,0a.45.45,0,0,0,0,.5.77.77,0,0,1-.7-.8.76.76,0,0,1,.2-.4.48.48,0,0,1,.6-.2,1.56,1.56,0,0,1,.7,1.5h.2a5.26,5.26,0,0,0-.4-1.8A1.74,1.74,0,0,1,6.5,2a1.76,1.76,0,0,1,.4-.5c.1,0,.3.2.4.4a1.4,1.4,0,0,1,.2,1.4A6.07,6.07,0,0,0,7,5.1h.2a1.56,1.56,0,0,1,.7-1.5.66.66,0,0,1,.7.2.67.67,0,0,1,0,1c0,.2-.2.3-.4.3Z" fill="#fff"/></g><g id="qtr-2"><path d="M19.3,0H33V8.3H19.3Z" fill="#002495"/><path d="M27.5,5.1c.1-.2.1-.4-.1-.5s-.2-.1-.4,0a.76.76,0,0,0-.2.5h.4v.4h-.8a.66.66,0,0,0,.4.5c-.1.2-.2.3-.4.3a.76.76,0,0,1-.2.5.76.76,0,0,1-.2-.5c-.2,0-.3-.1-.4-.3a.66.66,0,0,0,.4-.5h-.8V5.1h.4a.76.76,0,0,0-.2-.5c-.1-.1-.2-.1-.4,0s-.2.3-.1.5a.77.77,0,0,1-.7-.8.52.52,0,0,1,.2-.4.62.62,0,0,1,.7-.2,1.56,1.56,0,0,1,.7,1.5H26a5.26,5.26,0,0,0-.4-1.8A1.4,1.4,0,0,1,25.8,2a1.76,1.76,0,0,1,.4-.5c.1.2.3.3.4.5a1.4,1.4,0,0,1,.2,1.4,3.92,3.92,0,0,0-.4,1.8h.2a1.56,1.56,0,0,1,.7-1.5.66.66,0,0,1,.7.2.67.67,0,0,1,0,1c-.2.1-.3.2-.5.2Z" fill="#fff"/></g><g id="qtr-3"><path d="M0,13.8H13.8V22H0Z" fill="#002495"/><path d="M8.2,18.9c.1-.2.1-.4-.1-.5s-.2-.1-.4,0a.76.76,0,0,0-.2.5h.4v.4H7.1a.66.66,0,0,0,.4.5c-.1.2-.2.3-.4.3a.76.76,0,0,1-.2.5.76.76,0,0,1-.2-.5c-.2,0-.3-.1-.4-.3a.66.66,0,0,0,.4-.5H5.8v-.4h.4a.76.76,0,0,0-.2-.5c-.1-.1-.2-.1-.4,0s-.2.3-.1.5a.77.77,0,0,1-.7-.8.52.52,0,0,1,.2-.4c.2-.2.4-.3.6-.2A1.56,1.56,0,0,1,6.3,19h.2a5.26,5.26,0,0,0-.4-1.8,1.74,1.74,0,0,1,.3-1.4,1.76,1.76,0,0,1,.4-.5c.1.2.3.3.4.5a1.4,1.4,0,0,1,.2,1.4A3.92,3.92,0,0,0,7,19h.2a1.56,1.56,0,0,1,.7-1.5.72.72,0,0,1,.7,1.2c0,.1-.2.2-.4.2Z" fill="#fff"/></g><g id="qtr-4"><path d="M19.3,13.8H33V22H19.3Z" fill="#002495"/><path d="M27.5,18.9c.1-.2.1-.4-.1-.5s-.2-.1-.4,0a.76.76,0,0,0-.2.5h.4v.4h-.8a.66.66,0,0,0,.4.5c-.1.2-.2.3-.4.3a.76.76,0,0,1-.2.5.76.76,0,0,1-.2-.5c-.2,0-.3-.1-.4-.3a.66.66,0,0,0,.4-.5h-.8v-.4h.4a.76.76,0,0,0-.2-.5c-.1-.1-.2-.1-.4,0s-.2.3-.1.5a.77.77,0,0,1-.7-.8.52.52,0,0,1,.2-.4.62.62,0,0,1,.7-.2,1.56,1.56,0,0,1,.7,1.5H26a5.26,5.26,0,0,0-.4-1.8,1.4,1.4,0,0,1,.2-1.4,1.76,1.76,0,0,1,.4-.5c.1.2.3.3.4.5a1.4,1.4,0,0,1,.2,1.4,3.92,3.92,0,0,0-.4,1.8h.2a1.56,1.56,0,0,1,.7-1.5.72.72,0,0,1,.7,1.2c-.2.1-.3.2-.5.2Z" fill="#fff"/></g></g></g></g></g></svg>