<?xml version="1.0" encoding="UTF-8"?><!DOCTYPE svg PUBLIC "-//W3C//DTD SVG 1.1//EN" "http://www.w3.org/Graphics/SVG/1.1/DTD/svg11.dtd"><svg xmlns="http://www.w3.org/2000/svg"><symbol id="classic-portail"><path fill-rule="evenodd" fill="#5B648C" d="M148.994 96.417c-.019.28-.079.532-.156.762-.324.91-.832 1.559-1.341 2.186a20.579 20.579 0 0 1-1.635 1.709c-2.276 2.117-4.732 3.926-7.22 5.681a142.963 142.963 0 0 1-15.508 9.532l-.032.017a1.057 1.057 0 0 1-.515.123c-.755-.015-1.51-.036-2.264-.052-.055 1.874-.137 3.745-.21 5.604-.09 2.222-.234 4.417-.351 6.593-.145 2.165-.272 4.315-.43 6.409l-.452 6.167-18.652.434c-6.277.152-12.618.325-18.988.424a.966.966 0 0 1-.979-.952v-.03l-.225-12.87-.18-11.784c-.816.018-1.632.041-2.448.057a1.055 1.055 0 0 1-.51-.12l-.036-.02c-5.498-2.905-10.764-6.173-15.849-9.771-2.536-1.809-5.047-3.661-7.34-5.886-.568-.566-1.12-1.157-1.622-1.834a7.055 7.055 0 0 1-.688-1.118c-.195-.415-.378-.895-.365-1.497.08-1.626.346-3.186.702-4.73.739-3.071 1.851-6.073 3.586-8.758.878-1.33 1.923-2.579 3.216-3.565a9.915 9.915 0 0 1 2.098-1.232c.752-.318 1.444-.553 2.164-.853 2.853-1.141 5.673-2.39 8.478-3.666a321.603 321.603 0 0 0 3.419-1.591l3.894-1.929-.13-.229-1.246-5.504-1.592-3.09a4.368 4.368 0 0 1-.243-3.432l1.836-5.287c.01-1.632.232-3.252.585-4.827.213-.947.474-1.88.782-2.798l-1.272-1.708c.203.465.393.936.572 1.411a.115.115 0 0 1-.208.099 42.343 42.343 0 0 0-1.614-2.507 16.541 16.541 0 0 0-.891-1.164c-.309-.36-.644-.722-.975-.942a.857.857 0 0 0-.23-.125c-.002.007-.001.013-.005.015l-.031.082c-.049.138-.099.35-.13.568a8.548 8.548 0 0 0-.074.683c-.076.94-.063 1.919-.02 2.891.042.974.169 1.948.312 2.912.141.965.243 1.926.322 2.887.079.959.157 1.918.272 2.86.061.472.132.936.244 1.384.11.451.242.879.564 1.234l.014.016a.118.118 0 0 1-.008.167.116.116 0 0 1-.096.029c-.588-.086-1.048-.535-1.402-.952a6.995 6.995 0 0 1-.862-1.397c-.473-.969-.772-1.98-1-2.995a14.258 14.258 0 0 1-.319-3.076c.008-1.03.062-2.055.119-3.081.062-1.026.151-2.049.345-3.092.054-.262.112-.524.191-.793.078-.268.166-.54.333-.852.051-.082.09-.158.156-.242.077-.087.14-.169.239-.248.114-.076.21-.158.356-.197.075-.027.148-.023.222-.033l-.055-.286c-.752-1.665-1.265-3.469-1.402-5.346l-.046-.805c-.002-.269.011-.539.017-.809.001-.271.016-.541.053-.81.031-.269.051-.542.095-.81.177-1.073.481-2.126.869-3.136.378-1.009.905-1.977 1.32-2.854l.127-.301.093-.203.111-.231c.074-.164.156-.278.237-.409.081-.124.161-.264.246-.372a13.12 13.12 0 0 1 1.055-1.285c1.357-1.462 2.774-2.759 4.277-4.005.016-.067.033-.131.049-.201.05-.23.131-.429.206-.636.07-.212.171-.395.266-.586a3.92 3.92 0 0 1 .313-.545l.345-.515c.123-.163.258-.31.388-.465.133-.15.258-.313.4-.451l.433-.403c.144-.133.288-.269.438-.395l.468-.34c.314-.221.617-.469.951-.642l.983-.564c.334-.171.678-.309 1.016-.464 2.725-1.19 5.574-1.741 8.395-2.149l2.123-.256c.708-.058 1.416-.097 2.124-.145.708-.044 1.41-.113 2.133-.099.719.007 1.436-.037 2.155.015 2.87.113 5.768.656 8.436 1.822 2.664 1.158 5.073 2.927 6.931 5.143 1.849 2.227 3.211 4.808 4.115 7.507.933 2.695 1.458 5.499 1.735 8.308.141 1.406.198 2.818.199 4.227a40.24 40.24 0 0 1-.159 3.658l.03.981c.17-.233.359-.464.597-.687.231-.189.486-.439 1.022-.484.132-.01.27.011.41.061.145.039.241.121.355.197.099.079.162.161.239.248.066.084.105.16.156.242.168.312.255.584.334.852.078.269.136.531.19.793.194 1.043.283 2.066.345 3.092.057 1.026.111 2.051.119 3.081a14.32 14.32 0 0 1-.318 3.076c-.229 1.015-.528 2.026-1.001 2.995a7.036 7.036 0 0 1-.861 1.397c-.355.417-.814.866-1.403.952a.118.118 0 0 1-.105-.196l.015-.016c.322-.355.454-.783.564-1.234.112-.448.183-.912.245-1.384.114-.942.192-1.901.272-2.86.078-.961.18-1.922.321-2.887.143-.964.27-1.938.312-2.912.043-.972.056-1.951-.02-2.891a8.548 8.548 0 0 0-.074-.683 3.09 3.09 0 0 0-.13-.568l-.031-.082c-.003-.002-.003-.008-.005-.015a.857.857 0 0 0-.23.125c-.331.22-.666.582-.975.942-.312.367-.606.761-.891 1.164a42.343 42.343 0 0 0-1.614 2.507.116.116 0 0 1-.157.043.12.12 0 0 1-.051-.142 28.85 28.85 0 0 1 .697-1.676l-.093.139-1.603 1.809c.074.211.155.42.225.634.333 1.023.622 2.065.856 3.125l.008.038.322-.36 2.624 10.212-2.274 5.81-1.246 5.504-.286.505 7.249 3.532c.264.119.527.242.792.359 2.756 1.217 5.529 2.4 8.335 3.47.682.251 1.461.558 2.133.97a10.82 10.82 0 0 1 1.891 1.434c1.15 1.083 2.086 2.359 2.866 3.702 1.554 2.701 2.572 5.651 3.21 8.678.157.759.289 1.524.383 2.299.046.388.086.778.113 1.172l.017.296.008.158c0 .072.002.146-.004.214zm-49.227 44.048l18.865.435-.882-13.164c-.117-2.113-.262-4.208-.352-6.276-.063-1.517-.132-3.025-.186-4.53-2.612.067-5.224.135-7.835.158-3.127.058-6.253.061-9.379.065a488.814 488.814 0 0 1-9.379-.112c-2.667-.06-5.335-.141-8.002-.279l-.173 11.392-.208 11.906c5.806.101 11.64.261 17.531.405zm15.545-58.557h-3.324l-7.346 5.458H96.07l-7.346-5.458H85.4l-.683-.541 2.19 6.967 1.349 4.331 1.323 4.339c.453 1.443.913 2.883 1.39 4.319.464 1.44.866 2.896 1.198 4.371.568 2.565 1.033 5.161 1.321 7.801 2.17-.032 4.34-.068 6.51-.077h.04c-.105-1.392-.202-2.785-.307-4.178l-.189-3.079-.155-3.08c-.05-1.026-.141-2.053-.219-3.079a22.613 22.613 0 0 1-.011-3.08c.069-1.026.173-2.053.341-3.079.159-1.027.364-2.053.693-3.08a.121.121 0 0 1 .23 0c.33 1.027.535 2.053.694 3.08.168 1.026.272 2.053.341 3.079a22.613 22.613 0 0 1-.011 3.08c-.078 1.026-.169 2.053-.219 3.079l-.155 3.08-.189 3.079c-.106 1.394-.202 2.788-.308 4.182 2.484.003 4.967.017 7.451.051.288-2.682.75-5.322 1.319-7.93a51.958 51.958 0 0 1 1.197-4.45c.478-1.462.938-2.929 1.391-4.398l1.323-4.417 1.35-4.411 2.205-7.144-1.498 1.185zm-9.735-19.577l-2.147.67-1.763.744h-1.822l-1.763-.744-2.147-.67s.306 1.712-.767 1.489c-.727-.152-5.579 1.358-8.661 2.28l1.867 2.074c2.609 1.383 5.484 1.297 8.608-.169 2.562-2.259 5.105-2.138 7.705.058 2.102 1.39 4.774 1.059 7.651.111l2.037-2.263c-3.073-.924-7.353-2.233-8.032-2.091-1.073.223-.766-1.489-.766-1.489zm-27.921 51.762l.07.04.212.005c-.91-1.324-1.81-2.655-2.715-3.982l2.433 3.937zm.8-40.253c-1.023.47-1.978 1.066-2.893 1.712-.663.49-1.312.997-1.941 1.531a62.776 62.776 0 0 0-1.839 1.662c-1.187 1.153-2.355 2.331-3.457 3.575-.731.8-1.448 1.625-2.152 2.45.51.185 1.016.377 1.524.577.531.21 1.058.425 1.601.672.136.062.274.127.419.201.15.078.283.141.514.301.021.014.072.054.115.091.046.044.067.049.178.186.043.055.082.115.116.175a1.188 1.188 0 0 1 .094.254 1.091 1.091 0 0 1 .005.487c-.013.06-.009.032-.014.053l-.022.056-.05.111a1.563 1.563 0 0 1-.125.213l-.073.097c-.028.034-.021.023-.033.037l-.091.095c-.13.136-.232.226-.342.331-.859.787-1.707 1.502-2.566 2.234l-2.031 1.714 3.108 5.122c1.161 1.922 2.338 3.834 3.485 5.764 2.108 3.535 4.23 7.061 6.324 10.604.691.015 1.382.034 2.073.05.213-.167.46-.29.746-.308l.111-.006c3.126-.187 6.252-.281 9.379-.352.716-.017 1.432-.013 2.148-.025a42.73 42.73 0 0 1-1.289-2.916 69.38 69.38 0 0 1-1.53-4.285 47.971 47.971 0 0 1-1.177-4.382c-.312-1.482-.637-2.96-.969-4.437l-1.023-4.422-.984-4.432-.944-4.442a179.234 179.234 0 0 1-.653-3.231l-3.695-2.923-.077-4.879-1.97.685zm13.443-54.808a3.147 3.147 0 0 0-.766-.699c-.297-.189-.598-.373-.872-.586-.302-.24-.483-.358-.619-.54a1.024 1.024 0 0 1-.224-.656c-.015-.55.308-1.208.707-1.766l.006-.009a.1.1 0 0 0 .005-.108.1.1 0 0 0-.136-.035c-.633.376-1.229.887-1.541 1.726-.144.419-.155.936.007 1.405.164.463.503.841.694 1.098.451.563.796 1.247 1.423 1.621.613.386 1.289.701 2.177.747a.124.124 0 0 0 .126-.15c-.183-.867-.56-1.486-.987-2.048zm17.012 4.293c-1.684-.847-3.355-1.717-4.969-2.67a49.564 49.564 0 0 1-2.387-1.463 27.23 27.23 0 0 1-2.255-1.589c-.706-.561-1.368-1.196-1.827-1.851a3.58 3.58 0 0 1-.5-.923c-.094-.294-.12-.483-.063-.661.035-.19.225-.441.508-.679.282-.245.649-.451 1.035-.657.784-.396 1.661-.731 2.562-1.084l.005-.003a.098.098 0 0 0 .062-.073.102.102 0 0 0-.079-.12 7.764 7.764 0 0 0-2.978-.032 5.46 5.46 0 0 0-1.532.508c-.502.267-1.053.677-1.381 1.369a2.619 2.619 0 0 0-.189 1.621c.027.175.076.328.127.481.209.596.568 1.097.936 1.497.757.793 1.588 1.34 2.405 1.884 1.643 1.067 3.366 1.895 5.114 2.652 1.758.73 3.524 1.415 5.335 1.976a.1.1 0 0 0 .117-.051.099.099 0 0 0-.046-.132zm12.806 25.272a34.199 34.199 0 0 0-1.106-6.216l-.001-.004a.116.116 0 0 1 .081-.143c.017-.004.026.017.042.02.302-1.654.358-3.364.352-5.052a50.815 50.815 0 0 0-.106-2.647c-.067-.879-.107-1.773-.287-2.598a7.423 7.423 0 0 0-.961-2.343 8.177 8.177 0 0 0-1.684-1.887c-1.189-.98-2.645-1.69-4.114-2.098l-.653 1.936a.525.525 0 0 1-.748.296l-.018-.01-1.894-1.036-.664-.169.255.91a.631.631 0 1 1-1.134.519l-.059-.093c-.026-.039-.108-.175-.186-.267-.076-.103-.169-.201-.26-.301a5.804 5.804 0 0 0-.62-.555 8.554 8.554 0 0 0-1.464-.904c-1.043-.52-2.185-.878-3.349-1.141-1.159-.274-2.369-.422-3.558-.528a18.603 18.603 0 0 0-3.55.11c-2.371.302-4.714.952-6.981 1.802a44.085 44.085 0 0 0-3.348 1.421 38.495 38.495 0 0 0-3.101 1.627l-1.218 1.119c.255.141.457.376.55.673.041.131.042.155.057.219l.027.154a3.175 3.175 0 0 1 .016.8 3.894 3.894 0 0 1-.214.944 4.391 4.391 0 0 1-.385.821c-.074.128-.152.25-.236.365l-.062.087c-.019.027-.052.072-.034.052.012-.004.021-.041.018-.028-.009.003-.05.154-.069.305a4.476 4.476 0 0 0-.039.537c-.009.388.017.809.049 1.232.066.851.189 1.725.334 2.596.149.867.307 1.756.492 2.607l.007.034c.057.263.015.525-.102.746-.431.816-.84 1.751-1.194 2.659-.353.92-.678 1.852-.948 2.799a25.57 25.57 0 0 0-.52 2.264l.498 7.026 3.673 5.283.835.927c.026.016.049.036.075.051.032.02.046.053.05.087l.968 1.076c.471-.681.89-1.265.89-1.265-1.252-.975 7.669-5.3 9.126-4.807h1.599a14.4 14.4 0 0 1-.877-.803 3.067 3.067 0 0 1-.933-.547 2.691 2.691 0 0 1-.733-1.022 2.427 2.427 0 0 1-.152-.609 1.162 1.162 0 0 1 .106-.673.98.98 0 0 1 .497-.444c.196-.082.387-.11.59-.11.064 0 .115.051.115.115a.116.116 0 0 1-.091.113l-.011.002c-.316.066-.626.269-.669.508-.058.232.057.534.221.797.168.258.39.464.647.611.246.143.577.246.806.261.06.004.116.024.162.056l.101.069c.651.446 1.36.893 2.042 1.174.338.142.667.227.811.185l1.28-.084c.427-.03.856-.064 1.286-.107.08-.029.334-.161.62-.351.563-.375 1.224-.851 1.851-1.253l.504-.322a.039.039 0 0 1 .053.012.037.037 0 0 1-.012.052l-.003.002c-.03.016.061.002.102-.002.052-.005.108-.015.162-.028.107-.027.219-.055.321-.099.206-.083.395-.196.572-.37.18-.195.317-.382.371-.499.035-.07.021-.169-.059-.291-.079-.116-.221-.226-.368-.321l-.019-.013a.121.121 0 0 1-.036-.167.125.125 0 0 1 .068-.05 1.29 1.29 0 0 1 .661-.023c.236.047.497.209.67.473.172.261.221.585.216.841.001.269-.048.505-.113.74-.145.469-.434.92-.808 1.261a3.289 3.289 0 0 1-.941.611c-.108.107-.219.206-.329.305h.742c1.457-.493 10.378 3.832 9.125 4.807 0 0 .231.321.542.764l1.477-1.64 3.15-4.53c.054-.127.113-.25.167-.38.16-.377.29-.772.413-1.17l.468-6.598.174-.195c-.018-.356-.034-.713-.066-1.07zm-.735-6.346c-.02.092-.038.183-.059.274.017.038.032.077.049.114l.01-.388zm8.279 44.976a1.05 1.05 0 0 1 .209-.429c.112-.137.133-.142.179-.186.043-.037.094-.077.115-.091.231-.16.364-.223.514-.301a9.78 9.78 0 0 1 .419-.201 34.07 34.07 0 0 1 1.6-.672c.509-.2 1.015-.392 1.524-.578a98.043 98.043 0 0 0-2.151-2.449c-1.102-1.244-2.27-2.422-3.458-3.575a61.512 61.512 0 0 0-1.839-1.662 37.037 37.037 0 0 0-1.94-1.531 22.732 22.732 0 0 0-1.684-1.091l-2.47-.845-.07 4.418-2.889 2.286c-.208 1.116-.43 2.211-.659 3.319l-.944 4.52-.983 4.509-1.023 4.499a365.935 365.935 0 0 0-.969 4.514 49.667 49.667 0 0 1-1.177 4.46 72.18 72.18 0 0 1-1.53 4.366 43.776 43.776 0 0 1-1.29 2.971c.211.004.421.001.632.004 3.126.028 6.253.119 9.379.197l.074.002c.441.011.832.205 1.11.506.582-.013 1.164-.03 1.746-.042 2.094-3.543 4.215-7.069 6.324-10.604 1.146-1.93 2.324-3.842 3.484-5.764l3.108-5.122-2.03-1.714c-.859-.732-1.707-1.447-2.566-2.234-.111-.105-.213-.195-.342-.331l-.092-.095c-.012-.014-.005-.003-.033-.037l-.072-.097a1.68 1.68 0 0 1-.126-.213l-.05-.111-.021-.056c-.006-.021-.002.007-.015-.053a1.125 1.125 0 0 1 .006-.487zm-13.566-45.561l-.039-.026-.046-.037-.262-.085a13.002 13.002 0 0 0-1.117-.278c-.51-.102-1.02-.19-1.508-.256-.479-.066-.968-.106-1.282-.085-.1-.003-.105.025-.171.014-.182.048-.387.121-.552.139-.35.058-.671.073-.984.063a8.881 8.881 0 0 1-1.799-.269 24.462 24.462 0 0 1-1.696-.491 14.794 14.794 0 0 1-.823-.284c-.269-.118-.547-.199-.79-.432a.204.204 0 0 1-.055-.165.29.29 0 0 1 .05-.113c.04-.057.082-.09.125-.125.085-.066.171-.12.258-.171a7.83 7.83 0 0 1 .528-.277c.359-.168.716-.337 1.093-.479.193-.065.373-.146.608-.178a.663.663 0 0 1 .217.003c.057.021.113.029.187.115.067.056.074.242.077.187.005-.02.013-.008.077.017.216.081.565.1.875.09a18.115 18.115 0 0 1 1.694-.775c.301-.117.606-.227.929-.326a5.57 5.57 0 0 1 .515-.134c.096-.018.197-.034.316-.042a1.5 1.5 0 0 1 .22.003c.05.006.101.015.151.025.061.015.157.054.228.093a.872.872 0 0 1 .289.28.888.888 0 0 1 .116.425 1.264 1.264 0 0 1-.018.16c.136.07.349.158.565.221.525.159 1.133.276 1.693.351a.77.77 0 0 1 .46.234l.061.063.575.6.137.138a.43.43 0 0 0-.074-.005l.073.043a.765.765 0 0 1 .113.075l.032.033.001-.008a1.258 1.258 0 0 1 .289.306l.016.027c.01.023-.01-.034.068.135.026.062.046.128.059.194.012.083.02.096.017.234.394.575-1.655 1.27-1.496.773zm-7.576-2.44c-.207-.072-.411-.136-.632-.302a.617.617 0 0 1-.244-.364 2.096 2.096 0 0 0-.53.055c-.372.08-.746.195-1.098.353a3.914 3.914 0 0 0-.51.266 1.391 1.391 0 0 0-.223.163.387.387 0 0 0-.077.087c.182.135.455.195.705.24.268.039.541.052.815.044a9.108 9.108 0 0 0 1.637-.224c.243-.055.482-.115.717-.177a4.634 4.634 0 0 1-.56-.141zm4.894-.701c-.008.018-.034.065-.027.057l.011-.015a.117.117 0 0 0 .016-.036c.006-.01.007-.02.01-.03l-.01.024zm3.809 1.559a.903.903 0 0 0 .051.047c-.011-.01.005-.002-.051-.047zm-.225-.225c.101.012.158.056.145.138a.473.473 0 0 1-.033-.025l-.112-.113zM104.51 47.3a6.88 6.88 0 0 0-.018.578c-.004.388.062.789.127 1.184.061.397.071.793.015 1.197-.119.813-.3 1.642-.811 2.561l-.003.005a.141.141 0 0 1-.224.031c-.752-.763-1.078-1.629-1.26-2.515a3.55 3.55 0 0 1 .007-1.351c.093-.453.214-.902.325-1.355.053-.226.119-.453.192-.679l.185-.568c.119-.364.2-.744.251-1.134.057-.391.071-.794.055-1.203a6.832 6.832 0 0 0-.051-.618l-.041-.316c-.014-.118-.035-.183-.048-.363a.09.09 0 0 1 .083-.095.093.093 0 0 1 .064.022l.083.073c.032.028.102.157.155.24l.168.287a6.725 6.725 0 0 1 .681 1.927c.079.459.121.931.112 1.408-.001.118-.016.236-.024.355l-.023.329zm2.374-1.655a.86.86 0 0 1 .079-.113c.055-.068.109-.132.167-.193.114-.123.23-.242.348-.359.238-.233.475-.474.737-.698.515-.454 1.153-.868 1.936-.969.193-.028.392-.031.593-.024l.535.048.96.085 1.904.201a.913.913 0 0 1 .559 1.541l-.05.052c-.287.297-.525.52-.801.764-.269.24-.551.466-.852.673a4.971 4.971 0 0 1-2.065.83c-.759.126-1.585-.059-2.264-.41l-.493-.275-.447-.308-.217-.141c-.068-.053-.133-.111-.202-.159a6.673 6.673 0 0 0-.409-.284c-.099-.089-.055-.16-.054-.185a.362.362 0 0 1 .036-.076zm1.96.216c.589-.184 1.065-.431 1.552-.614l1.108-.443-.499-.145-.425-.126a2.123 2.123 0 0 0-.38-.063 4.266 4.266 0 0 0-1.735.232c-.295.11-.587.251-.841.447a2.487 2.487 0 0 0-.352.32c-.051.06-.104.119-.144.183a.63.63 0 0 0-.046.083c.558.246 1.191.317 1.762.126zm-12.748-5.79c-.271.103-.546.197-.823.284a24.49 24.49 0 0 1-1.697.491 8.861 8.861 0 0 1-1.798.269 4.95 4.95 0 0 1-.984-.063c-.165-.018-.37-.091-.552-.139-.067.011-.071-.017-.171-.014-.314-.021-.803.019-1.283.085-.487.066-.997.154-1.507.256a13.002 13.002 0 0 0-1.118.278l-.261.085-.047.037-.038.026c.159.497-1.89-.198-1.496-.773-.003-.138.005-.151.017-.234.013-.066.033-.132.058-.194.079-.169.058-.112.068-.135l.017-.027a1.182 1.182 0 0 1 .289-.306l.001.008.032-.033a.765.765 0 0 1 .113-.075l.073-.043a.424.424 0 0 0-.074.005l.136-.138.575-.6.061-.063a.783.783 0 0 1 .46-.234 11.156 11.156 0 0 0 1.694-.351 3.42 3.42 0 0 0 .565-.221 1.104 1.104 0 0 1-.018-.16.888.888 0 0 1 .116-.425.88.88 0 0 1 .288-.28c.071-.039.168-.078.229-.093.05-.01.101-.019.151-.025a1.5 1.5 0 0 1 .22-.003c.119.008.22.024.316.042.187.038.351.085.515.134.323.099.628.209.928.326.584.23 1.141.488 1.694.775.311.01.659-.009.875-.09.065-.025.073-.037.078-.017.003.055.01-.131.077-.187.073-.086.13-.094.186-.115a.669.669 0 0 1 .218-.003c.234.032.415.113.608.178.377.142.734.311 1.092.479.178.087.355.175.529.277.087.051.173.105.258.171.042.035.084.068.124.125.02.023.04.067.05.113a.2.2 0 0 1-.055.165c-.242.233-.52.314-.789.432zm-11.458.06c-.006.007.002 0 .002 0l.05-.047c-.056.045-.04.037-.052.047zm3.861-1.606l-.01-.024c.003.01.004.02.009.03a.146.146 0 0 0 .016.036l.012.015c.007.008-.02-.039-.027-.057zm8.131.872a1.4 1.4 0 0 0-.224-.163 3.79 3.79 0 0 0-.51-.266 5.51 5.51 0 0 0-1.098-.353 2.088 2.088 0 0 0-.529-.055.622.622 0 0 1-.244.364c-.221.166-.425.23-.632.302-.187.06-.366.104-.56.141.235.062.474.122.717.177a9.11 9.11 0 0 0 1.636.224c.275.008.548-.005.816-.044.25-.045.523-.105.705-.24a.414.414 0 0 0-.077-.087zm-11.86.6c-.013-.082.043-.126.145-.138l-.112.113-.033.025zm3.068 3.626l1.903-.201.961-.085.535-.048c.201-.007.4-.004.593.024.783.101 1.421.515 1.936.969.262.224.499.465.737.698.118.117.235.236.348.359.057.061.112.125.167.193a.967.967 0 0 1 .079.113.362.362 0 0 1 .036.076c.001.025.045.096-.054.185-.137.09-.275.181-.409.284-.069.048-.134.106-.202.159l-.217.141-.447.308-.492.275c-.68.351-1.506.536-2.266.41a4.972 4.972 0 0 1-2.064-.83 8.601 8.601 0 0 1-.852-.673 13.272 13.272 0 0 1-.801-.764l-.05-.051a.914.914 0 0 1 .559-1.542zm3.747 1.624c.487.183.963.43 1.552.614.571.191 1.204.12 1.762-.126a.772.772 0 0 0-.046-.083c-.04-.064-.093-.123-.144-.183a2.44 2.44 0 0 0-.353-.32 3.173 3.173 0 0 0-.84-.447 4.269 4.269 0 0 0-1.736-.232 2.153 2.153 0 0 0-.38.063l-.423.126-.5.145 1.108.443zM115.1 138.45l-29.663-.731v-19.386h28.83l.833 20.117z"/><path fill-rule="evenodd" fill="#FFBE22" d="M45.121 34.542c6.943-3.095 11.569-8.271 11.859-14.333C57.474 9.852 45.124.832 29.395.06 13.665-.712.513 7.059.019 17.416c-.495 10.356 11.856 19.379 27.585 20.15 2.366.116 4.674.037 6.89-.213 3.392 4.196 9.111 9.26 17.61 10.655 0 0-5.613-4.449-6.983-13.466"/></symbol><symbol id="haikus-portail"><path fill-rule="evenodd" fill="#5B648C" d="M138.592 107.158l-.013-.029.405-.001.015.008-.407.022zm-2.16-.173a76.243 76.243 0 0 1-.26-.213 6.38 6.38 0 0 1 .701-.047c.376 0 .746.056 1.096.236l.397-.083c.191.061.176.161.213.251-.66-.009-1.303-.062-1.968-.317.203.092.132.171-.179.173zm-3.376.646c-1.041.162-2.022.41-3.038.639-1.244.126-2.15.31-3.531.439l-.082.003c-.735 0 .763-.802 1.361-.951a.185.185 0 0 1 .076-.016c.115 0 .247.101.379.203.132.101.264.202.38.202a.178.178 0 0 0 .081-.019c.57-.011 1.1-.272 1.716-.412a.188.188 0 0 1 .07-.016c.088 0 .128.092.157.185.03.092.05.185.099.185a.04.04 0 0 0 .02-.005c.748-.119 1.363-.633 1.86-.633.058 0 .115.008.17.023l1.112.222c-.217-.025-.433-.054-.659-.054-.057 0-.113.001-.171.005zm-.568-1.337a1.373 1.373 0 0 0-.37-.203l.749.083c-.099.065-.175.141-.279.141a.26.26 0 0 1-.1-.021zm-1.338-.048a1.296 1.296 0 0 0-.369-.173l.397-.042-.006.002c-.135.048-.099.132-.022.213zm0 0c.085.06.162.125.228.193-.046-.045-.158-.118-.228-.193zm-1.034-.199a1.73 1.73 0 0 1 .286-.025c.14 0 .266.019.379.051a3.313 3.313 0 0 1-.265.012c-.131 0-.264-.01-.4-.038zm1.178-.053l.132.016a5.181 5.181 0 0 0-.248.021l.116-.037zm-3.419.741l-.398.185a1.38 1.38 0 0 0-.883-.294c-.301 0-.609.074-.916.154l.26.314c.316-.027.384-.164.174-.295.542.284 1.064.371 1.593.371.127 0 .254-.005.382-.014l.014.052c-1.182.231-2.453.539-3.553.941l-.455.171c-.077.01-.152.014-.226.014-.154 0-.304-.018-.455-.039-.351-.092-.712-.19-1.113-.286a.45.45 0 0 0-.15-.025c-.499 0-1.105.755-1.856.929a.035.035 0 0 1-.02.007c-.048 0-.07-.122-.102-.244-.033-.122-.074-.244-.16-.244a.149.149 0 0 0-.073.024c-.609.215-1.13.554-1.694.577a.143.143 0 0 1-.083.026c-.114 0-.247-.124-.381-.248-.133-.125-.266-.25-.381-.25a.145.145 0 0 0-.081.025c-.585.213-2.035 1.219-1.336 1.219.028 0 .06-.001.096-.005 1.369-.179 2.267-.428 3.499-.601-1.103.349-2.251.679-3.584.753-.054.003-.11.004-.167.004-.311 0-.653-.037-1.01-.074a10.771 10.771 0 0 0-1.105-.073c-.243 0-.486.015-.725.056-1.426.465-2.896 1.299-4.597 1.413-3.209.066-6.25.483-9.322.654a41.58 41.58 0 0 1-2.319.068c-2.315 0-4.659-.224-7.031-.863-1.245-.212-2.397-.206-3.417-.566-2.047-.682-4.3-.752-6.416-1.157-2.107-.404-4.057-1.137-5.337-2.802-.9-1.09-2.369-1.755-3.355-2.032a3.09 3.09 0 0 0-.737-.124c-.354 0-.43.164-.006.531-1.349-1.031-2.387-1.452-3.214-1.91-.881-.475-1.518-.991-2.022-2.034-.041-.076-.229-.657-.042-1.153.181-.504.694-.971 2.143-1.054 1.98.385 5.838.82 7.721 1.689 2.445 1.224 4.935 1.916 7.445 2.317 2.516.417 5.016.553 7.628 1.056 2.672.505 5.44.833 8.35 1.022 5.374.28 10.216.068 15.455.583.814.064 1.61.132 2.398.207l1.206.106.107.07-.055-.066.285.025a.541.541 0 0 0 .489.252c.162 0 .338-.043.515-.083.095-.021.211-.036.334-.052l1.591.128-.114.061a9.85 9.85 0 0 1-.078.019h-.002l-.314.071-.048-.013c-.086.019-.172.039-.255.053.103-.006.204-.021.303-.04.143.042.264.113.373.202.078.101.197.195.241.253a1.558 1.558 0 0 0-.241-.253c-.079-.103-.118-.211.015-.288l.006-.004.247-.05.697.048c.124.052.249.128.371.248a.196.196 0 0 0 .09.024c.111 0 .188-.117.287-.22 1.596.114 3.23.17 4.967.223 0 0 .89.41 1.165.694-.136.016-.272.03-.406.038-.036-.154-.021-.334-.212-.421zm-13.94-1.107a.733.733 0 0 0-.412.137c.297.278.643.422.957.422a.92.92 0 0 0 .316-.054c-.258-.267-.543-.505-.861-.505zm-52.748-3.442c-.988.071-2.398.115-4.122.115-10.7 0-33.579-1.686-43.879-9.062C6.97 88.787 4.014 81.644 2.628 76.434c-1.494-5.62-1.531-10.125-1.532-10.315l-.002-.454.225-.024-1.322-54.568s14.482-.168 14.815 0l.921 54.826c.731 3.351 3.674 12.627 14.501 18.52 6.922 3.767 13.821 7.238 19.363 10.027 11.201 5.636 12.465 6.378 12.298 7.22-.028.143-.154.48-.708.52zM28.304 84.427c-6.252-3.825-9.655-8.694-11.403-12.236a26.997 26.997 0 0 1-1.902-5.037H2.139c.23 3.836 1.687 17.39 10.794 24.633 1.77.158 8.344 2.505 9.48.993 1.298-1.728.867-3.843 4.494-3.936 2.818-.072.543-3.834 1.397-4.417z"/><path fill-rule="evenodd" fill="#FFBE22" d="M71.205 2.51c.238.222.321.417.551.52.229.105.501.178.777.237.277.059.827.318.922.403.096.084.115.226-.009.178-.124-.047-.254-.034-.472-.016-.219.018-.408-.046-.57-.03-.163.017-.813.21-1.048.364-.237.155-.577.403-.803.553-.227.15-.432.198-.67.399-.236.201-.688.605-1.267.777-.58.172-1.232.308-1.502.339-.27.03-.665.037-.83-.004a6.1 6.1 0 0 1-.879.414c-.06.561-.046 1.263.014 1.468a.616.616 0 0 1-.026.465c-.054.106.034 1.041-.06 1.456-.094.415-.269.727-.223 1.275.046.548-.122 1.496-.393 2.317-.272.821-.586 2.218-.935 3.342a20.063 20.063 0 0 1-1.164 2.914c-.412.838-.564.827-.679.6-.161.69-.816 1.64-1.186 1.774-.37.135-.385-.196-.385-.196-.199.184-.398.148-.453-.048-.056-.195-.058-.473-.058-.473s-.305.128-.335-.311c-.031-.439.077-.674.077-.674s-.326-.118-.288-.531c.039-.412.147-.647.147-.647s-.509.302-.533-.372c-.024-.673.093-.913.093-.913s-.456-.303-.356-.952c.099-.65.11-.852.11-.852s-.248-.468.007-1.025c-.089-.32-.038-.505.178-.628-.1-.419.177-.905.443-1.34-.124-.246-.145-.468.189-.853-.172-.201-.087-.39.087-.505-.162-.181-.23-.452-.049-.628-.113-.273-.052-.51.025-.592-.175-.257-.127-.499.033-.596-.174-.233-.15-.477-.036-.575-.145-.317-.029-.51.047-.591-.124-.199-.079-.497.017-.634a1.59 1.59 0 0 1 .165-.657c.054-.106.03-.257.209-.362-.095-.108-.012-.25.124-.301-.065-.215.131-.408.247-.427-.07-.177.078-.325.078-.325s-.206-.104-.548.041c-.343.146-1.967.366-2.581.24-.614-.126-.8-.459-.719-.53.08-.072.669-.051 1.65-.314.981-.263 1.935-.583 2.228-.787.293-.203 1.02-.92 1.795-1.286.775-.366 1.908-1.139 3.09-1.634 1.181-.494 1.896-.519 2.305-.543.409-.024.706-.044 1.166-.231.459-.187 2.276-.333 3.923-.308 1.645.025 3.227.231 4.83.833 1.604.602 2.447.808 3.553 1.116 1.105.307 2.108.441 2.797.381.687-.059 1.963.148 2.042.297.08.149-.056.548-.385.548-.33 0-1.399.094-2.281-.049-.882-.141-1.862-.297-2.794-.649-.933-.352-1.316-.27-2.201-.642-.886-.374-1.288-.434-1.647-.398-.357.037-1.033.148-1.41.042-.378-.106-1.124-.148-1.577-.022-.453.126-.92.27-1.33.121-.38.185-.548.042-.548.042s-.392.109-.689-.005z"/><path fill-rule="evenodd" fill="#FFBE22" d="M71.205 2.51c.238.222.321.417.551.52.229.105.501.178.777.237.277.059.827.318.922.403.096.084.115.226-.009.178-.124-.047-.254-.034-.472-.016-.219.018-.408-.046-.57-.03-.163.017-.813.21-1.048.364-.237.155-.577.403-.803.553-.227.15-.432.198-.67.399-.236.201-.688.605-1.267.777-.58.172-1.232.308-1.502.339-.27.03-.665.037-.83-.004a6.1 6.1 0 0 1-.879.414c-.06.561-.046 1.263.014 1.468a.616.616 0 0 1-.026.465c-.054.106.034 1.041-.06 1.456-.094.415-.269.727-.223 1.275.046.548-.122 1.496-.393 2.317-.272.821-.586 2.218-.935 3.342a20.063 20.063 0 0 1-1.164 2.914c-.412.838-.564.827-.679.6-.161.69-.816 1.64-1.186 1.774-.37.135-.385-.196-.385-.196-.199.184-.398.148-.453-.048-.056-.195-.058-.473-.058-.473s-.305.128-.335-.311c-.031-.439.077-.674.077-.674s-.326-.118-.288-.531c.039-.412.147-.647.147-.647s-.509.302-.533-.372c-.024-.673.093-.913.093-.913s-.456-.303-.356-.952c.099-.65.11-.852.11-.852s-.248-.468.007-1.025c-.089-.32-.038-.505.178-.628-.1-.419.177-.905.443-1.34-.124-.246-.145-.468.189-.853-.172-.201-.087-.39.087-.505-.162-.181-.23-.452-.049-.628-.113-.273-.052-.51.025-.592-.175-.257-.127-.499.033-.596-.174-.233-.15-.477-.036-.575-.145-.317-.029-.51.047-.591-.124-.199-.079-.497.017-.634a1.59 1.59 0 0 1 .165-.657c.054-.106.03-.257.209-.362-.095-.108-.012-.25.124-.301-.065-.215.131-.408.247-.427-.07-.177.078-.325.078-.325s-.206-.104-.548.041c-.343.146-1.967.366-2.581.24-.614-.126-.8-.459-.719-.53.08-.072.669-.051 1.65-.314.981-.263 1.935-.583 2.228-.787.293-.203 1.02-.92 1.795-1.286.775-.366 1.908-1.139 3.09-1.634 1.181-.494 1.896-.519 2.305-.543.409-.024.706-.044 1.166-.231.459-.187 2.276-.333 3.923-.308 1.645.025 3.227.231 4.83.833 1.604.602 2.447.808 3.553 1.116 1.105.307 2.108.441 2.797.381.687-.059 1.963.148 2.042.297.08.149-.056.548-.385.548-.33 0-1.399.094-2.281-.049-.882-.141-1.862-.297-2.794-.649-.933-.352-1.316-.27-2.201-.642-.886-.374-1.288-.434-1.647-.398-.357.037-1.033.148-1.41.042-.378-.106-1.124-.148-1.577-.022-.453.126-.92.27-1.33.121-.38.185-.548.042-.548.042s-.392.109-.689-.005zM102.277 36.162c-.096.098-.499.145-.767.347-.269.202-.433.303-.374.441.057.031.174-.093.382-.109.208-.016.388-.076.51-.136.122-.06.544-.004.878.076.333.08.641.217.838.366.197.15.418.162.593.319.176.157.439.465.961.593.521.128.941.22 1.271.2.33-.02.788.051.983.206.195.155.749.284 1.14.246.392-.038.727-.219.896-.349a.615.615 0 0 1 .626-.087c.135.23.034.594.19.697.156.103.594.487.711.65.117.163.373.363.549.377.176.014.237-.06.114-.112-.122-.052-.064-.139-.203-.319s-.171-.325-.052-.373c.12-.048.233-.066.233-.066s-.201-.245-.378-.284c-.176-.039-.404-.052-.455-.107-.052-.055.107-.169.107-.169s-.012-.09-.135-.048c-.125.04-.231.06-.361-.075-.13-.134-.038-.401.109-.431.147-.029.604-.127.816-.223.517.12.911.102 1.061.085.413.124.616.074.761.026.29.107.424.05.513.02.288.082.583.055.678-.055-.203-.095-.868-.236-1.332-.389-.465-.153-1.023-.35-1.203-.465-.179-.113-.306-.308-.647-.533.249-.011.337-.174.347-.222.141.131.481.098.645-.065.226.017.296-.026.346-.098.127.153.264-.04.368-.125.214.113.328-.094.398-.178.17.079.329-.06.392-.154.18.073.345-.057.407-.143.134.088.288-.028.375-.116.249.105.344-.015.413-.058.171.113.387-.014.465-.096.08.175.3.066.433-.07.146.148.326.064.395-.012.182.098.333.032.439-.061.232.143.362.056.425-.031.189.142.433.005.555-.125.326.147.579.078.706.007.182.098.817.081.924-.02.315.12.634.065.723-.031.191.101 1.034.104 1.342.098.308-.007 1.371.187 2.013.214.642.025 2.145.009 2.334.002.19-.008.508-.137-.056-.129-.564.008-2.561-.128-3.72-.284-1.157-.157-3.825-.59-5.51-.827-1.686-.237-2.917-.384-3.921-.358-1.003.027-1.378.28-1.804.41-.425.13-.694.133-1.116.363-.421.231-.628.328-.926.4a1.272 1.272 0 0 1-1.225-.353c-.421-.43-1.195-1.486-3.282-2.733-2.086-1.247-2.745-1.331-3.791-2.024-1.047-.693-1.921-1.339-2.601-1.689-.68-.351-1.233-.506-1.462-.666-.229-.158-.485-.306-.708-.339-.32-.361-.591-.521-.805-.552-.201-.36-.562-.656-.754-.632-.149-.249-.441-.621-.691-.61-.115-.134-.24-.219-.319-.171-.079.049-.198.737 1.334 2.04 1.532 1.304 1.355.99 1.921 1.431.567.441 1.488.82 1.954 1.173.467.352 1.269.804 1.402.974.132.171.525.358.943.584.419.225 1.922 1.123 2.569 1.773.647.651 1.353 1.463 1.155 1.702-.263-.042-.395.128-.615.195-.219.068-.545.154-.742.351-.198.197-.244.318-.283.465-.039.147-.162.182-.244.264-.082.081-.136.181-.161.207zM74.646 60.121c-.04-.041.09-.115.172-.123a.273.273 0 0 1 .237-.139c.106-.147.368-.197.368-.197s.139-.221.408-.278c.098-.172.327-.336.695-.32 0-.213.212-.319.343-.377.163-.188.548-.434.874-.41.123-.27.442-.532.719-.524.05-.221.238-.417.426-.409.163-.304.391-.344.448-.328a.556.556 0 0 1 .36-.237s.18-.164.245-.05c.066.115.115.5.041.656-.074.155-.22.434-.31.54.057.058.155.025.155.025s.114-.205.155-.287c.041-.082.123-.155.221-.123-.017-.188.158-.264.264-.272.033-.13.181-.24.336-.256.27-.041.968-.397 1.344-.643.376-.246.548-.344.646-.328.18-.188.368-.254.474-.229a.6.6 0 0 1 .564-.173c.261-.237.417-.204.523-.18.171-.204.416-.253.555-.188.245-.221.523-.131.801-.32.278-.188.498-.147.842-.385.343-.237 1.462-.893 1.642-1.114.179-.221.359-.344.474-.36.335-.369.817-.713 1.005-.713.417-.254 1.748-.951 2.206-1.212.458-.263 1.054-.582 1.209-.492.466-.238 1.062-.63 1.25-.524.491-.312.834-.648.973-.336.351-.369.686-.803.825-.525.278-.311.466-.376.596-.18.131.197.54.615-.024 1.524-.564.909-1.618 2.007-2.655 2.802-1.038.794-1.627 1-2.182 1.36-.555.361-1.471.787-2.256.958-.972.213-1.094.5-1.536.705-.459.213-1.634.409-2.982.901-1.348.492-2.729 1.278-2.9 1.467-.172.188-.123.508-.123.508s.212.272.274.555c.232.178.447.479.478.632.03.154.006.486.03.529.025.043.288.289.417.424s.454.467.46.565c.006.098-.092.074-.135.019-.043-.056-.582-.388-.699-.4-.117-.012-.478-.055-.693-.025-.214.031-.367.074-.563.08-.196.006-.625.166-1.281-.031a4.765 4.765 0 0 1-1.33-.645c-.361.228-1.36 1.137-1.771 1.629-.41.492-.98 1.235-1.164 1.542-.184.307-.307.418-.454.467-.208.418-1.066 1.695-1.409 2.102-.344.405-1.888 1.83-3.077 2.654-1.189.823-3.358 1.72-3.995 1.548-.503.013-.67-.127-.777-.225-.228-.05-.408-.492-.383-.549.024-.057.253-.123.253-.123s-.131-.172-.09-.246c.041-.073.352-.164.352-.164s-.115-.188.049-.27a4.01 4.01 0 0 1 .44-.172s-.187-.254-.032-.385.646-.467.646-.467.007-.229.179-.361c.172-.131 1.504-1.285 1.504-1.285s-.213-.091.073-.222 2.705-1.721 3.293-2.45c.589-.729 1.839-2.228 2.264-2.613.424-.385 1.364-1.311 1.372-1.515-.637.278-1.577.27-1.659.188z"/></symbol><symbol id="modern-portail"><path fill-rule="evenodd" fill="#655D8C" d="M102.972 24.661l.022-.065-.1-.022-15.672-17.44.02-.086L30.856-.003-.004 93.415l76.687 9.589 26.286-78.334.013.002-.01-.011zM74.315 99.314L4.532 90.587 33.238 3.689l49.794 6.227-3.179 13.185 18.694 3.992-24.232 72.221z"/><path fill-rule="evenodd" fill="#FFBE22" d="M78.518 37.081l-46.464-5.81a1.023 1.023 0 0 1-.892-1.139c.07-.557.585-.954 1.147-.883l46.465 5.81c.561.07.962.581.891 1.139-.07.557-.585.954-1.147.883zM75.34 50.062c-.07.557-.585.954-1.147.884L27.73 45.135a1.023 1.023 0 0 1-.892-1.138 1.028 1.028 0 0 1 1.148-.884l46.462 5.811c.562.07.962.581.892 1.138zm-3.274 13.994a1.028 1.028 0 0 1-1.148.884l-46.464-5.811a1.023 1.023 0 0 1-.892-1.138c.07-.557.586-.954 1.147-.884l46.465 5.811c.561.07.962.581.892 1.138zm-4.025 13.902a1.027 1.027 0 0 1-1.147.884l-46.463-5.81a1.024 1.024 0 0 1-.892-1.139 1.027 1.027 0 0 1 1.147-.884l46.463 5.811c.561.07.962.581.892 1.138z"/></symbol></svg>