<?xml version="1.0" encoding="UTF-8"?><!DOCTYPE svg PUBLIC "-//W3C//DTD SVG 1.1//EN" "http://www.w3.org/Graphics/SVG/1.1/DTD/svg11.dtd"><svg xmlns="http://www.w3.org/2000/svg"><symbol id="caret-left"><path fill-rule="evenodd" d="M8.714.307A.963.963 0 0 0 8.01.011a.96.96 0 0 0-.703.296l-7 6.996a.96.96 0 0 0-.297.703c0 .27.099.504.297.702l7 6.996A.96.96 0 0 0 8.01 16a.963.963 0 0 0 .704-.296.963.963 0 0 0 .296-.703V1.01a.965.965 0 0 0-.296-.703z"/></symbol><symbol id="facebook"><path fill-rule="evenodd" d="M9.83 11.459H6.743v11.443H2.169V11.459H-.005V7.417h2.174V4.8c0-1.873.856-4.8 4.616-4.8l3.388.014v3.925H7.714c-.401 0-.971.207-.971 1.102v2.376h3.488l-.401 4.042z"/></symbol><symbol id="google"><path fill-rule="evenodd" d="M19.934 4.982v3.114H18.38V4.982h-3.107V3.425h3.107V.31h1.554v3.115h3.108v1.557h-3.108zm-8.476-3.4c1.249.716 1.912 2.192 1.912 3.816 0 1.493-.825 2.695-1.989 3.61-1.139.889-1.353 1.264-1.353 2.018 0 .646 1.358 1.61 1.983 2.08 2.175 1.633 2.616 2.662 2.616 4.708 0 2.55-2.744 5.088-7.205 5.088-3.914 0-7.218-1.597-7.218-4.146 0-2.592 2.74-5.289 6.654-5.289.427 0 .817-.012 1.222-.012-.535-.523-.968-.972-.968-1.761 0-.467.148-.914.357-1.317a8.16 8.16 0 0 1-.653.028c-3.215 0-5.087-2.261-5.087-5.102C1.729 2.524 4.579 0 7.997 0h6.736l-1.506 1.582h-1.769zM7.745 14.263c-2.706-.03-4.997 1.714-4.997 3.733 0 2.063 1.954 3.777 4.658 3.777 3.804 0 5.129-1.61 5.129-3.671 0-.249-.03-.492-.086-.727-.298-1.169-1.482-1.806-2.952-2.83a5.846 5.846 0 0 0-1.752-.282zm2.919-8.761c-.313-2.39-1.867-4.35-3.682-4.406-1.814-.053-3.034 1.775-2.718 4.165.312 2.388 2.038 4.057 3.854 4.113 1.815.053 2.858-1.485 2.546-3.872z"/></symbol><symbol id="partager"><path fill-rule="evenodd" d="M27.574 10.652a5.464 5.464 0 0 1-4.315-2.105l-12.446 5.436c.064.326.104.659.104 1.003 0 .343-.04.677-.104 1.002l12.447 5.436a5.465 5.465 0 0 1 4.314-2.105c3.009 0 5.449 2.383 5.449 5.322 0 2.938-2.44 5.322-5.449 5.322s-5.449-2.384-5.449-5.322c0-.344.04-.678.104-1.003L9.782 18.202a5.464 5.464 0 0 1-4.314 2.105c-3.009 0-5.449-2.383-5.449-5.321 0-2.939 2.44-5.322 5.449-5.322 1.766 0 3.319.834 4.315 2.105l12.446-5.435a5.194 5.194 0 0 1-.104-1.003c0-2.939 2.44-5.322 5.449-5.322s5.449 2.383 5.449 5.322-2.44 5.321-5.449 5.321z"/></symbol><symbol id="pinterest"><path fill-rule="evenodd" d="M10.366 16.57c-1.323 0-2.569-.742-2.995-1.585 0 0-.712 2.926-.863 3.493-.531 1.995-2.094 3.992-2.213 4.154-.085.116-.272.078-.292-.07-.034-.256-.433-2.775.036-4.829l1.578-6.921s-.392-.81-.392-2.008c0-1.884 1.054-3.287 2.366-3.287 1.115 0 1.652.866 1.652 1.905 0 1.163-.712 2.899-1.081 4.508-.307 1.346.652 2.445 1.935 2.445 2.323 0 3.888-3.09 3.888-6.751 0-2.785-1.81-4.869-5.102-4.869-3.719 0-6.037 2.875-6.037 6.084 0 1.107.315 1.887.809 2.491.227.279.258.389.176.708-.06.234-.193.796-.25 1.02-.081.321-.334.435-.614.316C1.253 12.651.456 10.707.456 8.523.456 4.914 3.393.587 9.22.587c4.682 0 7.763 3.51 7.763 7.277 0 4.983-2.675 8.706-6.617 8.706z"/></symbol><symbol id="twitter"><path fill-rule="evenodd" d="M24.259 6.297c.012.239.017.478.017.721 0 7.377-5.526 15.884-15.631 15.884-3.104 0-5.99-.924-8.421-2.507.431.049.867.075 1.31.075 2.575 0 4.942-.889 6.822-2.388-2.403-.046-4.433-1.66-5.131-3.876a5.43 5.43 0 0 0 2.48-.097c-2.511-.514-4.406-2.77-4.406-5.473v-.071a5.41 5.41 0 0 0 2.489.698 5.602 5.602 0 0 1-2.444-4.647c0-1.023.272-1.983.744-2.806 2.708 3.377 6.758 5.6 11.323 5.832a5.72 5.72 0 0 1-.142-1.272c0-3.082 2.459-5.58 5.494-5.58 1.579 0 3.008.677 4.009 1.76a10.86 10.86 0 0 0 3.49-1.355 5.59 5.59 0 0 1-2.416 3.089A10.83 10.83 0 0 0 27 3.407a11.236 11.236 0 0 1-2.741 2.89z"/></symbol></svg>