<svg xmlns="http://www.w3.org/2000/svg" viewBox="0 0 33 22"><title>ecosse</title><g id="Calque_2" data-name="Calque 2"><g id="Calque_1-2" data-name="Calque 1"><g id="Calque_2-2" data-name="Calque 2"><g id="Calque_1-2-2" data-name="Calque 1-2"><polygon points="0 2.6 0 19.4 12.9 11 0 2.6" fill="#0065bd"/><polygon points="29.7 0 3.3 0 16.5 8.6 29.7 0" fill="#0065bd"/><polygon points="3.3 22 29.7 22 16.5 13.4 3.3 22" fill="#0065bd"/><polygon points="33 19.4 33 2.6 20.1 11 33 19.4" fill="#0065bd"/><polygon points="29.7 0 16.5 8.6 3.3 0 0 0 0 2.6 12.9 11 0 19.4 0 22 3.3 22 16.5 13.4 29.7 22 33 22 33 19.4 20.1 11 33 2.6 33 0 29.7 0" fill="#fff"/></g></g></g></g></svg>