<svg 
 xmlns="http://www.w3.org/2000/svg"
 xmlns:xlink="http://www.w3.org/1999/xlink"
 width="29px" height="43px">
<path fill-rule="evenodd"  fill="rgb(117, 111, 165)"
 d="M28.774,8.192 C27.282,12.924 17.100,15.061 15.945,15.289 L14.605,15.555 L14.614,15.604 L14.486,15.579 L14.358,15.604 L14.367,15.555 L13.027,15.289 C11.872,15.061 1.690,12.924 0.199,8.192 C-0.333,6.504 0.245,4.785 1.916,3.087 C3.678,1.293 5.454,0.643 7.206,1.163 C12.009,2.587 14.094,12.868 14.316,14.036 L14.486,14.930 L14.656,14.036 C14.878,12.868 16.963,2.587 21.767,1.163 C23.518,0.643 25.294,1.293 27.056,3.087 C28.727,4.785 29.305,6.504 28.774,8.192 ZM6.576,3.224 C6.410,3.176 6.240,3.151 6.063,3.151 C5.287,3.151 4.422,3.633 3.484,4.585 C1.868,6.230 2.182,7.225 2.285,7.553 C3.010,9.855 7.976,11.820 11.809,12.802 C10.850,8.931 8.899,3.915 6.576,3.224 ZM25.488,4.585 C24.550,3.633 23.685,3.151 22.909,3.151 C22.733,3.151 22.562,3.176 22.396,3.224 C20.073,3.915 18.122,8.931 17.163,12.802 C20.996,11.820 25.962,9.855 26.688,7.553 C26.791,7.225 27.104,6.230 25.488,4.585 ZM4.529,17.791 L13.037,17.791 L13.037,43.012 L4.529,43.012 C3.012,43.012 1.782,41.798 1.782,40.302 L1.782,20.501 C1.782,19.004 3.012,17.791 4.529,17.791 ZM27.609,20.501 L27.609,40.302 C27.609,41.798 26.379,43.012 24.861,43.012 L16.354,43.012 L16.354,17.791 L24.861,17.791 C26.379,17.791 27.609,19.004 27.609,20.501 Z"/>
</svg>