<svg xmlns="http://www.w3.org/2000/svg" width="30" height="30">
    <path fill-rule="evenodd" d="M29.877 16.404l-1.482 7.37c-.533 2.646-2.91 4.568-5.654 4.568H8.754v.555c0 .61-.503 1.104-1.123 1.104H1.112c-.62 0-1.123-.494-1.123-1.104V9.227c0-.61.503-1.104 1.123-1.104h6.519c.62 0 1.123.494 1.123 1.104v.042c1.368-1.428 3.035-3.571 3.223-5.695.172-1.947 1.07-2.811 1.793-3.193 1.805-.956 4.056.189 4.306.324.362.193.587.566.587.97v7.961h5.56c1.731 0 3.354.755 4.453 2.07a5.58 5.58 0 0 1 1.201 4.698zM6.508 27.238V10.331H2.235v17.462h4.273v-.555zm20.434-14.13a3.531 3.531 0 0 0-2.719-1.264h-6.682c-.62 0-1.123-.494-1.123-1.104V2.403c-.522-.172-1.185-.291-1.587-.076-.425.226-.57.907-.617 1.438-.344 3.884-4.16 7.463-5.46 8.576v13.792h13.987c1.651 0 3.08-1.141 3.432-2.721h-4.306a1.114 1.114 0 0 1-1.122-1.105c0-.609.503-1.104 1.122-1.104h4.756l.209-1.037h-4.204c-.62 0-1.123-.495-1.123-1.104 0-.61.503-1.104 1.123-1.104h4.648l.209-1.038h-4.201a1.113 1.113 0 0 1-1.122-1.104c0-.609.503-1.104 1.122-1.104h4.388a3.413 3.413 0 0 0-.73-1.604z"/>
</svg>
