<svg xmlns="http://www.w3.org/2000/svg" width="13" height="27">
    <path fill-rule="evenodd" d="M12.134 7.285V1.811h.872V-.005H-.005v1.816h.873v5.474c0 1.542.678 2.983 1.859 3.954l2.746 2.255-2.746 2.256a5.097 5.097 0 0 0-1.859 3.954v5.474h-.873v1.816h13.011v-1.816h-.872v-5.474a5.096 5.096 0 0 0-1.859-3.954l-2.746-2.256 2.746-2.256a5.094 5.094 0 0 0 1.859-3.953zm-1.428 12.419v4.573h-.962c-.689-1.322-2.19-4.012-3.088-4.206-.912-.196-2.63 2.79-3.388 4.206h-.972v-4.573c0-1.103.485-2.133 1.33-2.827l2.875-2.362 2.875 2.362a3.64 3.64 0 0 1 1.33 2.827zm-1.33-9.592l-2.875 2.362-2.875-2.361a3.646 3.646 0 0 1-1.33-2.828V2.711h8.41v4.574a3.642 3.642 0 0 1-1.33 2.827z"/>
</svg>
