<svg xmlns="http://www.w3.org/2000/svg" width="19" height="19">
    <path fill-rule="evenodd" d="M14.82 1.631A9.468 9.468 0 0 0 9.507.01C4.269.01.007 4.267.007 9.5c0 5.232 4.262 9.489 9.5 9.489 5.239 0 9.501-4.257 9.501-9.489a9.482 9.482 0 0 0-4.188-7.869zM2.152 9.5c0-4.051 3.3-7.347 7.355-7.347 1.475 0 2.897.433 4.112 1.254a7.38 7.38 0 0 1 1.23 1.054L3.164 13.2a7.282 7.282 0 0 1-1.012-3.7zm7.355 7.347a7.325 7.325 0 0 1-5-1.975l11.572-8.654a7.314 7.314 0 0 1 .784 3.282c0 4.051-3.3 7.347-7.356 7.347z"/>
</svg>
