<svg 
 xmlns="http://www.w3.org/2000/svg"
 xmlns:xlink="http://www.w3.org/1999/xlink"
 width="29.805px" height="26.805px">
<path fill-rule="evenodd"  stroke="rgb(117, 111, 165)" stroke-width="1.87px" stroke-linecap="butt" stroke-linejoin="miter" fill="none"
 d="M15.098,23.695 L24.484,14.707 C26.785,12.420 27.935,10.173 27.935,7.965 C27.935,5.769 27.297,4.051 26.021,2.812 C24.746,1.574 22.983,0.955 20.733,0.955 C20.110,0.955 19.475,1.062 18.827,1.277 C18.179,1.492 17.576,1.781 17.019,2.146 C16.461,2.511 15.982,2.852 15.580,3.172 C15.178,3.492 14.796,3.831 14.435,4.191 C14.073,3.831 13.691,3.492 13.290,3.172 C12.888,2.852 12.409,2.511 11.851,2.146 C11.294,1.781 10.691,1.492 10.043,1.277 C9.395,1.062 8.760,0.955 8.137,0.955 C5.887,0.955 4.124,1.574 2.848,2.812 C1.573,4.051 0.935,5.769 0.935,7.965 C0.935,8.635 1.053,9.324 1.289,10.033 C1.525,10.742 1.794,11.346 2.095,11.846 C2.396,12.345 2.737,12.832 3.120,13.307 C3.502,13.780 3.780,14.108 3.956,14.288 C4.131,14.468 4.270,14.597 4.370,14.677 L13.772,23.695 C13.953,23.875 14.174,23.965 14.435,23.965 C14.696,23.965 14.917,23.875 15.098,23.695 L15.098,23.695 Z"/>
</svg>