<svg 
 xmlns="http://www.w3.org/2000/svg"
 xmlns:xlink="http://www.w3.org/1999/xlink"
 width="39px" height="40px">
<path fill-rule="evenodd"  fill="rgb(117, 111, 165)"
 d="M38.980,3.724 C38.978,3.819 38.967,3.908 38.928,3.995 C38.899,4.059 38.871,4.108 38.824,4.162 C38.804,4.185 38.798,4.216 38.775,4.238 L32.782,9.905 C32.224,10.428 31.495,10.747 30.727,10.797 L23.561,11.267 C23.544,11.270 23.528,11.270 23.512,11.270 C23.163,11.270 22.859,11.029 22.787,10.691 L21.241,3.426 C21.165,3.070 21.367,2.713 21.715,2.590 L28.470,0.193 C29.193,-0.069 29.994,-0.066 30.719,0.201 L38.519,3.027 C38.545,3.037 38.562,3.061 38.587,3.074 C38.656,3.105 38.704,3.141 38.761,3.192 C38.828,3.254 38.872,3.329 38.912,3.413 C38.939,3.466 38.999,3.495 39.012,3.557 C39.025,3.617 38.982,3.665 38.980,3.724 ZM28.977,7.765 C28.831,7.797 28.683,7.810 28.536,7.810 C28.126,7.810 27.725,7.693 27.373,7.468 C26.898,7.161 26.572,6.690 26.456,6.140 C26.340,5.595 26.448,5.034 26.758,4.567 C27.069,4.096 27.547,3.776 28.105,3.661 C28.665,3.551 29.233,3.653 29.706,3.958 C29.967,4.125 30.171,4.348 30.332,4.599 L35.586,3.518 L30.207,1.569 C29.807,1.425 29.370,1.425 28.975,1.566 C28.973,1.566 28.973,1.566 28.973,1.566 L22.824,3.746 L24.105,9.771 L30.628,9.344 C31.049,9.315 31.451,9.141 31.757,8.852 L35.889,4.945 L30.631,6.027 C30.499,6.866 29.870,7.580 28.977,7.765 ZM29.175,5.582 C29.140,5.416 29.041,5.272 28.896,5.179 C28.789,5.109 28.667,5.075 28.542,5.075 C28.498,5.075 28.454,5.080 28.409,5.087 C28.239,5.122 28.092,5.221 27.999,5.363 C27.904,5.507 27.871,5.676 27.907,5.844 C27.942,6.012 28.041,6.154 28.185,6.247 C28.331,6.341 28.501,6.367 28.673,6.338 C29.024,6.266 29.249,5.927 29.175,5.582 ZM21.015,11.823 L3.264,15.479 C2.287,15.680 1.329,15.064 1.124,14.101 L0.017,8.897 C-0.187,7.935 0.439,6.992 1.417,6.790 L19.167,3.134 C19.416,3.083 19.661,3.240 19.713,3.485 L21.371,11.286 C21.424,11.531 21.264,11.772 21.015,11.823 ZM33.062,20.300 L19.985,27.476 C19.659,27.655 19.263,27.655 18.936,27.477 L5.792,20.301 C4.819,19.769 5.202,18.311 6.316,18.311 L32.537,18.311 C33.649,18.311 34.033,19.767 33.062,20.300 ZM6.419,23.785 L19.426,30.222 L32.433,23.785 C33.692,23.213 35.194,24.015 35.194,25.259 L35.194,36.756 C35.194,38.012 34.034,39.031 32.603,39.031 L6.250,39.031 C4.818,39.031 3.658,38.012 3.658,36.756 L3.658,25.259 C3.658,24.015 5.160,23.213 6.419,23.785 Z"/>
</svg>