<svg xmlns="http://www.w3.org/2000/svg" width="56" height="56">
    <path fill="#B3DAF5" fill-rule="evenodd" d="M23.663 38.768c-4.146 0-7.692-1.474-10.639-4.42-2.946-2.947-4.42-6.494-4.42-10.639 0-4.146 1.474-7.693 4.42-10.638 2.947-2.947 6.493-4.421 10.639-4.421 4.146 0 7.692 1.474 10.638 4.421 2.947 2.945 4.422 6.492 4.422 10.638 0 4.145-1.475 7.692-4.422 10.639-2.946 2.946-6.492 4.42-10.638 4.42zm31.026 9.882l-11.53-11.53c2.778-4.011 4.168-8.481 4.168-13.411 0-3.205-.621-6.269-1.866-9.194-1.244-2.924-2.925-5.445-5.042-7.563-2.116-2.117-4.638-3.797-7.562-5.042A23.273 23.273 0 0 0 23.663.044c-3.204 0-6.268.623-9.194 1.866-2.925 1.245-5.445 2.925-7.563 5.042-2.116 2.118-3.797 4.639-5.041 7.563A23.25 23.25 0 0 0 0 23.709c0 3.204.621 6.269 1.865 9.193 1.244 2.925 2.925 5.445 5.041 7.563 2.118 2.118 4.638 3.799 7.563 5.042a23.275 23.275 0 0 0 9.194 1.865c4.929 0 9.4-1.389 13.411-4.168L48.603 54.7c.808.852 1.816 1.278 3.026 1.278 1.165 0 2.173-.426 3.026-1.278.851-.852 1.276-1.86 1.276-3.026 0-1.187-.415-2.195-1.242-3.024z"/>
</svg>
