<svg 
 xmlns="http://www.w3.org/2000/svg"
 xmlns:xlink="http://www.w3.org/1999/xlink"
 width="22px" height="26px">
<path fill-rule="evenodd"  fill="rgb(255, 224, 214)"
 d="M17.257,0.001 L-0.005,0.001 L-0.005,25.999 L21.998,25.999 L21.998,5.134 L17.257,0.001 ZM17.608,10.144 L11.008,18.952 C10.833,19.185 10.563,19.335 10.268,19.361 C10.237,19.364 10.205,19.365 10.174,19.365 C9.912,19.365 9.658,19.267 9.465,19.090 L5.676,15.596 C5.260,15.213 5.240,14.572 5.632,14.164 C6.023,13.757 6.678,13.737 7.094,14.121 L10.032,16.830 L15.940,8.945 C16.278,8.494 16.926,8.396 17.386,8.728 C17.846,9.059 17.946,9.693 17.608,10.144 Z"/>
</svg>