<svg 
 xmlns="http://www.w3.org/2000/svg"
 xmlns:xlink="http://www.w3.org/1999/xlink"
 width="28px" height="27px">
<path fill-rule="evenodd"  fill="rgb(217, 244, 242)"
 d="M24.535,4.637 L22.006,4.637 L22.006,1.345 C22.006,0.604 21.409,-0.002 20.679,-0.002 L20.356,-0.002 C19.626,-0.002 19.029,0.604 19.029,1.345 L19.029,4.637 L8.962,4.637 L8.962,1.345 C8.962,0.604 8.365,-0.002 7.635,-0.002 L7.312,-0.002 C6.582,-0.002 5.985,0.604 5.985,1.345 L5.985,4.637 L3.456,4.637 C1.546,4.637 -0.002,6.208 -0.002,8.147 L-0.002,23.480 C-0.002,25.418 1.546,26.990 3.456,26.990 L24.535,26.990 C26.445,26.990 27.993,25.418 27.993,23.480 L27.993,8.147 C27.993,6.208 26.445,4.637 24.535,4.637 ZM21.990,10.715 L13.453,22.519 C13.226,22.832 12.878,23.032 12.497,23.068 C12.456,23.071 12.415,23.073 12.375,23.073 C12.036,23.073 11.707,22.942 11.458,22.704 L6.556,18.022 C6.019,17.508 5.992,16.649 6.499,16.103 C7.006,15.556 7.852,15.531 8.391,16.045 L12.190,19.675 L19.833,9.108 C20.269,8.504 21.107,8.372 21.703,8.817 C22.299,9.260 22.427,10.110 21.990,10.715 Z"/>
</svg>