<svg 
 xmlns="http://www.w3.org/2000/svg"
 xmlns:xlink="http://www.w3.org/1999/xlink"
 width="28px" height="40px">
<path fill-rule="evenodd"  fill="rgb(0, 130, 222)"
 d="M26.320,39.998 L1.675,39.998 C0.750,39.998 0.000,39.246 0.000,38.319 L0.000,28.658 C0.000,27.730 0.750,26.978 1.675,26.978 C2.599,26.978 3.349,27.730 3.349,28.658 L3.349,36.639 L24.646,36.639 L24.646,28.658 C24.646,27.730 25.395,26.978 26.320,26.978 C27.245,26.978 27.995,27.730 27.995,28.658 L27.995,38.319 C27.995,39.246 27.245,39.998 26.320,39.998 ZM23.260,12.783 L15.537,5.546 L15.537,30.418 C15.537,31.345 14.787,32.097 13.863,32.097 C12.938,32.097 12.188,31.345 12.188,30.418 L12.188,5.546 L4.466,12.783 C4.143,13.086 3.732,13.236 3.323,13.236 C2.876,13.236 2.429,13.057 2.100,12.703 C1.468,12.025 1.504,10.962 2.180,10.329 L12.720,0.450 C13.363,-0.152 14.363,-0.152 15.006,0.450 L25.547,10.329 C26.223,10.962 26.259,12.025 25.627,12.703 C24.996,13.382 23.937,13.416 23.260,12.783 Z"/>
</svg>