<svg xmlns="http://www.w3.org/2000/svg" width="19" height="30">
    <path fill="#42c8be" fill-rule="evenodd" d="M9.933 29.788l8.867-9.603a.67.67 0 0 0 .191-.475.67.67 0 0 0-.191-.473l-.949-1.03a.583.583 0 0 0-.44-.207.587.587 0 0 0-.438.207l-7.48 8.098-7.48-8.098A.583.583 0 0 0 1.574 18a.577.577 0 0 0-.437.207l-.951 1.03a.678.678 0 0 0-.191.473c0 .18.064.338.191.475l8.87 9.603a.58.58 0 0 0 .437.206.588.588 0 0 0 .44-.206zM9.066.213L.199 9.815a.676.676 0 0 0-.192.475c0 .178.064.336.192.473l.95 1.031a.586.586 0 0 0 .439.206.58.58 0 0 0 .437-.206l7.48-8.098 7.483 8.098a.583.583 0 0 0 .438.206.577.577 0 0 0 .435-.206l.954-1.031a.674.674 0 0 0 .189-.473.677.677 0 0 0-.189-.475L9.944.213a.578.578 0 0 0-.439-.206.59.59 0 0 0-.439.206z"/>
</svg>
