<svg xmlns="http://www.w3.org/2000/svg" width="17" height="28">
    <path fill-rule="evenodd" d="M16.626 15.241l-7.329 6.917a1.157 1.157 0 0 1-1.59 0L.378 15.241a1.183 1.183 0 0 1-.055-1.662 1.154 1.154 0 0 1 1.645-.057l5.37 5.068V1.174c0-.65.521-1.176 1.164-1.176a1.17 1.17 0 0 1 1.164 1.176V18.59l5.37-5.068a1.155 1.155 0 0 1 1.645.057c.44.474.415 1.218-.055 1.662zM1.975 25.655h13.241a1.17 1.17 0 0 1 1.164 1.176 1.17 1.17 0 0 1-1.164 1.176H1.975a1.17 1.17 0 0 1-1.164-1.176 1.17 1.17 0 0 1 1.164-1.176z"/>
</svg>
