<svg xmlns="http://www.w3.org/2000/svg" width="58" height="51">
    <path fill="#005499" fill-rule="evenodd" d="M45.251 17.499s2.952-2.407 1.175-4.185c-1.77-1.774-4.098 1.13-4.098 1.13L27.377 29.451s-6.129 7.321-9.004 5.178c-4.131-3.081 4.51-9.783 4.51-9.783L37.506 9.555s6.322-7.492 11.885-2.213c6.107 5.672 1.937 8.408 1.937 8.408L25.701 41.496s-8.52 8.773-16.184 1.932c-9.117-8.621.877-18.082.877-18.082L30.339 5.315s2.23-1.874.559-3.559c-1.68-1.687-3.543.565-3.543.565L4.477 25.301s-9.142 9.738 2.152 21.122c9.64 9.683 19.116 1.013 19.116 1.013L57.194 15.85s3.681-3.146-4.802-11.512c-7.501-7.544-15.631-.026-15.631-.026l-21.08 21.783s-6.697 5.421-.404 11.738c5.563 5.595 13.642-3.936 13.642-3.936l16.332-16.398z"/>
</svg>
