<svg xmlns="http://www.w3.org/2000/svg" width="27" height="29">
    <path fill-rule="evenodd" d="M26.775 1.785l-7.411 9.762a1.17 1.17 0 0 1-.937.458c-.294 0-.579-.108-.796-.305l-4.255-3.872a1.097 1.097 0 0 1-.049-1.587 1.19 1.19 0 0 1 1.642-.048l3.299 3.002L24.902.457a1.187 1.187 0 0 1 1.624-.241c.517.367.628 1.069.249 1.569z"/>
    <path fill="#1E1E1C" fill-rule="evenodd" d="M.005 28.998v-.608c0-4.423 3.684-8.042 8.187-8.042h.62c4.503 0 8.187 3.619 8.187 8.042v.608H.005zm8.737-10.092c-2.785 0-5.043-2.218-5.043-4.953C3.699 11.218 5.957 9 8.742 9s5.043 2.218 5.043 4.953c0 2.735-2.258 4.953-5.043 4.953z"/>
</svg>
