<svg xmlns="http://www.w3.org/2000/svg" width="30" height="28">
    <path fill-rule="evenodd" d="M25.49 27.992H4.507c-2.486 0-4.509-2.056-4.509-4.583V8.125c0-2.527 2.023-4.583 4.509-4.583h2.517V1.345c0-.739.595-1.343 1.322-1.343h.321c.727 0 1.322.604 1.322 1.343v2.197h10.02V1.345c0-.739.594-1.343 1.321-1.343h.321c.727 0 1.322.604 1.322 1.343v2.197h2.517c2.487 0 4.509 2.056 4.509 4.583v15.284c0 2.527-2.022 4.583-4.509 4.583zm2.375-19.867c0-1.331-1.065-2.414-2.375-2.414h-2.517v.302c0 .739-.595 1.343-1.322 1.343h-.321a1.336 1.336 0 0 1-1.321-1.343v-.302H9.989v.302c0 .739-.595 1.343-1.322 1.343h-.321a1.336 1.336 0 0 1-1.322-1.343v-.302H4.507c-1.309 0-2.375 1.083-2.375 2.414v15.284c0 1.331 1.066 2.414 2.375 2.414H25.49c1.31 0 2.375-1.083 2.375-2.414V8.125z"/>
</svg>
