<svg xmlns="http://www.w3.org/2000/svg" width="53.329" height="28.006">
    <path fill="#756FA5" fill-rule="evenodd" d="M39.6 11.203c-.35.36-8.675 8.844-19.175 8.844-10.501 0-18.826-8.484-19.176-8.844a1.008 1.008 0 0 1 0-1.409c.35-.36 8.677-8.84 19.176-8.84 10.498 0 18.825 8.48 19.175 8.84a1.008 1.008 0 0 1 0 1.409zM20.425 3c-7.918 0-14.72 5.509-16.919 7.498 2.201 1.987 9.018 7.503 16.919 7.503 7.917 0 14.719-5.513 16.917-7.503C35.142 8.512 28.325 3 20.425 3zm0 12.613c-2.882 0-5.217-2.289-5.217-5.113 0-2.824 2.335-5.112 5.217-5.112 2.881 0 5.217 2.288 5.217 5.112 0 2.824-2.336 5.113-5.217 5.113z"/>
</svg>
