<svg xmlns="http://www.w3.org/2000/svg" viewBox="0 0 46.99 36"><title>Fichier 1</title><g id="Calque_2" data-name="Calque 2"><g id="Calque_1-2" data-name="Calque 1"><path d="M41.54,15.81H37.29l0-7.6a3,3,0,0,0-1-2.23L30.52.84A3.33,3.33,0,0,0,28.29,0H13A3.17,3.17,0,0,0,9.7,3.08V15.81H5.45A5.31,5.31,0,0,0,0,21v8a2.86,2.86,0,0,0,2.93,2.77h7v1.41A2.91,2.91,0,0,0,13,36H34a2.91,2.91,0,0,0,3-2.82V31.76h7A2.86,2.86,0,0,0,47,29V21A5.31,5.31,0,0,0,41.54,15.81ZM12,2.45a.86.86,0,0,1,.87-.85H28.24c.1,0,.18.07.27.1v.64l.05,0V6.81A1.58,1.58,0,0,0,30.1,8h4.75v.42h0l0,7.39h0v.45a.83.83,0,0,1-.25.6.87.87,0,0,1-.61.25H12.85a.86.86,0,0,1-.87-.85ZM35.17,33.17a1,1,0,0,1,0,.14v.4A1.12,1.12,0,0,1,34,34.83H12.85a1.12,1.12,0,0,1-1.13-1.11V27a1.12,1.12,0,0,1,1.13-1.11H34A1.12,1.12,0,0,1,35.14,27v4.8h0Zm5.49-9.93A2.29,2.29,0,1,1,43,21,2.32,2.32,0,0,1,40.66,23.24Z" fill="#756fa5"/></g></g></svg>