<svg 
 xmlns="http://www.w3.org/2000/svg"
 xmlns:xlink="http://www.w3.org/1999/xlink"
 width="32px" height="36px">
<path fill-rule="evenodd"  fill="rgb(117, 111, 165)"
 d="M28.220,35.995 L2.802,35.995 C1.256,35.995 0.002,34.821 0.002,33.372 L0.002,33.152 C0.002,31.703 1.256,30.529 2.802,30.529 L28.220,30.529 C29.766,30.529 31.020,31.703 31.020,33.152 L31.020,33.372 C31.020,34.821 29.766,35.995 28.220,35.995 ZM4.352,20.745 L25.908,20.745 L27.524,26.397 L2.737,26.397 L4.352,20.745 ZM7.329,10.332 L22.932,10.332 L24.346,15.278 L5.916,15.278 L7.329,10.332 ZM9.881,1.522 C10.132,0.645 10.980,0.035 11.948,0.035 L18.313,0.035 C19.282,0.035 20.129,0.645 20.380,1.522 L21.369,4.982 L8.892,4.982 L9.881,1.522 Z"/>
</svg>